<?xml version="1.0" encoding="utf-8"?>
<!-- Generator: Adobe Illustrator 16.0.4, SVG Export Plug-In . SVG Version: 6.00 Build 0)  -->
<!DOCTYPE svg PUBLIC "-//W3C//DTD SVG 1.1//EN" "http://www.w3.org/Graphics/SVG/1.1/DTD/svg11.dtd">
<svg version="1.1" id="Layer_1" xmlns="http://www.w3.org/2000/svg" xmlns:xlink="http://www.w3.org/1999/xlink" x="0px" y="0px"
	 width="283.46px" height="283.46px" viewBox="0 0 283.46 283.46" enable-background="new 0 0 283.46 283.46" xml:space="preserve">
<g>
	<path fill="#009877" d="M152.571,136.879c-66.546,82.002-10.979,144.524-10.979,144.524c-4.308-53.508,32.438-57.861,58.668-97.103
		c26.246-39.234-2.414-68.1-2.414-68.1s2.73,15.734-32.537,47.201c-35.478,31.686-31.164,57.672-29.943,62.55
		c-17.022-54.187,62.739-82.104,59.444-135.595c-2.995-48.666-30.32-67.754-30.32-67.754S196.964,82.182,152.571,136.879z"/>
	<path fill="#009877" d="M130.898,146.759c66.535-82,10.969-144.529,10.969-144.529c4.319,53.51-32.434,57.866-58.667,97.106
		c-26.251,39.237,2.418,68.103,2.418,68.103s-2.731-15.738,32.539-47.208c35.476-31.683,31.158-57.669,29.941-62.549
		c17.021,54.186-62.744,82.104-59.441,135.592c2.992,48.668,30.313,67.757,30.313,67.757S86.501,201.451,130.898,146.759z"/>
</g>
</svg>
