<?xml version="1.0" encoding="utf-8"?>
<!-- Generator: Adobe Illustrator 16.0.4, SVG Export Plug-In . SVG Version: 6.00 Build 0)  -->
<!DOCTYPE svg PUBLIC "-//W3C//DTD SVG 1.1//EN" "http://www.w3.org/Graphics/SVG/1.1/DTD/svg11.dtd">
<svg version="1.1" id="Layer_1" xmlns="http://www.w3.org/2000/svg" xmlns:xlink="http://www.w3.org/1999/xlink" x="0px" y="0px"
	 width="413.213px" height="562.928px" viewBox="0 0 413.213 562.928" enable-background="new 0 0 413.213 562.928"
	 xml:space="preserve">
<path fill="#009877" d="M409.035,206.255c0,167.385-201.878,345.652-201.878,345.652S5.287,356.656,5.287,206.255
	C5.287,94.756,95.67,4.38,207.165,4.38C318.653,4.38,409.035,94.756,409.035,206.255z"/>
<path fill="#222944" d="M409.418,207.473c0,167.387-201.882,345.656-201.882,345.656S5.667,357.877,5.667,207.473
	C5.667,95.977,96.049,5.6,207.54,5.6C319.032,5.6,409.418,95.977,409.418,207.473z"/>
<path fill="#151C33" d="M207.064,557.458l-2.115-2.045C196.67,547.406,2.108,357.5,2.108,207.473
	C2.108,94.407,94.091,2.418,207.161,2.418c113.063,0,205.052,91.99,205.052,205.055c0,166.892-200.913,346.25-202.943,348.039
	L207.064,557.458z M207.161,8.785c-109.553,0-198.69,89.131-198.69,198.688c0,139.075,177.254,319.838,198.78,341.277
	c21.898-20.038,198.601-186.645,198.601-341.277C405.854,97.917,316.727,8.785,207.161,8.785z"/>
<path fill="#009877" d="M348.37,196.602c0,77.357-62.705,140.06-140.068,140.06c-77.353,0-140.062-62.702-140.062-140.06
	c0-77.354,62.708-140.064,140.062-140.064C285.668,56.538,348.37,119.247,348.37,196.602z"/>
<path fill="#151C33" d="M207.534,339.841c-78.987,0-143.245-64.25-143.245-143.239c0-78.982,64.258-143.247,143.245-143.247
	c78.986,0,143.261,64.265,143.261,143.247C350.795,275.592,286.521,339.841,207.534,339.841z M207.534,59.724
	c-75.472,0-136.872,61.398-136.872,136.877c0,75.478,61.399,136.878,136.872,136.878c75.478,0,136.887-61.4,136.887-136.878
	C344.421,121.123,283.013,59.724,207.534,59.724z"/>
<g>
	<path id="XMLID_3_" fill="#FFFFFF" d="M221.147,107.944c0,0,21.434,12.494,24.309,48.123c3.183,39.362-55.54,60.954-41.492,100.821
		c0,0-7.504-20.518,20.898-46.876c25.409-23.559,23.182-35.047,23.182-35.047s21.417,20.746,2.728,49.874
		c-18.678,29.128-45.56,32.833-41.645,71.999c0,0-41.203-47.261,6.024-106.092C249.339,148.157,221.147,107.944,221.147,107.944z"/>
	<path id="XMLID_2_" fill="#FFFFFF" d="M193.945,280.182c0,0-21.444-12.491-24.316-48.118
		c-3.175-39.363,55.531-60.953,41.491-100.822c0,0,7.506,20.523-20.886,46.87c-25.419,23.559-23.193,35.053-23.193,35.053
		s-21.417-20.757-2.728-49.875c18.679-29.127,45.552-32.839,41.651-71.989c0,0,41.196,47.25-6.031,106.078
		C165.745,239.969,193.945,280.182,193.945,280.182z"/>
</g>
</svg>
