<?xml version="1.0" encoding="utf-8"?>
<!-- Generator: Adobe Illustrator 16.0.4, SVG Export Plug-In . SVG Version: 6.00 Build 0)  -->
<!DOCTYPE svg PUBLIC "-//W3C//DTD SVG 1.1//EN" "http://www.w3.org/Graphics/SVG/1.1/DTD/svg11.dtd">
<svg version="1.1" id="Layer_1" xmlns="http://www.w3.org/2000/svg" xmlns:xlink="http://www.w3.org/1999/xlink" x="0px" y="0px"
	 width="747.445px" height="190.667px" viewBox="0 0 747.445 190.667" enable-background="new 0 0 747.445 190.667"
	 xml:space="preserve">
<g>
	<path fill="#FFFFFF" d="M80-1C36-1,0,35,0,79v31.667c0,44,36,80,80,80h587.445c44,0,80-36,80-80V79c0-44-36-80-80-80H80z"/>
</g>
<rect y="90.833" fill="#FFFFFF" width="747.445" height="99.834"/>
<path fill="#FFFFFF" d="M691.298,81.5c-2.557-5.178-6.143-9.588-10.678-13.136c2.547-3.891,3.877-8.423,3.877-13.265
	c0-8.117-4.254-15.5-11.674-20.258c-5.334-3.409-12.224-5.066-21.059-5.066h-4.452l-24.825,13.586
	c-3.99,2.141-7.145,4.925-9.374,8.279c-2.506,3.777-3.832,8.071-3.832,12.42c0,0.398,0.011,0.797,0.033,1.196h-5.336
	c-2.029-8.002-6.685-12.433-10.398-14.785c-5.094-3.213-11.154-4.775-18.532-4.775c-3.015,0-5.984,0.242-8.827,0.723
	c-2.463,0.424-4.323,0.816-5.859,1.234l-12.842,3.492v7.726c-2.291-4.13-5.319-6.762-7.893-8.393
	c-5.095-3.217-11.156-4.781-18.539-4.781c-3.016,0-5.983,0.242-8.835,0.724c-0.161,0.027-0.319,0.055-0.475,0.083
	c-1.388-2.948-3.259-5.632-5.585-8.004c-5.602-5.707-13.047-8.723-21.532-8.723s-15.931,3.018-21.531,8.727
	c-5.423,5.526-8.33,12.586-8.422,20.439c-4.184-0.391-8.638-0.06-13.048,0.968c-3.386,0.789-6.544,1.949-9.386,3.453l-5.012,2.649
	c-1.017-0.923-2.104-1.758-3.25-2.497c-4.873-3.144-10.656-4.736-17.19-4.736c-1.269,0-2.53,0.066-3.774,0.195
	c-0.083-7.869-2.99-14.939-8.417-20.468c-5.6-5.711-13.049-8.73-21.537-8.73c-8.486,0-15.933,3.018-21.531,8.726
	c-5.11,5.207-7.987,11.774-8.379,19.086c-2.173-3.403-4.831-5.655-7.129-7.111c-5.092-3.217-11.158-4.781-18.543-4.781
	c-3.013,0-5.979,0.242-8.821,0.723c-2.46,0.423-4.324,0.816-5.872,1.237l-12.832,3.499v13.454c-3.561-1.935-7.51-3.446-11.794-4.508
	c-5.343-1.323-11.223-1.995-17.472-1.995c-3.845,0-7.961,0.274-12.238,0.812c-3.922,0.497-7.56,1.277-10.879,2.337
	c0.037-0.64,0.058-1.282,0.058-1.927c0-8.007-2.914-15.21-8.426-20.826c-5.602-5.708-13.049-8.726-21.533-8.726
	s-15.931,3.018-21.537,8.729c-5.334,5.44-8.234,12.365-8.41,20.071c-4.763-0.575-10.286-0.409-16.036,0.48
	c-3.359,0.523-6.666,1.263-9.826,2.198c-3.161,0.938-6.175,2.045-8.961,3.291c-2.295,1.025-4.424,2.186-6.358,3.465
	c-1.323-1.267-2.773-2.429-4.338-3.472c-6.49-4.328-14.549-6.433-24.634-6.433c-6.692,0-13.178,1.022-19.28,3.035
	c-6.538,2.156-12.416,5.468-17.469,9.842c-5.31,4.59-9.505,10.384-12.472,17.224c-2.882,6.631-4.343,14.209-4.343,22.524
	c0,7.457,1.374,14.473,4.087,20.85c2.77,6.504,6.763,12.178,11.869,16.864c4.971,4.564,10.909,8.115,17.644,10.556
	c6.471,2.349,13.643,3.54,21.314,3.54c9.408,0,17.021-1.756,23.272-5.366c0.45-0.258,0.893-0.527,1.327-0.809
	c3.215,2.319,6.951,3.859,11.118,4.578c2.524,0.431,5.33,0.651,8.34,0.651c2.78,0,5.667-0.195,8.351-0.571
	c2.891-0.405,5.068-0.847,6.857-1.384l12.378-3.739v-11.483c0.142,0.384,0.291,0.766,0.448,1.142
	c1.789,4.285,4.529,7.837,8.155,10.56c3.296,2.458,7.15,4.081,11.459,4.826c2.487,0.423,5.309,0.648,8.155,0.648
	c2.993,0,5.945-0.235,8.772-0.698c2.067-0.336,3.632-0.602,4.693-0.794l13.228-2.4c2.92,1.316,6.08,2.377,9.432,3.165
	c5.117,1.202,10.791,1.81,16.864,1.81c13.954,0,24.959-2.531,33.645-7.742c1.83-1.099,3.554-2.341,5.148-3.706
	c0.641,0.635,1.307,1.245,1.995,1.826c7.479,6.295,17.402,9.487,29.496,9.487c9.817,0,17.402-1.978,23.071-6.01
	c3.167,2.229,6.827,3.713,10.894,4.414c5.131,0.876,11.36,0.861,16.924-0.048c2.073-0.338,3.633-0.604,4.695-0.796l14.303-2.596
	v-6.312c2.548,3.223,6.451,6.531,12.375,8.612c4.406,1.545,9.407,2.328,14.868,2.328c4.508,0,8.752-0.506,12.62-1.505
	c4.829-1.256,8.729-3.089,11.921-5.604l2.931-2.312l1.728-3.311c0.24-0.463,0.484-0.941,0.733-1.438
	c1.736,3.224,4.08,5.955,6.992,8.143c3.295,2.463,7.152,4.091,11.474,4.835c2.485,0.424,5.306,0.649,8.155,0.649
	c2.992,0,5.946-0.235,8.775-0.698c2.064-0.336,3.627-0.6,4.69-0.792l13.772-2.498c6.359,3.277,13.955,4.936,22.646,4.936
	c10.816,0,18.921-2.396,24.771-7.328c0.39-0.325,0.767-0.663,1.138-1.009c7.296,5.533,16.723,8.337,28.055,8.337
	c10.819,0,18.922-2.396,24.761-7.323c0.18-0.15,0.358-0.305,0.533-0.458c4.323,2.744,9.333,4.798,14.904,6.105
	c5.111,1.201,10.786,1.811,16.861,1.811c13.954,0,24.962-2.535,33.657-7.748c3.32-1.994,6.269-4.44,8.767-7.276
	c4.114-4.683,6.289-10.639,6.289-17.227v-30.218C695.391,93.311,694.014,87.018,691.298,81.5z"/>
<path fill="#575756" d="M360.551,59.327c0-3.416,1.146-6.293,3.44-8.631c2.293-2.338,5.329-3.51,9.106-3.51s6.812,1.172,9.104,3.51
	c2.296,2.338,3.441,5.215,3.441,8.631c0,3.418-1.145,6.299-3.441,8.635c-2.292,2.34-5.327,3.507-9.104,3.507
	s-6.812-1.167-9.106-3.507C361.697,65.625,360.551,62.745,360.551,59.327z"/>
<linearGradient id="SVGID_1_" gradientUnits="userSpaceOnUse" x1="732.6089" y1="-278.522" x2="732.6089" y2="-347.0537" gradientTransform="matrix(1 0 0 -1 -304 -202.333)">
	<stop  offset="0" style="stop-color:#575756"/>
	<stop  offset="1" style="stop-color:#000000"/>
</linearGradient>
<path fill="url(#SVGID_1_)" d="M459.166,78.214c-2.158-1.347-4.812-2.025-7.961-2.025c-1.799,0-3.665,0.227-5.598,0.678
	c-1.935,0.45-3.667,1.08-5.193,1.886c-1.529,7.827-3.238,15.784-5.123,23.879c-1.895,8.098-3.691,15.471-5.4,22.126h-0.674
	c-0.45-1.8-1.126-4.34-2.021-7.623c-0.9-3.282-1.846-6.946-2.834-10.994L419.098,85.5c-0.989-3.596-2.495-6.048-4.518-7.353
	c-2.023-1.304-4.612-1.958-7.755-1.958c-2.521,0-4.836,0.475-6.949,1.419c-2.116,0.943-3.8,2.046-5.059,3.305
	c0.63,2.696,1.436,5.8,2.428,9.308c0.99,3.509,2.09,7.151,3.304,10.926c1.216,3.779,2.497,7.603,3.844,11.467
	c1.352,3.869,2.651,7.489,3.915,10.859c1.258,3.374,2.448,6.433,3.57,9.173c1.127,2.745,2.095,4.884,2.903,6.411
	c0.99,1.978,2.769,3.418,5.332,4.315c2.56,0.9,5.598,1.348,9.104,1.348c3.059,0,5.801-0.312,8.232-0.939
	c2.424-0.633,4.268-1.438,5.528-2.431c1.079-2.066,2.315-4.699,3.712-7.893c1.393-3.188,2.808-6.631,4.247-10.32
	c1.438-3.686,2.854-7.462,4.251-11.331c1.391-3.863,2.605-7.53,3.642-10.994c1.031-3.461,1.889-6.566,2.562-9.309
	c0.674-2.742,1.012-4.835,1.012-6.274C462.403,81.904,461.323,79.563,459.166,78.214z"/>
<path fill="#575756" d="M484.662,47.187c-3.778,0-6.812,1.172-9.104,3.51c-2.296,2.337-3.44,5.215-3.44,8.631
	c0,3.419,1.145,6.299,3.44,8.635c2.293,2.34,5.326,3.508,9.104,3.508c3.779,0,6.812-1.167,9.107-3.508
	c2.292-2.337,3.438-5.217,3.438-8.635c0-3.415-1.146-6.292-3.438-8.631C491.473,48.357,488.441,47.187,484.662,47.187z"/>
<linearGradient id="SVGID_2_" gradientUnits="userSpaceOnUse" x1="788.6606" y1="-279.603" x2="788.6606" y2="-346.5176" gradientTransform="matrix(1 0 0 -1 -304 -202.333)">
	<stop  offset="0" style="stop-color:#575756"/>
	<stop  offset="1" style="stop-color:#000000"/>
</linearGradient>
<path fill="url(#SVGID_2_)" d="M492.759,79.295c-1.082-0.808-2.41-1.348-3.982-1.619c-1.572-0.27-3.353-0.406-5.328-0.406
	c-1.981,0-3.938,0.157-5.869,0.473c-1.936,0.316-3.396,0.562-4.386,0.744v54.901c0,2.253,0.292,4.075,0.879,5.466
	c0.583,1.396,1.415,2.496,2.493,3.307c1.081,0.808,2.408,1.349,3.983,1.62c1.57,0.27,3.349,0.403,5.325,0.403
	c1.981,0,3.936-0.158,5.87-0.474c1.931-0.315,3.393-0.562,4.385-0.742V88.063c0-2.249-0.294-4.067-0.879-5.464
	C494.667,81.208,493.835,80.103,492.759,79.295z"/>
<linearGradient id="SVGID_3_" gradientUnits="userSpaceOnUse" x1="836.2827" y1="-265.4399" x2="836.2827" y2="-347.4619" gradientTransform="matrix(1 0 0 -1 -304 -202.333)">
	<stop  offset="0" style="stop-color:#575756"/>
	<stop  offset="1" style="stop-color:#000000"/>
</linearGradient>
<path fill="url(#SVGID_3_)" d="M545.91,100.205c2.339,0,4.204-0.696,5.598-2.092c1.393-1.395,2.09-3.666,2.09-6.812
	c0-1.799-0.247-3.439-0.741-4.924c-0.497-1.482-1.012-2.721-1.55-3.711h-17.673v-8.633c0-4.495-1.104-7.44-3.307-8.835
	c-2.204-1.392-5.284-2.09-9.238-2.09c-2.072,0-4.026,0.158-5.87,0.47c-1.843,0.318-3.259,0.609-4.249,0.877v57.741
	c0,8.094,2.135,13.941,6.408,17.538c4.271,3.597,10.364,5.396,18.278,5.396c6.475,0,10.997-1.078,13.56-3.238
	c2.562-2.157,3.846-4.945,3.846-8.363c0-1.708-0.296-3.168-0.877-4.383c-0.589-1.216-1.281-2.315-2.092-3.305
	c-1.078,0.356-2.34,0.651-3.777,0.876c-1.44,0.224-2.835,0.336-4.185,0.336c-2.696,0-4.787-0.491-6.271-1.484
	c-1.482-0.988-2.225-2.652-2.225-4.992v-20.37H545.91z"/>
<linearGradient id="SVGID_4_" gradientUnits="userSpaceOnUse" x1="890.2427" y1="-265.4399" x2="890.2427" y2="-347.4619" gradientTransform="matrix(1 0 0 -1 -304 -202.333)">
	<stop  offset="0" style="stop-color:#575756"/>
	<stop  offset="1" style="stop-color:#000000"/>
</linearGradient>
<path fill="url(#SVGID_4_)" d="M599.87,100.205c2.338,0,4.203-0.696,5.601-2.092c1.392-1.395,2.088-3.666,2.088-6.812
	c0-1.799-0.244-3.439-0.741-4.924c-0.492-1.482-1.012-2.721-1.553-3.711h-17.669v-8.633c0-4.495-1.103-7.44-3.304-8.835
	c-2.209-1.392-5.288-2.09-9.243-2.09c-2.071,0-4.023,0.158-5.867,0.47c-1.848,0.318-3.263,0.609-4.252,0.877v57.741
	c0,8.094,2.136,13.941,6.408,17.538c4.271,3.597,10.367,5.396,18.279,5.396c6.475,0,10.997-1.078,13.558-3.238
	c2.564-2.157,3.847-4.945,3.847-8.363c0-1.708-0.295-3.168-0.878-4.383c-0.587-1.216-1.281-2.315-2.088-3.305
	c-1.081,0.356-2.345,0.651-3.781,0.876c-1.439,0.224-2.831,0.336-4.183,0.336c-2.696,0-4.786-0.491-6.272-1.484
	c-1.484-0.988-2.224-2.652-2.224-4.992v-20.37H599.87z"/>
<linearGradient id="SVGID_5_" gradientUnits="userSpaceOnUse" x1="950.6792" y1="-277.8511" x2="950.6792" y2="-347.5986" gradientTransform="matrix(1 0 0 -1 -304 -202.333)">
	<stop  offset="0" style="stop-color:#575756"/>
	<stop  offset="1" style="stop-color:#000000"/>
</linearGradient>
<path fill="url(#SVGID_5_)" d="M675.688,89.209c-1.533-3.104-3.712-5.666-6.544-7.689c-2.833-2.022-6.253-3.526-10.253-4.518
	c-4.005-0.991-8.434-1.484-13.289-1.484c-3.149,0-6.5,0.226-10.052,0.672c-3.554,0.451-6.633,1.172-9.24,2.161
	c-2.338,0.991-4.069,2.181-5.193,3.575c-1.127,1.395-1.686,3.26-1.686,5.599c0,1.799,0.403,3.531,1.213,5.191
	c0.809,1.668,1.799,2.901,2.968,3.711c2.606-1.078,5.531-1.979,8.769-2.697c3.237-0.72,6.564-1.08,9.985-1.08
	c4.312,0,7.619,0.563,9.914,1.688c2.291,1.129,3.438,2.99,3.438,5.599v0.946l-17.671,1.888c-7.735,0.81-13.445,2.879-17.132,6.205
	c-3.689,3.325-5.534,8.092-5.534,14.301c0,3.688,0.742,6.926,2.229,9.712c1.482,2.79,3.594,5.082,6.337,6.88
	c2.747,1.803,6.025,3.148,9.852,4.048c3.819,0.897,8.113,1.35,12.88,1.35c10.614,0,18.842-1.754,24.689-5.263
	c1.798-1.08,3.349-2.361,4.655-3.844c1.302-1.483,1.956-3.394,1.956-5.733v-30.221C677.98,95.978,677.215,92.314,675.688,89.209z
	 M655.856,126.78c-0.902,0.541-2.272,0.968-4.116,1.283c-1.843,0.316-3.53,0.472-5.062,0.472c-3.325,0-5.686-0.562-7.08-1.688
	c-1.393-1.12-2.09-2.582-2.09-4.384c0-1.796,0.808-3.146,2.428-4.046c1.619-0.897,3.686-1.438,6.205-1.616l9.715-0.813V126.78
	L655.856,126.78z"/>
<linearGradient id="SVGID_6_" gradientUnits="userSpaceOnUse" x1="632.7124" y1="-265.4399" x2="632.7124" y2="-347.4619" gradientTransform="matrix(1 0 0 -1 -304 -202.333)">
	<stop  offset="0" style="stop-color:#575756"/>
	<stop  offset="1" style="stop-color:#000000"/>
</linearGradient>
<path fill="url(#SVGID_6_)" d="M342.336,100.205c2.338,0,4.205-0.696,5.601-2.092c1.394-1.395,2.092-3.666,2.092-6.812
	c0-1.799-0.249-3.439-0.74-4.924c-0.499-1.482-1.015-2.721-1.554-3.711h-17.673v-8.633c0-4.495-1.104-7.44-3.307-8.835
	c-2.204-1.392-5.285-2.09-9.244-2.09c-2.069,0-4.021,0.158-5.866,0.47c-1.845,0.318-3.262,0.609-4.249,0.877v57.741
	c0,8.094,2.136,13.941,6.409,17.538c4.271,3.597,10.363,5.396,18.279,5.396c6.475,0,10.995-1.078,13.56-3.238
	c2.561-2.157,3.843-4.945,3.843-8.363c0-1.708-0.292-3.168-0.878-4.383c-0.587-1.216-1.283-2.315-2.088-3.305
	c-1.083,0.356-2.342,0.651-3.779,0.876c-1.439,0.224-2.833,0.336-4.183,0.336c-2.696,0-4.79-0.491-6.272-1.484
	c-1.483-0.988-2.225-2.652-2.225-4.992v-20.37H342.336z"/>
<linearGradient id="SVGID_7_" gradientUnits="userSpaceOnUse" x1="677.0972" y1="-279.603" x2="677.0972" y2="-346.5176" gradientTransform="matrix(1 0 0 -1 -304 -202.333)">
	<stop  offset="0" style="stop-color:#575756"/>
	<stop  offset="1" style="stop-color:#000000"/>
</linearGradient>
<path fill="url(#SVGID_7_)" d="M381.191,79.295c-1.083-0.808-2.409-1.348-3.981-1.619c-1.575-0.27-3.351-0.406-5.328-0.406
	c-1.978,0-3.938,0.157-5.868,0.473c-1.934,0.316-3.397,0.562-4.385,0.744v54.901c0,2.253,0.292,4.075,0.879,5.466
	c0.583,1.396,1.415,2.496,2.494,3.307c1.083,0.808,2.406,1.349,3.981,1.62c1.575,0.27,3.349,0.403,5.328,0.403
	s3.933-0.158,5.866-0.474s3.395-0.562,4.387-0.742V88.063c0-2.249-0.295-4.067-0.877-5.464
	C383.099,81.208,382.269,80.103,381.191,79.295z"/>
<path fill="#575756" d="M651.765,47.187c5.364,0,9.261,0.778,11.684,2.327c2.424,1.555,3.639,3.414,3.639,5.586
	c0,2.02-0.724,3.703-2.165,5.061c-1.448,1.357-3.819,2.696-7.123,4.014l-19.964,7.911c-3.097-0.23-5.729-1.161-7.896-2.792
	c-2.162-1.627-3.247-3.373-3.247-5.233c0-0.932,0.311-1.862,0.929-2.794c0.62-0.931,1.65-1.785,3.095-2.56L651.765,47.187z"/>
<linearGradient id="SVGID_8_" gradientUnits="userSpaceOnUse" x1="404.1187" y1="-277.8506" x2="404.1186" y2="-347.46" gradientTransform="matrix(1 0 0 -1 -304 -202.333)">
	<stop  offset="0" style="stop-color:#F9B233"/>
	<stop  offset="1" style="stop-color:#E3312D"/>
</linearGradient>
<path fill="url(#SVGID_8_)" d="M123.389,124.083c-1.531,0.72-3.284,1.395-5.262,2.022c-1.98,0.629-4.316,0.946-7.015,0.946
	c-4.585,0-8.478-1.392-11.667-4.182c-3.196-2.788-4.792-6.971-4.792-12.548c0-2.785,0.451-5.214,1.35-7.282
	c0.898-2.069,2.091-3.801,3.574-5.195c1.485-1.394,3.241-2.451,5.265-3.171c2.022-0.719,4.157-1.081,6.408-1.081
	c2.517,0,4.856,0.339,7.013,1.014c2.159,0.674,4.004,1.372,5.53,2.092c1.082-1.08,2.028-2.362,2.834-3.845
	c0.809-1.485,1.218-3.081,1.218-4.79c0-3.687-1.756-6.7-5.264-9.04c-3.508-2.338-8.5-3.507-14.977-3.507
	c-4.855,0-9.468,0.721-13.825,2.159c-4.364,1.439-8.21,3.599-11.536,6.476c-3.33,2.879-5.958,6.541-7.891,10.994
	c-1.935,4.451-2.899,9.646-2.899,15.584c0,5.124,0.897,9.799,2.694,14.028c1.8,4.228,4.34,7.845,7.624,10.859
	c3.283,3.012,7.216,5.352,11.806,7.016c4.586,1.661,9.712,2.494,15.378,2.494c6.204,0,11.065-1.009,14.57-3.033
	c3.507-2.024,5.26-4.88,5.26-8.567c0-2.066-0.451-3.843-1.35-5.329C126.538,126.715,125.186,125.344,123.389,124.083z"/>
<linearGradient id="SVGID_9_" gradientUnits="userSpaceOnUse" x1="467.2515" y1="-277.9834" x2="467.2515" y2="-346.5176" gradientTransform="matrix(1 0 0 -1 -304 -202.333)">
	<stop  offset="0" style="stop-color:#F9B233"/>
	<stop  offset="1" style="stop-color:#E3312D"/>
</linearGradient>
<path fill="url(#SVGID_9_)" d="M182.478,78.147c-2.518-1.663-5.938-2.497-10.253-2.497c-2.61,0-5.215,0.204-7.824,0.607
	c-2.61,0.407-5.126,0.971-7.555,1.689c-2.426,0.719-4.7,1.55-6.813,2.496c-2.112,0.944-3.892,2.003-5.33,3.169
	c-1.44,1.17-2.541,2.496-3.304,3.98c-0.767,1.483-1.15,3.26-1.15,5.33v40.469c0,2.253,0.293,4.073,0.88,5.464
	c0.582,1.397,1.417,2.496,2.496,3.308c1.078,0.807,2.402,1.348,3.979,1.621c1.572,0.268,3.347,0.401,5.33,0.401
	c2.067,0,4.069-0.134,6.002-0.401c1.934-0.273,3.351-0.542,4.248-0.814V96.969c1.17-0.542,2.588-1.014,4.252-1.417
	c1.662-0.406,3.44-0.788,5.331-1.148c1.889-0.359,3.82-0.628,5.8-0.812c1.978-0.179,3.912-0.266,5.799-0.266
	c0.542-0.991,0.988-2.094,1.353-3.307c0.354-1.214,0.538-2.449,0.538-3.71C186.254,82.533,184.997,79.812,182.478,78.147z"/>
<path fill="#F9B233" d="M207.703,47.187c-3.777,0-6.811,1.172-9.105,3.51c-2.292,2.337-3.439,5.215-3.439,8.631
	c0,3.419,1.146,6.299,3.439,8.635c2.295,2.34,5.33,3.508,9.105,3.508c3.779,0,6.812-1.167,9.106-3.508
	c2.293-2.337,3.442-5.217,3.442-8.635c0-3.415-1.148-6.292-3.442-8.631C214.514,48.357,211.481,47.187,207.703,47.187z"/>
<linearGradient id="SVGID_10_" gradientUnits="userSpaceOnUse" x1="511.7046" y1="-279.603" x2="511.7046" y2="-346.5176" gradientTransform="matrix(1 0 0 -1 -304 -202.333)">
	<stop  offset="0" style="stop-color:#F9B233"/>
	<stop  offset="1" style="stop-color:#E3312D"/>
</linearGradient>
<path fill="url(#SVGID_10_)" d="M215.799,79.295c-1.083-0.808-2.408-1.348-3.98-1.619c-1.574-0.27-3.351-0.406-5.328-0.406
	s-3.938,0.157-5.869,0.473c-1.933,0.316-3.396,0.562-4.384,0.744v54.901c0,2.253,0.292,4.075,0.877,5.466
	c0.583,1.396,1.416,2.496,2.494,3.307c1.083,0.808,2.406,1.349,3.982,1.62c1.574,0.27,3.35,0.403,5.328,0.403
	c1.977,0,3.935-0.158,5.869-0.474c1.932-0.315,3.394-0.562,4.384-0.742V88.063c0-2.249-0.295-4.067-0.878-5.464
	C217.707,81.208,216.876,80.103,215.799,79.295z"/>
<linearGradient id="SVGID_11_" gradientUnits="userSpaceOnUse" x1="565.8013" y1="-277.8511" x2="565.8013" y2="-347.5986" gradientTransform="matrix(1 0 0 -1 -304 -202.333)">
	<stop  offset="0" style="stop-color:#F9B233"/>
	<stop  offset="1" style="stop-color:#E3312D"/>
</linearGradient>
<path fill="url(#SVGID_11_)" d="M284.261,81.52c-2.833-2.022-6.25-3.526-10.25-4.518c-4.001-0.991-8.43-1.484-13.29-1.484
	c-3.148,0-6.496,0.226-10.048,0.672c-3.554,0.451-6.636,1.172-9.241,2.161c-2.341,0.991-4.072,2.181-5.195,3.575
	c-1.125,1.395-1.688,3.26-1.688,5.599c0,1.799,0.409,3.531,1.216,5.191c0.808,1.668,1.798,2.901,2.966,3.711
	c2.609-1.078,5.532-1.979,8.771-2.697c3.238-0.72,6.562-1.08,9.983-1.08c4.317,0,7.621,0.563,9.915,1.688
	c2.295,1.129,3.439,2.99,3.439,5.599v0.946l-17.672,1.888c-7.735,0.81-13.446,2.879-17.132,6.205
	c-3.69,3.325-5.53,8.092-5.53,14.301c0,3.688,0.741,6.926,2.225,9.712c1.485,2.79,3.597,5.082,6.341,6.88
	c2.741,1.803,6.026,3.148,9.848,4.048c3.824,0.897,8.118,1.35,12.885,1.35c10.609,0,18.839-1.754,24.686-5.263
	c1.798-1.08,3.351-2.361,4.656-3.844c1.302-1.483,1.957-3.394,1.957-5.733v-30.221c0-4.227-0.767-7.891-2.296-10.996
	C289.277,86.105,287.094,83.543,284.261,81.52z M270.973,126.78c-0.902,0.541-2.272,0.968-4.114,1.283
	c-1.843,0.316-3.53,0.472-5.058,0.472c-3.33,0-5.692-0.562-7.083-1.688c-1.395-1.12-2.093-2.582-2.093-4.384
	c0-1.796,0.813-3.146,2.429-4.046c1.619-0.897,3.687-1.438,6.208-1.616l9.711-0.813V126.78L270.973,126.78z"/>
</svg>
