<?xml version="1.0" encoding="utf-8"?>
<!-- Generator: Adobe Illustrator 22.0.1, SVG Export Plug-In . SVG Version: 6.00 Build 0)  -->
<svg fill="#212943" version="1.1" id="Capa_1" xmlns="http://www.w3.org/2000/svg" xmlns:xlink="http://www.w3.org/1999/xlink" x="0px" y="0px"
	 viewBox="-282.6 0 983.9 595.3" style="enable-background:new -282.6 0 983.9 595.3;" xml:space="preserve">
<g>
	<path d="M691.7,576h-65.5v-19.7c0-45.2-12.1-80.1-35.8-103.7c-30.3-30.1-68.4-30.2-69.9-30.2h-48.3v-29.2c0-0.5-0.1-1-0.1-1.5
		c30.9-12.8,50.4-34.1,62.3-52.5c18.5-28.8,22.7-56.5,22.9-57.7c0.1-0.5,0.1-0.9,0.1-1.4V278c6.8-1.7,12.7-5.2,17.3-10.3
		c13.6-15.1,12.9-38.9,11.9-48.5c-0.7-7.3-4-13.4-9.5-17.6c-1.1-0.8-2.2-1.6-3.4-2.2v-40.6c0-55.1-23.1-89.7-42.5-109
		c-21.1-21-42.3-28.9-43.2-29.2c-2.9-1-6.1-0.7-8.6,1l-10.6,7.1C429.2-4.9,389.8,0.2,388,0.4c-4.8,0.7-8.3,4.7-8.3,9.5v9.8
		c-35.7-4-59.5,7.7-60.6,8.2c-2.3,1.2-4.1,3.2-4.9,5.7c-0.8,2.5-0.5,5.2,0.7,7.5l5.1,9.6c1.4,5.6-2.1,9.4-14.7,20.6
		c-5.8,5.1-12.4,10.9-19.2,18.4c-20.9,22.9-17.7,88.8-16.2,108.5c-1.9,0.9-3.7,1.9-5.3,3.2c-5.5,4.3-8.8,10.4-9.5,17.6
		c-1,9.5-1.8,33.4,11.9,48.5c4.7,5.2,10.7,8.7,17.6,10.4v2c0,0.5,0,0.9,0.1,1.4c0.2,1.2,4.4,28.9,22.9,57.7
		c11.9,18.5,31.4,39.8,62.3,52.5c-0.1,0.5-0.1,1-0.1,1.5v29.2h-48.2c-1.6,0-39.7,0.1-70,30.2c-23.8,23.6-35.8,58.5-35.8,103.7V576
		h-16.9v-74.1c0-2.1-0.8-4.1-2.1-5.7l-22.1-25.6c-1.7-1.9-4.1-3-6.6-3h-38.1c-27.7-28.9-63.6-29-65-29H20.9V412c0-0.5,0-0.9-0.1-1.4
		c28-11.6,45.8-30.9,56.5-47.7c7.3-11.4,12.2-22.6,15.4-31.7c7.5,13.6,17.5,23.2,30,28.7c8.5,3.8,17.3,5.2,25.6,5.2
		c23.7,0,43.8-11.4,45-12c3.7-2.1,5.4-6.6,3.9-10.6c-1.4-4-5.5-6.4-9.7-5.6c-0.4,0.1-10,1.4-16.8-6.2c-14.2-15.7-6.9-54.9-1.2-76.8
		c20-77.8,14-149.7-15.5-187.8c-15.1-19.5-36.1-29.9-60.6-29.9c-27.2,0-47.9,7.3-61.6,21.8C22,68.2,17.9,79.9,16.3,88.4
		c-12.6-3.6-26.5-5.5-41.5-5.5c-62.6,0-93.1,33-107.7,60.6c-15.5,29.5-16.3,58.6-16.4,59.8c0,0.1,0,0.2,0,0.3c0,0,0,0,0,0.1V232
		c-5.6,0.4-12.6,1.9-18.1,6.1c-5,3.9-7.9,9.4-8.6,16c-0.9,8.7-1.6,30.3,10.8,44c4.3,4.7,9.7,7.9,15.9,9.4v1.8c0,0.4,0,0.8,0.1,1.3
		c0.2,1.1,3.9,26.2,20.8,52.3c10.8,16.8,28.5,36.1,56.5,47.7c-0.1,0.4-0.1,0.9-0.1,1.4v26.5h-43.7c-1.4,0-36,0.1-63.5,27.4
		c-21.6,21.4-32.5,53.1-32.5,94.1V576h-61.2c-5.3,0-9.6,4.3-9.6,9.6c0,5.3,4.3,9.6,9.6,9.6h1.8h421.3h69.9h88.4h383.3
		c5.3,0,9.6-4.3,9.6-9.6C701.4,580.3,697,576,691.7,576z M557.4,214.2c1.1,0.1,2.1,0.3,3.1,0.5c0.6,0.2,1.1,0.4,1.7,0.5
		c1.1,0.4,2.2,0.9,3,1.5c0.9,0.7,1.9,1.8,2.2,4.4c1.1,11.2-0.1,26-7,33.6c-0.9,1-1.9,1.9-3,2.6V214.2z M284.5,257.5
		c-1.2-0.7-2.3-1.6-3.3-2.7c-6.9-7.7-8.2-22.4-7-33.6c0.3-2.6,1.2-3.6,2.2-4.4c2-1.5,5-2.3,8.1-2.6V257.5z M-149.3,288.9
		c-1.1-0.7-2.1-1.5-3-2.5c-6.3-6.9-7.4-20.3-6.4-30.5c0.2-2.3,1.1-3.3,2-4c1.8-1.4,4.6-2.1,7.4-2.4V288.9z M300.3,102.8
		c6.1-6.7,12.3-12.2,17.7-17c13.3-11.8,25.9-22.9,20.2-41.5c-0.2-0.6-0.4-1.2-0.7-1.7l-0.4-0.7c10.2-2.8,27.9-5.8,50.4-1.4
		c2.8,0.6,5.8-0.2,8-2c2.2-1.8,3.5-4.6,3.5-7.4V19.4c3.7,0.2,8.5,0.7,14,1.9c17.6,3.9,33.9,12.8,48.3,26.5c3.3,3.1,8.2,3.5,12,1
		l12.5-8.3c6.5,3.1,19.6,10.4,32.5,23.5c24,24.3,36.2,56.2,36.2,94.8v10c0,0,0,0,0,0l-20.3-19.1v-22.4c0-2.9-1.3-5.6-3.5-7.5
		c-2.5-2.1-27-20.1-109.6-20.1c-82.6,0-107,18.1-109.6,20.1c-2.2,1.8-3.5,4.6-3.5,7.5v22.4l-19.9,18.8
		C288.1,141.6,291.2,112.8,300.3,102.8z M344.7,158.8c-7.2,0-13.8,0.5-19.7,1.1c1.4-1.7,2.2-3.9,2.2-6.2v-21
		c8.9-4.3,35.2-13.8,93.8-13.8c58.6,0,84.9,9.5,93.8,13.8v21c0,2.3,0.8,4.5,2.3,6.3c-6.1-0.7-13-1.2-20.6-1.2
		c-16.6,0-33.2,2.4-49.4,7.1c-3.1,0.9-5.5,3.2-6.5,6.3c-0.2,0.6-2.6,8.1-3.3,18c-13.5-3-25.2-2-33.7-0.1c-0.7-9.8-3.1-17.2-3.3-17.9
		c-1-3-3.4-5.4-6.5-6.3C378,161.2,361.3,158.8,344.7,158.8z M380.6,212.7c-3.9,5.6-10.7,8.6-20.7,9.2c-7.6,0.4-13.1,0.6-17.8,0.6
		c-24.7,0-33.5-1.9-35.8-39.2c7.4-2.1,20.9-5.1,38.4-5.1c13,0,26,1.7,38.7,4.9C385.2,191.1,386.3,204.4,380.6,212.7z M457.9,183
		c12.7-3.3,25.7-4.9,38.7-4.9c17.4,0,31,3,38.4,5.1c-2.3,37.3-11.1,39.2-35.8,39.2c-4.7,0-10.2-0.2-17.8-0.6
		c-10.1-0.5-16.9-3.5-20.7-9.2C455.1,204.4,456.2,191.1,457.9,183z M324.1,329.3c-15.1-23.1-19.6-46.1-20.3-50v-47.5
		c8.5,7.1,20.9,9.9,38.3,9.9c5,0,10.8-0.2,18.8-0.6c16.3-0.9,28.2-6.8,35.6-17.5c2.8-4.1,4.7-8.6,5.8-13.1c6.2-2.1,20-5.4,36.8,0.2
		c1.2,4.5,3,8.9,5.8,12.9c7.4,10.8,19.4,16.7,35.6,17.5c8,0.4,13.8,0.6,18.8,0.6c0,0,0,0,0,0c17.8,0,30.2-2.9,38.8-10.3v47.9
		c-0.7,4-5.2,26.9-20.3,50c-21.6,33.1-53.9,51.4-96,54.2H420C377.9,380.7,345.7,362.4,324.1,329.3z M379.3,441.6
		c5.3,0,9.6-4.3,9.6-9.6v-34c9.2,2.4,19.2,4,30.2,4.7c0.2,0,0.4,0,0.6,0h2.4c0.2,0,0.4,0,0.6,0c10.9-0.7,20.9-2.4,30.2-4.7v34
		c0,5.3,4.3,9.6,9.6,9.6h13c-3.7,26.9-26.8,47.6-54.6,47.6c-27.9,0-50.9-20.8-54.6-47.6H379.3z M156.8,485v15.3
		c0,4.8,3.9,8.7,8.7,8.7h15.7v67h-113v-91H156.8z M44.5,69.9c10.3-10.7,26.7-16.2,48.8-16.2c19.2,0,34.9,7.8,46.8,23.1
		c26.3,33.9,31,100.1,12.4,172.8c-11.6,45.3-9.8,76.7,5.5,93.2c1.2,1.3,2.4,2.4,3.7,3.5c-9.8,2-21.3,2.4-31.9-2.3
		c-15.2-6.8-25.8-23.1-31.5-48.4v-91.9c0-2.5-0.4-53-35.5-88.2c-8.6-8.7-18.6-15.6-29.8-20.8C33.8,88.6,36.3,78.4,44.5,69.9z
		 M-117.5,151.6c17.9-34,48.9-51.3,92.2-51.3c17.3,0,32.6,2.7,45.9,7.9c0.1,0,0.2,0.1,0.3,0.1c20.3,8.1,35.8,22.4,46.3,42.7
		c7.5,14.4,10.8,29,12.3,39.1c-31.3-15.6-40-43.7-40.4-45c-0.9-3-3.3-5.4-6.4-6.1c-3.1-0.7-6.3,0.3-8.4,2.6
		c-49.6,53.7-129.4,55-155.4,53.8C-129.8,185.7-126.4,168.6-117.5,151.6z M-113.4,354c-13.7-21-17.8-41.8-18.4-45.4v-95.7
		c11.2,0.5,31,0.7,54.4-3c42.4-6.6,78.5-22.8,105.2-47.1c7.2,13.8,22.8,35.3,53,47v86.8c0,0,0,0,0,0v12c-0.6,3.6-4.6,23.9-18.1,44.8
		c-19.6,30.4-49,47.1-87.4,49.7h-1.6C-64.6,400.6-93.9,384.1-113.4,354z M-54.6,447.2C-54.6,447.2-54.6,447.2-54.6,447.2
		C-54.6,447.2-54.6,447.2-54.6,447.2v-30.9c8.4,2.1,17.4,3.6,27.4,4.3c0.2,0,0.4,0,0.6,0h2.2c0.2,0,0.4,0,0.6,0
		c9.9-0.6,19-2.1,27.4-4.3V447c0,0.1,0,0.1,0,0.2c0,16-13,29-29,29C-41.6,476.2-54.6,463.2-54.6,447.2z M-34.4,492.8l-15.1,4.9
		l-6.2-7.2c-0.6-0.7-1.3-1.3-2-1.7l-11.9-7.3l2.4-13.9C-61,480.5-48.9,490-34.4,492.8z M16.9,466l2.7,15.5l-11.9,7.3
		c-0.8,0.5-1.5,1.1-2,1.7l-6.2,7.2l-15.5-5.1C-1.3,489.6,10.9,479.5,16.9,466z M-194.3,559.9c0-102.8,75.2-104,78.4-104H-83l-5,28.5
		c-0.6,3.5,1,7.1,4.1,9l15.8,9.7l9.1,10.5c1.7,2,4.1,3,6.6,3c0.9,0,1.8-0.1,2.7-0.4l24.6-8l24.6,8c0.9,0.3,1.8,0.4,2.7,0.4
		c2.5,0,4.9-1.1,6.6-3l9.1-10.5l15.8-9.7c3.1-1.9,4.7-5.4,4.1-9l-5-28.5h31.9c0,0,0,0,0,0c0.6,0,18.7,0.1,37.3,11.6H59.5
		c-4.8,0-8.7,3.9-8.7,8.7V576h-245.1V559.9z M562.8,576h-81v-42.6h81V576z M607,576h-24.9v-52.2c0-5.3-4.3-9.6-9.6-9.6h-40.5v-16.5
		c0-5.3-4.3-9.6-9.6-9.6c-5.3,0-9.6,4.3-9.6,9.6v16.5h-40.5c-5.3,0-9.6,4.3-9.6,9.6V576h-221l0,0h-6.5v-19.7
		c0-113.3,82.9-114.6,86.5-114.6h25.5c3.8,37.5,35.5,66.9,74,66.9c38.5,0,70.3-29.4,74-66.9h25.6c0.3,0,31.6,0.1,56.3,24.6
		c20,19.9,30.1,50.2,30.1,90.1V576z"/>
	<path d="M341,200c0,6.4,5.1,11.5,11.5,11.5c6.4,0,11.5-5.1,11.5-11.5s-5.1-11.5-11.5-11.5C346.2,188.5,341,193.6,341,200z"/>
	<path d="M489.3,211.5c6.4,0,11.5-5.1,11.5-11.5s-5.1-11.5-11.5-11.5c-6.4,0-11.5,5.1-11.5,11.5S483,211.5,489.3,211.5z"/>
	<path d="M418.5,267.7h5c12.8,0,23.1-10.4,23.1-23.1c0-5.3-4.3-9.6-9.6-9.6c-5.3,0-9.6,4.3-9.6,9.6c0,2.1-1.7,3.9-3.9,3.9h-5
		c-2.1,0-3.9-1.7-3.9-3.9c0-5.3-4.3-9.6-9.6-9.6c-5.3,0-9.6,4.3-9.6,9.6C395.3,257.3,405.7,267.7,418.5,267.7z"/>
	<path d="M504.1,564.7h36.3c5.3,0,9.6-4.3,9.6-9.6c0-5.3-4.3-9.6-9.6-9.6h-36.3c-5.3,0-9.6,4.3-9.6,9.6
		C494.5,560.4,498.8,564.7,504.1,564.7z"/>
	<path d="M480.7,319.1c3.3-4.1,2.7-10.2-1.5-13.5c-4.1-3.3-10.2-2.7-13.5,1.5c-0.1,0.1-11.7,12.8-42.4,12.8
		c-31.9,0-47.4-13.2-48.2-13.9c-3.9-3.5-10-3.2-13.6,0.7c-3.6,3.9-3.3,10,0.6,13.6c0.8,0.8,21.2,18.9,61.1,18.9
		C463.4,339.1,479,321.2,480.7,319.1z"/>
	<path d="M-77.2,253c0-5.8-4.7-10.4-10.4-10.4c-5.8,0-10.4,4.7-10.4,10.4c0,5.8,4.7,10.4,10.4,10.4C-81.8,263.5-77.2,258.8-77.2,253
		z"/>
	<path d="M36.5,263.5c5.8,0,10.4-4.7,10.4-10.4c0-5.8-4.7-10.4-10.4-10.4c-5.8,0-10.4,4.7-10.4,10.4
		C26.1,258.8,30.7,263.5,36.5,263.5z"/>
	<path d="M-27.1,309.4h3c9.4,0,17-7.6,17-17c0-4.8-3.9-8.7-8.7-8.7c-4.7,0-8.5,3.6-8.7,8.2h-2c-0.3-4.6-4.1-8.2-8.7-8.2
		c-4.8,0-8.7,3.9-8.7,8.7C-44,301.8-36.4,309.4-27.1,309.4z"/>
	<path d="M100.3,532.7h45.5c4.8,0,8.7-3.9,8.7-8.7c0-4.8-3.9-8.7-8.7-8.7h-45.5c-4.8,0-8.7,3.9-8.7,8.7
		C91.6,528.8,95.5,532.7,100.3,532.7z"/>
	<path d="M100.3,561.9h45.5c4.8,0,8.7-3.9,8.7-8.7c0-4.8-3.9-8.7-8.7-8.7h-45.5c-4.8,0-8.7,3.9-8.7,8.7
		C91.6,558,95.5,561.9,100.3,561.9z"/>
	<path d="M28.6,344.8c3-3.8,2.4-9.3-1.3-12.3c-3.8-3-9.3-2.4-12.3,1.3c-0.1,0.1-10.6,11.6-38.4,11.6c-28.9,0-43-12-43.7-12.6
		c-3.6-3.2-9.1-2.9-12.3,0.6c-3.3,3.6-3,9.1,0.6,12.3c0.8,0.7,19.2,17.1,55.4,17.1C13,362.9,27.1,346.6,28.6,344.8z"/>
</g>
</svg>
