<?xml version="1.0" encoding="utf-8"?>
<!-- Generator: Adobe Illustrator 22.0.1, SVG Export Plug-In . SVG Version: 6.00 Build 0)  -->
<svg version="1.1" id="Layer_1" xmlns="http://www.w3.org/2000/svg" xmlns:xlink="http://www.w3.org/1999/xlink" x="0px" y="0px"
	 viewBox="0 0 80.1 79.4" style="enable-background:new 0 0 80.1 79.4;" xml:space="preserve">
<style type="text/css">
	.st0{fill:#010202;}
</style>
<g>
	<path class="st0" d="M35.3,33.4c0-4.1,3.3-7.4,7.4-7.4c0.6,0,1.1-0.5,1.1-1.1c0-0.6-0.5-1.1-1.1-1.1c-5.3,0-9.6,4.3-9.6,9.6
		c0,0.6,0.5,1.1,1.1,1.1C34.8,34.4,35.3,34,35.3,33.4z"/>
	<path class="st0" d="M76.3,59.3c-0.2-0.6-0.8-0.9-1.3-0.7c-0.6,0.2-0.9,0.8-0.7,1.3c0.3,1,0.4,2.1,0.4,3.2
		c0,6.5-5.2,11.7-11.7,11.7c-5.1,0-9.4-3.3-11-7.8c0,0,0,0,0,0c-0.5-1.3-0.7-2.6-0.7-3.9c0-0.1,0-0.2,0-0.3c0-0.3,0-0.6,0.1-1
		c0-0.2,0-0.4,0.1-0.7c0,0,0,0,0-0.1c0.3-1.7,0.9-3.3,1.9-4.6l3.5,4.8c0.2,0.3,0.5,0.4,0.9,0.4c0.2,0,0.4-0.1,0.6-0.2l5.2-3.7
		c0.2-0.2,0.4-0.4,0.4-0.7c0-0.3,0-0.6-0.2-0.8l-3.3-4.6c0.8-0.2,1.7-0.3,2.6-0.3c2.7,0,5.3,0.9,7.3,2.6c0.4,0.4,1.1,0.3,1.5-0.2
		c0.4-0.5,0.3-1.1-0.2-1.5c-2.4-2-5.5-3.1-8.7-3.1c-1.4,0-2.7,0.2-3.9,0.6l-5.6-7.8c2-2.4,3.1-5.4,3.1-8.7c0-7.6-6.2-13.8-13.8-13.8
		c-7.6,0-13.8,6.2-13.8,13.8c0,2.9,0.9,5.7,2.6,8l-5.9,8.3c-1-0.2-2-0.3-3-0.3c-7.6,0-13.8,6.2-13.8,13.8c0,7.6,6.2,13.8,13.8,13.8
		c5.6,0,10.6-3.3,12.8-8.5h14.9c2.1,5,7,8.5,12.8,8.5c7.6,0,13.8-6.2,13.8-13.8C76.8,61.9,76.6,60.6,76.3,59.3z M49.6,60H36
		c-0.5-2.3-1.6-4.3-3.1-5.9l5.4-7.6c1.4,0.5,2.9,0.7,4.4,0.7c1.2,0,2.4-0.2,3.5-0.5l5.8,8C50.9,56.3,50,58,49.6,60z M58.3,52.5
		l3.1,4.3l-3.5,2.5l-3.1-4.4l-1.2-1.7L48.4,46c0.1,0,0.2-0.1,0.2-0.1c0.5-0.3,1.1-0.5,1.5-0.8c0,0,0.1,0,0.1-0.1
		c0.6-0.4,1.1-0.8,1.6-1.3c0,0,0,0,0,0l5,7L58.3,52.5z M31.1,33.4c0-6.5,5.3-11.7,11.7-11.7c6.5,0,11.7,5.3,11.7,11.7
		c0,3.1-1.2,5.9-3.2,8c-0.6,0.7-1.4,1.3-2.1,1.8c-0.1,0.1-0.2,0.1-0.3,0.2c-0.3,0.2-0.6,0.3-0.9,0.5c-0.1,0.1-0.3,0.1-0.4,0.2
		c-0.3,0.1-0.6,0.3-0.9,0.4c-1.2,0.4-2.5,0.7-3.9,0.7c-1.1,0-2.1-0.2-3.1-0.5l1.7-2.3c0.2-0.2,0.2-0.5,0.2-0.8
		c0-0.3-0.2-0.5-0.4-0.7l-5.2-3.7c-0.5-0.3-1.1-0.2-1.5,0.2l-1.6,2.2C31.7,37.7,31.1,35.6,31.1,33.4z M35.5,39.5l3.5,2.5l-7.6,10.6
		c-1.1-0.9-2.3-1.6-3.7-2.2L35.5,39.5z M22.6,74.9c-6.5,0-11.7-5.2-11.7-11.7c0-6.5,5.3-11.7,11.7-11.7c5.3,0,9.8,3.5,11.2,8.5h-4.8
		c-0.6,0-1.1,0.5-1.1,1.1v6.4c0,0.6,0.5,1.1,1.1,1.1h4C31,72.4,27,74.9,22.6,74.9z M49.5,66.4H30v-4.3h19.2c0,0.4,0,0.7,0,1
		c0,0,0,0,0,0c0,0,0,0,0,0c0,0,0,0,0,0c0,0,0,0,0,0c0,0.5,0,1,0.1,1.5c0,0.1,0,0.2,0,0.3C49.3,65.4,49.4,65.9,49.5,66.4
		C49.5,66.3,49.5,66.3,49.5,66.4z"/>
	<path class="st0" d="M14.2,35.7c0.2,0,0.3,0,0.5-0.1c2.6-1.3,6.3-3.4,8.9-6.1c3.1-3.2,4.1-6.7,2.9-10.4c-1-3.2-3.7-5.2-7-5.2
		c-2.1,0-4.1,1-5.3,2.5C12.9,15,11,14,8.8,14c-0.7,0-1.3,0.1-1.9,0.2C6.4,14.4,6,15,6.2,15.6c0.2,0.6,0.8,0.9,1.3,0.8
		c0.4-0.1,0.9-0.2,1.3-0.2c1.9,0,3.6,1.1,4.3,2.9c0.2,0.4,0.6,0.7,1,0.7s0.8-0.3,1-0.7c0.7-1.7,2.4-2.9,4.3-2.9
		c2.3,0,4.2,1.4,4.9,3.6c2,6.2-4.7,10.7-10.2,13.6C8.6,30.5,1.9,26.1,3.9,19.8C4,19.5,4.2,19.3,4.3,19c0.3-0.5,0.1-1.2-0.5-1.5
		c-0.5-0.3-1.2-0.1-1.5,0.5c-0.2,0.4-0.4,0.8-0.5,1.2c-1.2,3.6-0.2,7.1,2.9,10.4c2.6,2.7,6.4,4.8,8.9,6.1
		C13.8,35.7,14,35.7,14.2,35.7z"/>
	<path class="st0" d="M61.1,23.4c0.2,0.1,0.3,0.1,0.5,0.1c0.2,0,0.3,0,0.5-0.1c2.6-1.3,6.3-3.4,8.9-6.1c3.1-3.2,4.1-6.7,2.9-10.4
		c-1-3.2-3.7-5.2-7-5.2c-2.1,0-4.1,1-5.3,2.5c-1.3-1.6-3.2-2.5-5.3-2.5c-0.7,0-1.3,0.1-1.9,0.2c-0.6,0.2-0.9,0.8-0.8,1.3
		c0.2,0.6,0.8,0.9,1.3,0.8C55.3,4.1,55.8,4,56.2,4c1.9,0,3.6,1.1,4.3,2.9c0.2,0.4,0.6,0.7,1,0.7c0.4,0,0.8-0.3,1-0.7
		C63.3,5.2,65,4,66.9,4c2.3,0,4.2,1.4,4.9,3.6c2,6.2-4.7,10.7-10.2,13.6C56,18.4,49.3,13.9,51.3,7.7c0.1-0.3,0.2-0.6,0.4-0.9
		c0.3-0.5,0.1-1.2-0.5-1.5c-0.5-0.3-1.2-0.1-1.5,0.5c-0.2,0.4-0.4,0.8-0.5,1.2c-1.2,3.6-0.2,7.1,2.9,10.4
		C54.8,20.1,58.5,22.1,61.1,23.4z"/>
</g>
</svg>
