<?xml version="1.0" encoding="utf-8"?>
<!-- Generator: Adobe Illustrator 22.0.1, SVG Export Plug-In . SVG Version: 6.00 Build 0)  -->
<svg version="1.1" id="Layer_1" xmlns="http://www.w3.org/2000/svg" xmlns:xlink="http://www.w3.org/1999/xlink" x="0px" y="0px"
	 viewBox="0 0 366.2 338.2" style="enable-background:new 0 0 366.2 338.2;" xml:space="preserve">
<style type="text/css">
	.st0{fill:#009877;}
</style>
<g>
	<g id="XMLID_4_">
		<path id="XMLID_12_" class="st0" d="M194.4,88c0,0,15.2,8.9,17.3,34.2c2.3,28-39.5,43.3-29.5,71.7c0,0-5.3-14.6,14.9-33.3
			c18.1-16.7,16.5-24.9,16.5-24.9s15.2,14.7,1.9,35.5c-13.3,20.7-32.4,23.3-29.6,51.2c0,0-29.3-33.6,4.3-75.4
			C214.5,116.6,194.4,88,194.4,88z"/>
		<path id="XMLID_11_" class="st0" d="M175.1,210.5c0,0-15.2-8.9-17.3-34.2c-2.3-28,39.5-43.3,29.5-71.7c0,0,5.3,14.6-14.8,33.3
			c-18.1,16.7-16.5,24.9-16.5,24.9s-15.2-14.8-1.9-35.5c13.3-20.7,32.4-23.3,29.6-51.2c0,0,29.3,33.6-4.3,75.4
			C155.1,181.9,175.1,210.5,175.1,210.5z"/>
	</g>
	<g>
		<path class="st0" d="M214.7,34.5c0.7-0.1,1.2-0.4,1.7-0.7c0.5-0.4,0.9-0.8,1.2-1.4c0.3-0.6,0.5-1.2,0.7-1.8c0.1-0.5,0.2-1,0.2-1.6
			c0-0.6-0.1-1.2-0.3-1.7c-0.2-0.6-0.6-1.1-1.1-1.5c-0.5-0.5-1.2-0.8-2.2-1l-6.1-1.4l-2.3,9.7l5.8,1.4
			C213.3,34.6,214.1,34.6,214.7,34.5z"/>
		<polygon class="st0" points="294.6,169.4 294.5,169.5 298,171 302.9,173.1 303.6,168.4 298.4,169 		"/>
		<polygon class="st0" points="240.6,42.2 242,35.7 241.8,35.6 237.6,40.4 231.5,47.4 238.8,51 		"/>
		<path class="st0" d="M177.6,33.3l0.2,11l6.7-0.1c1,0,1.8-0.2,2.5-0.6c0.7-0.4,1.2-0.8,1.5-1.4c0.4-0.5,0.6-1.2,0.8-1.8
			c0.1-0.6,0.2-1.3,0.2-1.8c0-1.6-0.5-2.9-1.4-3.9c-0.9-1-2.1-1.5-3.8-1.5L177.6,33.3z"/>
		<path class="st0" d="M93.5,219.1c0.4-0.6,0.6-1.3,0.6-1.9c0-0.7-0.2-1.4-0.7-2.1c-0.4-0.6-0.9-1.1-1.5-1.3c-0.6-0.2-1.3-0.3-2-0.3
			c-0.7,0.1-1.5,0.3-2.3,0.6c-0.8,0.3-1.6,0.8-2.4,1.3c-0.9,0.6-1.6,1.2-2.3,1.8c-0.6,0.6-1.1,1.2-1.5,1.8c-0.3,0.6-0.5,1.3-0.5,1.9
			c0,0.6,0.3,1.3,0.7,2c0.5,0.7,1,1.2,1.7,1.4c0.6,0.2,1.3,0.3,2,0.2c0.7-0.1,1.5-0.3,2.2-0.7c0.8-0.4,1.5-0.8,2.3-1.3
			c0.8-0.5,1.5-1.1,2.1-1.6C92.6,220.3,93.1,219.7,93.5,219.1z"/>
		<path class="st0" d="M70.4,175c0.7,0.4,1.4,0.5,2.3,0.3c0.3-0.1,0.7-0.2,1-0.3c0.4-0.1,0.7-0.4,1-0.6c0.3-0.3,0.5-0.6,0.6-1
			c0.1-0.4,0.2-0.9,0.1-1.5l-0.6-3.4l-6.2,1l0.6,3.5C69.4,173.9,69.8,174.6,70.4,175z"/>
		<path class="st0" d="M207.1,265.5c-0.2-0.8-0.6-1.5-1-2.1c-0.4-0.6-0.9-1-1.5-1.3c-0.6-0.3-1.3-0.4-2.2-0.2
			c-0.7,0.1-1.3,0.4-1.8,0.9c-0.5,0.5-0.8,1-1.1,1.7c-0.3,0.7-0.4,1.5-0.4,2.3c0,0.9,0,1.8,0.2,2.7c0.2,1.1,0.4,2,0.7,2.8
			c0.3,0.8,0.6,1.5,1.1,2.1c0.4,0.6,0.9,1,1.5,1.2c0.6,0.2,1.3,0.3,2.1,0.2c0.8-0.1,1.5-0.4,2-0.9c0.5-0.5,0.8-1.1,1.1-1.8
			c0.2-0.7,0.3-1.5,0.3-2.3c0-0.8-0.1-1.7-0.2-2.6C207.6,267.1,207.4,266.3,207.1,265.5z"/>
		<polygon class="st0" points="88.2,85.9 90.7,82.4 87.4,80.9 81.4,78.1 81.2,78.3 85.9,83.3 		"/>
		<polygon class="st0" points="134.7,256.4 131.3,260.5 135.6,262.5 136.5,257.4 137.2,253.6 137.1,253.5 		"/>
		<path class="st0" d="M184.2,29.2c0.4,0,0.8-0.1,1.3-0.2c0.5-0.1,0.9-0.4,1.3-0.7c0.4-0.3,0.7-0.8,1-1.3c0.3-0.6,0.4-1.3,0.4-2.2
			c0-1.2-0.4-2.2-1-2.8c-0.7-0.7-1.6-1-2.7-1l-7,0.1l0.1,8.3L184.2,29.2z"/>
		<path class="st0" d="M289.9,210.5c-0.7-0.5-1.4-1.1-2.2-1.5c-0.8-0.5-1.6-0.9-2.4-1.2c-0.8-0.3-1.6-0.5-2.3-0.6
			c-0.7-0.1-1.4,0-2,0.3c-0.6,0.3-1.2,0.8-1.6,1.5c-0.4,0.6-0.6,1.3-0.5,2c0,0.7,0.2,1.3,0.6,1.9c0.4,0.6,0.9,1.2,1.5,1.8
			c0.6,0.6,1.4,1.1,2.2,1.6c0.9,0.5,1.8,1,2.6,1.3c0.8,0.3,1.6,0.5,2.3,0.5c0.7,0,1.3-0.1,1.9-0.4c0.6-0.3,1.1-0.8,1.5-1.5
			c0.4-0.7,0.6-1.4,0.6-2.1c-0.1-0.7-0.3-1.3-0.7-1.9C291.1,211.7,290.6,211.1,289.9,210.5z"/>
		<path class="st0" d="M292.2,192.2c-0.3-0.2-0.6-0.4-1-0.6c-0.3-0.1-0.6-0.2-0.9-0.3c-0.3-0.1-0.7-0.1-1,0c-0.3,0.1-0.7,0.2-1,0.5
			c-0.3,0.3-0.6,0.7-0.8,1.2l-1.3,3.4l5.4,2.2l1.3-3.2c0.2-0.5,0.3-0.9,0.3-1.3c0-0.4-0.1-0.7-0.3-1.1
			C292.8,192.7,292.5,192.5,292.2,192.2z"/>
		<g>
			<path class="st0" d="M95.4,132.7L95.4,132.7c7.9-42.2,44.9-74.2,89.4-74.2c44.5,0,81.5,32,89.4,74.2l0,0l54-7.8
				c-11.6-68.7-71.4-121-143.4-121c-72,0-131.8,52.3-143.4,121L95.4,132.7z M293.3,73.6c0.4-0.2,0.6-0.3,0.8-0.2
				c0.2,0.1,0.3,0.2,0.5,0.5l1.2,1.8c0.2,0.3,0.3,0.5,0.2,0.7c0,0.2-0.2,0.4-0.6,0.6l-19.5,12.4c-1.9,1.2-2.4,2.7-1.3,4.3l5.6,8.9
				c0.1,0.2,0.2,0.4,0.1,0.5c-0.1,0.1-0.2,0.3-0.5,0.4l-2.2,1.4c-0.3,0.2-0.5,0.2-0.6,0.3c-0.2,0-0.3-0.1-0.4-0.3l-5.8-9.1
				c-0.7-1.1-1-2.1-1.1-3c-0.1-0.9,0.1-1.8,0.4-2.6c0.4-0.8,0.9-1.6,1.6-2.3c0.7-0.7,1.5-1.3,2.4-1.9L293.3,73.6z M284,61.3
				c0.2,0,0.4,0.2,0.5,0.4l1.5,1.6c0.2,0.2,0.3,0.5,0.3,0.6c0,0.2-0.2,0.4-0.5,0.7l-22.3,19.7c-0.3,0.3-0.6,0.4-0.7,0.4
				c-0.2,0-0.4-0.2-0.6-0.4l-1.5-1.6c-0.2-0.2-0.3-0.4-0.3-0.6c0-0.2,0.1-0.4,0.4-0.7l22.3-19.7C283.6,61.4,283.8,61.2,284,61.3z
				 M247.1,62.4c1.2,2.8,2.7,5,4.5,6.4c1.6,1.3,3.1,2,4.3,1.9c1.3-0.1,2.3-0.7,3.2-1.8c0.5-0.6,0.8-1.1,0.9-1.7
				c0.2-0.6,0.2-1.2,0.1-1.9c-0.1-0.7-0.3-1.4-0.6-2.2c-0.3-0.8-0.7-1.6-1.1-2.6c-0.7-1.4-1.2-2.7-1.6-3.9c-0.4-1.2-0.7-2.2-0.8-3.3
				c-0.1-1,0-2,0.3-2.9c0.3-0.9,0.8-1.8,1.5-2.7c1.6-1.9,3.4-3.1,5.4-3.4c2-0.3,4.1,0.4,6.2,2.2c0.5,0.4,1,0.9,1.5,1.4
				c0.5,0.5,1,1.1,1.5,1.6c0.5,0.6,0.9,1.2,1.3,1.8c0.4,0.6,0.7,1.2,1,1.8c0.1,0.3,0,0.6-0.3,0.8l-2.5,1.7c-0.2,0.1-0.4,0.2-0.4,0.2
				c-0.1,0-0.1-0.1-0.2-0.2c-0.6-1.2-1.4-2.3-2.2-3.3c-0.8-1-1.6-1.8-2.4-2.5c-1.1-0.9-2.2-1.3-3.1-1.2c-1,0.1-1.8,0.6-2.5,1.4
				c-0.4,0.5-0.7,1-0.8,1.6c-0.1,0.6-0.1,1.2,0,1.9c0.1,0.7,0.4,1.5,0.8,2.4c0.4,0.9,0.8,1.9,1.3,3.1c0.4,1,0.9,2,1.2,3
				c0.4,1,0.6,2,0.7,3c0.1,1,0,2.1-0.3,3.1c-0.3,1.1-0.9,2.1-1.8,3.2c-1,1.2-2,2.1-3.2,2.7c-1.1,0.6-2.2,0.9-3.3,0.9
				c-1.1,0-2.2-0.2-3.3-0.6c-1.1-0.4-2.1-1-3.1-1.8c-1.2-1-2.4-2.2-3.5-3.5c-1.1-1.3-2-2.8-2.6-4.5c-0.1-0.3,0-0.6,0.5-0.9l2.5-1.5
				C246.8,62,247,62.1,247.1,62.4z M242.3,30.3c0.4-0.1,0.8,0,1.4,0.2l1.1,0.6c0.7,0.3,1.1,0.7,1.2,1.1c0.1,0.4,0.1,1-0.1,1.7
				l-5.3,29.6c0,0.3-0.1,0.4-0.3,0.6c-0.2,0.1-0.3,0.2-0.6,0l-2.5-1.3c-0.2-0.1-0.4-0.2-0.5-0.4c-0.1-0.1-0.1-0.4-0.1-0.7l1.3-6.5
				l-9.2-4.6l-4.5,5c-0.2,0.2-0.3,0.3-0.5,0.4c-0.2,0-0.4,0-0.6-0.1l-2.6-1.3c-0.2-0.1-0.4-0.3-0.3-0.5c0-0.2,0.1-0.4,0.3-0.6
				l20.4-22C241.5,30.8,241.9,30.5,242.3,30.3z M198.9,48.2l6.5-27.6c0.2-0.9,0.5-1.4,0.9-1.7c0.4-0.3,0.9-0.4,1.7-0.2l8.5,2
				c1.2,0.3,2.2,0.7,3.1,1.4c0.9,0.7,1.6,1.5,2.1,2.4c0.5,0.9,0.8,2,1,3.2c0.1,1.2,0.1,2.4-0.2,3.7c-0.4,1.8-1.1,3.2-2.2,4.3
				c-1,1.1-2.2,1.8-3.6,2.1l-0.1,0.2c0.5,0.3,0.8,0.6,1.1,1c0.3,0.4,0.5,0.8,0.6,1.2c0.1,0.4,0.2,0.9,0.3,1.3c0,0.5,0.1,1,0.1,1.5
				l0,9.8c0,0.2,0,0.3-0.1,0.6c-0.1,0.2-0.3,0.3-0.6,0.2l-2.8-0.6c-0.1,0-0.3-0.1-0.4-0.2c-0.1-0.1-0.2-0.3-0.2-0.6l0.1-8.8
				c0-1.7-0.4-3-1.1-3.7c-0.7-0.8-1.7-1.3-2.9-1.6l-4.9-1.1l-2.8,12.2c-0.1,0.4-0.2,0.7-0.4,0.7c-0.1,0.1-0.4,0.1-0.7,0l-2.2-0.5
				c-0.3-0.1-0.5-0.2-0.6-0.3C198.8,48.9,198.8,48.6,198.9,48.2z M173.8,17.5c0.3-0.4,0.8-0.6,1.6-0.6l8.4-0.2
				c1.2,0,2.3,0.1,3.3,0.4c1,0.3,1.9,0.7,2.6,1.3c0.7,0.6,1.3,1.4,1.7,2.4c0.4,1,0.6,2.2,0.7,3.5c0,1.4-0.2,2.6-0.8,3.7
				c-0.6,1.1-1.3,2-2.1,2.5l0,0.3c1.5,0.6,2.5,1.7,3.2,3.2c0.7,1.5,1.1,3,1.1,4.7c0,1.4-0.2,2.7-0.6,3.9c-0.4,1.2-1,2.2-1.8,3
				c-0.8,0.9-1.7,1.5-2.7,2c-1.1,0.5-2.2,0.7-3.4,0.7l-9,0.1c-0.7,0-1.3-0.2-1.6-0.5c-0.3-0.4-0.5-1-0.5-1.9l-0.4-26.8
				C173.4,18.5,173.5,17.8,173.8,17.5z M139.5,24.3l5.1-1.7c0.4-0.1,0.7-0.1,0.8,0c0.1,0.1,0.2,0.3,0.4,0.7l9.2,28.3
				c0.1,0.3,0.2,0.6,0.1,0.8c0,0.2-0.3,0.3-0.7,0.4l-5.1,1.7c-0.6,0.2-0.9,0-1.1-0.6l-9.2-28.3C138.7,24.8,138.9,24.5,139.5,24.3z
				 M114.1,38.9c0.2-1.2,0.8-2.3,1.6-3.3c0.8-1,1.9-2,3.4-2.8c1.3-0.7,2.8-1.3,4.3-1.8c1.6-0.5,3-0.6,4.3-0.6c0.5,0,0.8,0.1,0.9,0.3
				c0.1,0.2,0.2,0.6,0.4,1.2l0.9,3.8c0.1,0.6,0.1,1,0,1.1c-0.1,0.2-0.4,0.3-0.8,0.3c-1.1,0.2-2.2,0.5-3.3,0.9
				c-1.1,0.4-2.1,0.8-2.9,1.3c-0.8,0.4-1.2,0.8-1.3,1.2c-0.1,0.4-0.1,0.8,0.1,1.2c0.1,0.2,0.2,0.3,0.4,0.4c0.1,0.1,0.4,0.3,0.6,0.4
				c0.3,0.1,0.6,0.2,1.1,0.2c0.4,0,1,0,1.7,0c1.7-0.1,3.2-0.2,4.6-0.2c1.4,0,2.6,0.2,3.8,0.5c1.1,0.3,2.2,0.9,3.1,1.6
				c0.9,0.7,1.7,1.8,2.5,3.1c1.6,2.9,2,5.4,1.2,7.7c-0.8,2.3-2.6,4.2-5.5,5.8c-1.5,0.8-3.2,1.5-5,2c-1.9,0.5-3.7,0.7-5.6,0.4
				c-0.3,0-0.5-0.1-0.7-0.3c-0.1-0.2-0.3-0.5-0.3-1l-0.8-4.5c-0.1-0.5-0.1-0.9,0-1c0.1-0.1,0.4-0.2,0.8-0.2c0.4,0,0.9-0.1,1.6-0.2
				c0.6-0.1,1.3-0.2,2-0.4c0.7-0.2,1.4-0.4,2.1-0.6c0.7-0.3,1.4-0.5,2-0.9c0.5-0.3,0.9-0.6,1.2-0.9c0.2-0.3,0.4-0.6,0.5-0.8
				c0.1-0.3,0.1-0.5,0-0.8c-0.1-0.2-0.1-0.4-0.2-0.6c-0.1-0.2-0.2-0.4-0.4-0.6c-0.2-0.2-0.4-0.3-0.7-0.4c-0.3-0.1-0.7-0.2-1.1-0.2
				c-0.5,0-1.1,0-1.8,0c-1.4,0.1-2.8,0.2-4.1,0.2c-1.3,0-2.5-0.1-3.6-0.4c-1.1-0.3-2.1-0.8-3-1.4c-0.9-0.7-1.7-1.6-2.3-2.8
				c-0.6-1.1-1.1-2.3-1.3-3.5C113.9,41.2,113.9,40,114.1,38.9z M87.1,57.2L102.1,44c0.2-0.2,0.4-0.3,0.6-0.3c0.2,0,0.4,0.2,0.7,0.6
				l3.4,3.8c0.5,0.5,0.5,1,0.1,1.3l-4.8,4.3l15.6,17.6c0.2,0.3,0.4,0.5,0.4,0.6c0,0.2-0.1,0.4-0.4,0.7l-4,3.6
				c-0.4,0.4-0.9,0.3-1.3-0.1L96.6,58.4l-4.7,4.2c-0.4,0.4-0.8,0.3-1.3-0.3l-3.4-3.8c-0.3-0.4-0.5-0.7-0.5-0.8
				C86.8,57.6,86.9,57.4,87.1,57.2z M75,72c0.3-0.4,0.5-0.7,0.8-0.9c0.2-0.3,0.5-0.4,0.8-0.5c0.3-0.1,0.7-0.1,1.1-0.1
				c0.4,0,1,0.2,1.6,0.4l27.1,10.3c0.2,0,0.3,0.1,0.5,0.3c0.1,0.2,0.1,0.4,0,0.6l-3.3,4.6c-0.2,0.3-0.4,0.4-0.6,0.5
				c-0.2,0.1-0.4,0.1-0.8,0L97,85l-4.3,6.1l3.5,4c0.2,0.3,0.3,0.5,0.4,0.7c0.1,0.2,0,0.5-0.3,0.8l-3.2,4.5c-0.1,0.2-0.3,0.3-0.5,0.2
				c-0.2,0-0.3-0.2-0.5-0.3L73.7,78.7c-0.8-1-1.2-1.7-1.2-2.3c0-0.6,0.2-1.2,0.8-1.9L75,72z"/>
			<path class="st0" d="M328.3,125.6l0.2,1.2l-54,7.8h0c0.8,4.8,1.2,9.8,1.2,14.8c0,50.2-40.7,90.9-90.9,90.9
				c-50.2,0-90.9-40.7-90.9-90.9c0-5,0.4-10,1.2-14.8h0l-54-7.8c-1.1,7.4-1.7,14.9-1.7,22.6c0,80.3,65.1,145.5,145.5,145.5
				s145.5-65.1,145.5-145.5C330.2,141.3,329.6,133.3,328.3,125.6z M59.2,170.8c-0.1-0.1-0.1-0.2-0.2-0.4l-0.2-1.2c0-0.2,0-0.3,0-0.4
				c0-0.1,0.2-0.2,0.4-0.2l16.2-2.7c0.5-0.1,0.9-0.1,1.1,0.1c0.2,0.1,0.4,0.4,0.5,0.8l0.8,5c0.1,0.7,0.1,1.4-0.1,2
				c-0.2,0.6-0.5,1.2-0.9,1.7c-0.4,0.5-0.9,0.9-1.6,1.3c-0.6,0.4-1.3,0.6-2.2,0.7c-0.5,0.1-1,0.1-1.7,0.1c-0.7,0-1.3-0.2-2-0.4
				c-0.6-0.3-1.2-0.7-1.7-1.2c-0.5-0.6-0.9-1.3-1-2.3l-0.7-3.9l-6.6,1.1C59.5,170.9,59.3,170.9,59.2,170.8z M67.7,195.8
				c-0.1,0.1-0.2,0.1-0.4,0.2l-1.2,0.4c-0.2,0.1-0.3,0.1-0.4,0.1c-0.1,0-0.2-0.1-0.3-0.3l-1.9-5.8c-0.2-0.7-0.3-1.3-0.2-1.9
				c0.1-0.5,0.3-1,0.6-1.4c0.3-0.4,0.7-0.7,1.2-1c0.5-0.3,1-0.5,1.6-0.7l8.7-2.8c0.6-0.2,1.2-0.3,1.7-0.3c0.6,0,1.1,0,1.6,0.2
				c0.5,0.2,0.9,0.4,1.3,0.8c0.4,0.4,0.7,0.9,0.9,1.6l1.8,5.7c0.1,0.2,0.1,0.3,0,0.4c-0.1,0.1-0.2,0.1-0.4,0.2l-1.2,0.4
				c-0.2,0.1-0.4,0.1-0.5,0.1c-0.1,0-0.2-0.1-0.2-0.3l-1.8-5.7c-0.2-0.5-0.4-0.9-0.8-1c-0.3-0.1-0.8-0.1-1.4,0.1l-3.1,1l2.1,6.5
				c0.1,0.2,0,0.3,0,0.4c-0.1,0.1-0.2,0.2-0.4,0.2l-1,0.3c-0.2,0.1-0.3,0.1-0.4,0.1c-0.1,0-0.2-0.1-0.3-0.3l-2.1-6.5l-4.2,1.3
				c-0.5,0.2-0.9,0.4-1.1,0.7c-0.2,0.3-0.3,0.8-0.1,1.3l1.9,5.8C67.8,195.6,67.8,195.7,67.7,195.8z M73,210.9
				c-0.6-0.3-1.1-0.6-1.6-1.1c-0.5-0.5-0.9-1.1-1.2-1.7c-0.4-0.8-0.7-1.7-1-2.7c-0.3-1-0.4-2-0.3-3c0-0.2,0.2-0.3,0.4-0.3l1.7-0.2
				c0.2,0,0.3,0.1,0.3,0.3c-0.1,1.8,0.2,3.3,0.8,4.5c0.5,1.1,1.1,1.8,1.8,2.1c0.7,0.3,1.4,0.2,2.1-0.1c0.4-0.2,0.7-0.4,0.9-0.7
				c0.2-0.3,0.4-0.6,0.5-1c0.1-0.4,0.2-0.8,0.2-1.3c0-0.5,0-1,0-1.6c0-0.9,0-1.7,0.1-2.4c0.1-0.7,0.2-1.3,0.4-1.9
				c0.2-0.6,0.5-1,0.8-1.5c0.4-0.4,0.8-0.8,1.4-1.1c1.3-0.6,2.5-0.8,3.7-0.4c1.1,0.3,2.1,1.2,2.8,2.7c0.2,0.3,0.3,0.7,0.5,1.1
				c0.1,0.4,0.3,0.8,0.4,1.2c0.1,0.4,0.2,0.8,0.2,1.2c0.1,0.4,0.1,0.8,0.1,1.2c0,0.2-0.1,0.3-0.3,0.3l-1.7,0.3c-0.1,0-0.2,0-0.3,0
				c0,0-0.1-0.1-0.1-0.2c0-0.8-0.2-1.6-0.3-2.3c-0.2-0.7-0.4-1.3-0.7-1.9c-0.4-0.8-0.8-1.2-1.4-1.4c-0.5-0.2-1.1-0.1-1.6,0.1
				c-0.3,0.2-0.6,0.4-0.8,0.6c-0.2,0.3-0.3,0.6-0.4,1c-0.1,0.4-0.2,0.9-0.2,1.4c0,0.5-0.1,1.2-0.1,1.9c0,0.6,0,1.2-0.1,1.9
				c0,0.6-0.2,1.2-0.4,1.8c-0.2,0.6-0.5,1.1-0.9,1.6c-0.4,0.5-1,0.9-1.7,1.3c-0.8,0.4-1.6,0.6-2.3,0.6
				C74.3,211.3,73.6,211.2,73,210.9z M81.4,231.7c0,0.2-0.1,0.3-0.1,0.3c-0.1,0.1-0.2,0.1-0.3,0.1l-1.2,0.2
				c-0.4,0.1-0.5-0.1-0.5-0.4c0-0.7-0.1-1.5-0.4-2.3c-0.3-0.8-0.7-1.6-1.3-2.4l-1.1-1.6c-0.1-0.1-0.1-0.2-0.1-0.3
				c0-0.1,0.1-0.2,0.3-0.2l1.1-0.8c0.1-0.1,0.3-0.1,0.3-0.2c0.1,0,0.2,0.1,0.3,0.2l1.4,2.1c0.3,0.5,0.6,1,0.8,1.5
				c0.2,0.5,0.4,1,0.5,1.4c0.1,0.5,0.2,0.9,0.3,1.3C81.5,231.1,81.5,231.4,81.4,231.7z M79.6,224.3c-1.2-1.8-1.5-3.6-0.8-5.4
				c0.7-1.8,2.3-3.6,4.9-5.4c1.3-0.9,2.5-1.5,3.6-1.9c1.2-0.4,2.2-0.6,3.2-0.5c1,0,1.9,0.3,2.7,0.7c0.8,0.4,1.5,1,2,1.8
				c0.6,0.9,1,1.8,1.1,2.7c0.1,0.9,0,1.8-0.4,2.8c-0.4,0.9-0.9,1.8-1.7,2.7c-0.8,0.9-1.8,1.7-3,2.6c-2.5,1.7-4.8,2.6-6.8,2.6
				C82.5,227,80.9,226.1,79.6,224.3z M97.1,243.4c-0.5,0.1-1,0-1.6-0.4c-0.5-0.3-0.9-0.7-1.3-1.1c-0.4-0.4-0.8-0.7-1.1-1.1
				c-0.8-0.9-1.4-1.7-1.8-2.5c-0.4-0.8-0.5-1.6-0.4-2.5c0.1-0.8,0.5-1.7,1.1-2.6c0.6-0.9,1.5-1.9,2.6-3l7.1-6.8
				c0.2-0.2,0.3-0.2,0.4-0.2c0.1,0,0.2,0.1,0.3,0.2l0.9,1c0.1,0.1,0.2,0.3,0.2,0.3c0,0.1-0.1,0.2-0.3,0.4l-7.1,6.7
				c-0.7,0.7-1.3,1.3-1.8,1.9c-0.5,0.6-0.8,1.2-0.9,1.7c-0.1,0.6-0.1,1.2,0.1,1.8c0.2,0.6,0.7,1.3,1.3,1.9c0.2,0.2,0.4,0.4,0.8,0.8
				c0.3,0.3,0.8,0.6,1.3,1l11.2-10.6c0.2-0.2,0.3-0.2,0.4-0.2c0.1,0,0.2,0.1,0.3,0.2l0.9,1c0.1,0.1,0.2,0.2,0.2,0.3
				c0,0.1-0.1,0.2-0.3,0.4l-11.1,10.5C98.1,243,97.6,243.3,97.1,243.4z M104.6,250.9c-0.1,0-0.2-0.1-0.4-0.2l-1-0.8
				c-0.1-0.1-0.2-0.2-0.2-0.3c0-0.1,0-0.2,0.2-0.4l11-13.3c0.2-0.2,0.3-0.3,0.4-0.3c0.1,0,0.2,0.1,0.3,0.2l1,0.8
				c0.1,0.1,0.2,0.2,0.2,0.3c0,0.1-0.1,0.2-0.2,0.4l-11,13.3C104.9,250.9,104.7,250.9,104.6,250.9z M120.2,247.4
				c0.1,0.4,0.3,0.8,0.6,1.3c0.3,0.5,0.6,1,0.9,1.7c0.3,0.5,0.6,1.1,0.9,1.6c0.3,0.6,0.5,1.1,0.6,1.7c0.1,0.6,0.1,1.2,0,1.8
				c-0.1,0.6-0.4,1.3-0.8,2c-0.5,0.8-1.1,1.3-1.7,1.7c-0.6,0.4-1.2,0.6-1.9,0.7c-0.6,0.1-1.3,0-2-0.1c-0.7-0.2-1.3-0.5-1.9-0.9
				c-0.8-0.5-1.5-1.1-2.2-1.8c-0.7-0.7-1.3-1.5-1.8-2.4c-0.1-0.2,0-0.3,0.2-0.5l1.4-1c0.2-0.1,0.3-0.1,0.4,0.1
				c0.9,1.6,1.9,2.7,3,3.5c1,0.7,1.9,1,2.6,0.8c0.7-0.1,1.3-0.5,1.8-1.2c0.2-0.3,0.4-0.7,0.4-1.1c0.1-0.3,0-0.7-0.1-1.1
				c-0.1-0.4-0.2-0.8-0.5-1.2c-0.2-0.4-0.5-0.9-0.8-1.4c-0.5-0.8-0.9-1.5-1.2-2.1c-0.3-0.6-0.5-1.3-0.6-1.8c-0.1-0.6-0.1-1.1,0-1.7
				c0.1-0.5,0.3-1.1,0.7-1.6c0.8-1.2,1.8-2,2.9-2.3c1.2-0.3,2.4,0,3.7,0.9c0.3,0.2,0.6,0.4,1,0.7c0.3,0.3,0.6,0.6,0.9,0.9
				c0.3,0.3,0.6,0.6,0.8,0.9c0.3,0.3,0.5,0.7,0.7,1c0.1,0.2,0,0.3-0.1,0.5L127,248c-0.1,0.1-0.2,0.1-0.2,0.1c0,0-0.1,0-0.1-0.1
				c-0.5-0.7-0.9-1.3-1.5-1.8c-0.5-0.5-1-0.9-1.5-1.3c-0.7-0.5-1.3-0.6-1.9-0.5c-0.6,0.1-1,0.5-1.3,0.9c-0.2,0.3-0.3,0.6-0.4,1
				C120,246.7,120.1,247,120.2,247.4z M139.5,252.5l-2.7,17.2c0,0.1-0.1,0.3-0.2,0.3c-0.1,0.1-0.2,0.1-0.3,0l-1.5-0.7
				c-0.1-0.1-0.3-0.1-0.3-0.2c-0.1-0.1-0.1-0.2,0-0.4l0.7-3.8l-5.4-2.5l-2.5,2.9c-0.1,0.1-0.2,0.2-0.3,0.2c-0.1,0-0.2,0-0.4-0.1
				l-1.5-0.7c-0.1-0.1-0.2-0.2-0.2-0.3c0-0.1,0.1-0.2,0.2-0.3l11.5-13.1c0.3-0.4,0.6-0.6,0.8-0.6c0.2-0.1,0.5,0,0.8,0.1l0.7,0.3
				c0.4,0.2,0.6,0.4,0.7,0.6C139.6,251.7,139.6,252.1,139.5,252.5z M166.8,260.3l-0.3,1.2c0,0.2-0.1,0.4-0.2,0.4
				c-0.1,0.1-0.2,0.1-0.4,0l-5.9-1.3c-0.5-0.1-1-0.1-1.3,0.2c-0.3,0.2-0.5,0.7-0.6,1.3l-0.7,3.2l6.7,1.5c0.2,0,0.3,0.1,0.3,0.2
				c0,0.1,0,0.3,0,0.5l-0.2,1.1c0,0.2-0.1,0.3-0.2,0.4c-0.1,0.1-0.2,0.1-0.4,0.1l-6.7-1.4l-0.9,4.3c-0.1,0.5-0.1,1,0.1,1.3
				c0.2,0.4,0.5,0.6,1.1,0.7l6,1.3c0.2,0,0.3,0.1,0.3,0.2c0,0.1,0,0.3,0,0.5l-0.3,1.2c0,0.2-0.1,0.3-0.2,0.4
				c-0.1,0.1-0.2,0.1-0.4,0.1l-6-1.3c-0.7-0.2-1.3-0.4-1.7-0.8c-0.4-0.3-0.7-0.8-0.9-1.2c-0.2-0.5-0.3-1-0.3-1.6
				c0-0.6,0.1-1.2,0.2-1.8l1.9-8.9c0.1-0.6,0.3-1.2,0.6-1.7c0.3-0.5,0.6-1,1-1.3c0.4-0.4,0.8-0.6,1.4-0.8c0.5-0.1,1.1-0.1,1.8,0
				l5.9,1.3c0.2,0,0.3,0.1,0.3,0.2C166.8,260,166.8,260.1,166.8,260.3z M191.5,278.4c-0.7,0.5-1.5,0.9-2.3,1
				c-0.8,0.2-1.6,0.2-2.4,0.3c-1,0-2-0.2-2.8-0.5c-0.8-0.4-1.5-0.9-2.1-1.6c-0.6-0.7-1-1.7-1.4-2.8c-0.3-1.2-0.5-2.5-0.5-4.1
				c0-1.5,0.1-2.8,0.4-4c0.3-1.2,0.8-2.2,1.3-3.1c0.6-0.9,1.3-1.5,2.1-2c0.8-0.5,1.8-0.7,2.8-0.7c0.6,0,1.3,0,1.9,0.2
				c0.7,0.1,1.4,0.4,2.1,0.8c0.1,0.1,0.2,0.1,0.2,0.2c0,0.1,0,0.2-0.1,0.4l-0.5,1.4c-0.1,0.1-0.1,0.2-0.2,0.2c-0.1,0-0.1,0-0.3,0
				c-0.5-0.2-1-0.4-1.5-0.5c-0.5-0.1-1.1-0.2-1.6-0.2c-0.8,0-1.5,0.2-2.1,0.6c-0.6,0.4-1,1-1.4,1.7c-0.4,0.7-0.6,1.4-0.8,2.3
				c-0.2,0.9-0.2,1.7-0.2,2.6c0,0.9,0.1,1.7,0.3,2.5c0.2,0.8,0.4,1.5,0.8,2.1c0.4,0.6,0.9,1.1,1.5,1.4c0.6,0.3,1.4,0.5,2.3,0.5
				c0.6,0,1.2-0.1,1.8-0.3c0.6-0.2,1.1-0.4,1.6-0.7c0.2-0.1,0.3-0.1,0.4,0c0.1,0.1,0.1,0.2,0.2,0.2l0.5,1.3c0.1,0.2,0.1,0.4,0.1,0.5
				C191.7,278.2,191.7,278.3,191.5,278.4z M209.5,274.8c-0.9,1.8-2.4,2.9-4.5,3.2c-2.1,0.3-3.9-0.2-5.2-1.6
				c-1.3-1.4-2.3-3.6-2.8-6.7c-0.2-1.5-0.3-2.9-0.2-4.1c0.1-1.2,0.4-2.3,0.9-3.2c0.5-0.9,1-1.6,1.8-2.2c0.7-0.5,1.5-0.9,2.5-1
				c1.1-0.2,2-0.1,2.9,0.2c0.9,0.3,1.7,0.8,2.3,1.5c0.7,0.7,1.3,1.6,1.7,2.7c0.5,1.1,0.8,2.4,1.1,3.8
				C210.5,270.6,210.3,273,209.5,274.8z M230.3,270.6c-0.1,0.3-0.3,0.5-0.8,0.6l-0.6,0.2c-0.3,0.1-0.6,0.1-0.8,0
				c-0.2-0.1-0.5-0.3-0.8-0.6l-7.7-7.6l-2.9-3l-0.1,0l4.4,13.2c0.1,0.2,0.1,0.4,0,0.5c0,0.1-0.2,0.2-0.3,0.2l-1.1,0.4
				c-0.1,0.1-0.3,0.1-0.4,0c-0.1,0-0.2-0.2-0.3-0.4l-5.2-15.6c-0.2-0.5-0.2-0.8-0.1-1.1c0.1-0.3,0.3-0.5,0.8-0.6l0.6-0.2
				c0.3-0.1,0.6-0.1,0.8,0c0.2,0.1,0.5,0.3,0.8,0.6l7.6,7.5l3,3l0.1,0l-4.5-13.2c-0.1-0.2-0.1-0.4,0-0.5c0.1-0.1,0.2-0.2,0.3-0.2
				l1.1-0.4c0.2-0.1,0.3-0.1,0.4,0c0.1,0,0.2,0.2,0.3,0.4l5.2,15.6C230.3,270,230.4,270.4,230.3,270.6z M245.6,262.7
				c-0.2,0.6-0.6,1.2-1.1,1.6c-0.5,0.5-1.1,0.9-1.7,1.2c-0.8,0.4-1.7,0.8-2.7,1.1c-1,0.3-2,0.4-3,0.3c-0.2,0-0.3-0.1-0.4-0.4
				l-0.2-1.7c0-0.2,0.1-0.3,0.3-0.3c1.8,0,3.3-0.3,4.5-0.9c1.1-0.6,1.8-1.2,2-1.9c0.2-0.7,0.2-1.4-0.2-2.1c-0.2-0.4-0.4-0.7-0.7-0.9
				c-0.3-0.2-0.6-0.4-1-0.5c-0.4-0.1-0.8-0.2-1.3-0.2c-0.5,0-1,0-1.6,0c-0.9,0-1.7,0-2.4,0c-0.7,0-1.4-0.2-1.9-0.3
				c-0.6-0.2-1.1-0.4-1.5-0.8c-0.4-0.4-0.8-0.8-1.1-1.4c-0.7-1.3-0.8-2.5-0.5-3.7c0.3-1.2,1.2-2.1,2.6-2.8c0.3-0.2,0.7-0.3,1.1-0.5
				c0.4-0.2,0.8-0.3,1.2-0.4c0.4-0.1,0.8-0.2,1.2-0.3c0.4-0.1,0.8-0.1,1.2-0.1c0.2,0,0.3,0.1,0.3,0.3l0.3,1.7c0,0.1,0,0.2,0,0.3
				c0,0-0.1,0.1-0.2,0.1c-0.8,0.1-1.6,0.2-2.3,0.4c-0.7,0.2-1.3,0.4-1.9,0.7c-0.7,0.4-1.2,0.9-1.4,1.4c-0.2,0.6-0.1,1.1,0.2,1.6
				c0.2,0.3,0.4,0.6,0.7,0.8c0.3,0.2,0.6,0.3,1,0.4c0.4,0.1,0.9,0.1,1.4,0.1c0.5,0,1.2,0,1.9,0c0.6,0,1.2,0,1.9,0
				c0.6,0,1.2,0.1,1.8,0.3c0.6,0.2,1.1,0.5,1.6,0.9c0.5,0.4,0.9,1,1.3,1.7c0.4,0.8,0.6,1.6,0.7,2.3
				C245.9,261.4,245.8,262.1,245.6,262.7z M261.7,253.3c-0.4,0.4-0.8,0.8-1.2,1.2c-0.4,0.4-0.8,0.7-1.2,1c-1,0.7-1.9,1.2-2.8,1.5
				c-0.9,0.3-1.7,0.3-2.5,0.1c-0.8-0.2-1.6-0.7-2.4-1.4c-0.8-0.7-1.7-1.7-2.6-3l-5.7-7.9c-0.1-0.2-0.2-0.3-0.2-0.4
				c0-0.1,0.1-0.2,0.3-0.3l1.1-0.8c0.2-0.1,0.3-0.2,0.4-0.2c0.1,0,0.2,0.1,0.4,0.3l5.7,7.9c0.6,0.8,1.1,1.5,1.7,2
				c0.5,0.5,1.1,0.9,1.6,1.1c0.5,0.2,1.1,0.3,1.8,0.1c0.6-0.1,1.3-0.5,2.1-1.1c0.2-0.1,0.5-0.4,0.8-0.7c0.4-0.3,0.7-0.7,1.2-1.1
				l-9-12.5c-0.1-0.2-0.2-0.3-0.2-0.4c0-0.1,0.1-0.2,0.3-0.3l1.1-0.8c0.2-0.1,0.3-0.2,0.3-0.1c0.1,0,0.2,0.1,0.3,0.3l8.9,12.4
				c0.4,0.6,0.6,1.1,0.7,1.6C262.4,252.2,262.2,252.7,261.7,253.3z M276.6,239.9l-4.5,4.4c-0.5,0.5-1,0.8-1.6,1
				c-0.5,0.1-1,0.2-1.5,0.1c-0.5-0.1-1-0.3-1.5-0.6c-0.5-0.3-0.9-0.7-1.3-1.1L257,234c-0.2-0.2-0.2-0.3-0.2-0.4
				c0-0.1,0.1-0.2,0.2-0.3l0.9-0.9c0.1-0.1,0.3-0.2,0.3-0.2c0.1,0,0.2,0.1,0.4,0.3l9.3,9.6c0.9,1,1.8,1,2.6,0.3l4.4-4.2
				c0.1-0.1,0.2-0.2,0.3-0.1c0.1,0,0.2,0.1,0.3,0.2l1,1.1c0.1,0.1,0.2,0.2,0.2,0.3C276.8,239.7,276.7,239.8,276.6,239.9z M283.3,232
				l-0.8,1c-0.1,0.1-0.2,0.2-0.3,0.2c-0.1,0-0.3,0-0.4-0.2l-12-9.7l-2.6,3.3c-0.1,0.1-0.2,0.2-0.3,0.2c-0.1,0-0.2-0.1-0.3-0.2
				l-1.1-0.9c-0.1-0.1-0.2-0.2-0.2-0.3c0-0.1,0-0.2,0.1-0.3l6.8-8.4c0.1-0.1,0.2-0.2,0.3-0.2c0.1,0,0.2,0.1,0.3,0.2l1.1,0.9
				c0.1,0.1,0.2,0.2,0.2,0.3c0,0.1,0,0.2-0.1,0.3l-2.7,3.3l12,9.7c0.2,0.2,0.3,0.3,0.3,0.4C283.5,231.7,283.4,231.8,283.3,232z
				 M293.6,217.6c-1.1,1.9-2.6,2.8-4.5,3c-1.9,0.1-4.2-0.6-6.9-2.2c-1.3-0.8-2.4-1.6-3.2-2.5c-0.8-0.9-1.5-1.8-1.9-2.7
				c-0.4-0.9-0.6-1.8-0.5-2.7c0-0.9,0.3-1.8,0.8-2.6c0.5-0.9,1.2-1.6,2-2.1c0.8-0.5,1.7-0.8,2.7-0.8c1-0.1,2.1,0.1,3.2,0.4
				c1.1,0.3,2.3,0.9,3.6,1.6c2.6,1.6,4.4,3.3,5.2,5.1C294.9,213.9,294.8,215.7,293.6,217.6z M304.4,194l-0.6,1.5
				c0,0.1-0.1,0.1-0.1,0.2c-0.1,0.1-0.2,0.1-0.4,0.1l-5-0.8c-1-0.1-1.7,0-2.2,0.3c-0.5,0.3-0.9,0.9-1.1,1.5l-1.1,2.7l6.7,2.7
				c0.2,0.1,0.4,0.2,0.4,0.3c0,0.1,0,0.2-0.1,0.4l-0.5,1.2c-0.1,0.1-0.1,0.3-0.2,0.3c-0.1,0.1-0.3,0-0.5,0l-15.3-6.1
				c-0.5-0.2-0.8-0.4-0.9-0.7c-0.1-0.3-0.1-0.6,0-1l1.9-4.7c0.3-0.7,0.6-1.2,1.1-1.6c0.4-0.4,1-0.8,1.6-1c0.6-0.2,1.2-0.3,1.9-0.3
				c0.7,0,1.4,0.2,2.1,0.5c1,0.4,1.7,0.9,2.3,1.6c0.6,0.7,0.9,1.4,0.9,2.3l0.1,0c0.2-0.3,0.4-0.4,0.7-0.6c0.2-0.1,0.5-0.2,0.7-0.3
				c0.3,0,0.5-0.1,0.8,0c0.3,0,0.6,0,0.9,0.1l5.6,0.9c0.1,0,0.2,0,0.3,0.1C304.5,193.7,304.5,193.9,304.4,194z M306.9,185.2
				l-0.3,1.2c0,0.2-0.1,0.3-0.2,0.3c-0.1,0.1-0.2,0.1-0.5,0l-16.7-4.5c-0.2-0.1-0.4-0.1-0.4-0.2c0-0.1,0-0.2,0-0.4l0.3-1.2
				c0-0.2,0.1-0.3,0.2-0.4c0.1-0.1,0.2,0,0.5,0l16.7,4.5c0.2,0.1,0.4,0.1,0.4,0.2C307,184.9,307,185.1,306.9,185.2z M310.4,167.1
				c0,0.2-0.1,0.3-0.1,0.4c0,0.1-0.2,0.1-0.4,0.2l-3.8,0.5l-0.9,5.9l3.5,1.6c0.1,0.1,0.2,0.1,0.3,0.2c0.1,0.1,0.1,0.2,0.1,0.4
				l-0.3,1.7c0,0.2-0.1,0.3-0.2,0.3c-0.1,0-0.2,0-0.4-0.1l-15.8-7.3c-0.4-0.2-0.7-0.4-0.8-0.6c-0.1-0.2-0.2-0.5-0.1-0.8l0.1-0.7
				c0.1-0.4,0.2-0.7,0.4-0.9c0.2-0.1,0.5-0.2,1-0.3l17.3-2.4c0.1,0,0.3,0,0.4,0.1c0.1,0.1,0.2,0.2,0.1,0.3L310.4,167.1z"/>
		</g>
	</g>
	<path class="st0" d="M184.8,298.7c-82.4,0-149.4-67-149.4-149.4C35.4,67,102.4,0,184.8,0c82.4,0,149.4,67,149.4,149.4
		C334.1,231.7,267.1,298.7,184.8,298.7z M184.8,1.9C103.4,1.9,37.3,68,37.3,149.4c0,81.3,66.2,147.5,147.5,147.5
		c81.3,0,147.5-66.2,147.5-147.5C332.2,68,266.1,1.9,184.8,1.9z"/>
	<path class="st0" d="M184.8,238.4c-49.1,0-89-39.9-89-89s39.9-89,89-89c49.1,0,89,39.9,89,89S233.9,238.4,184.8,238.4z M184.8,62.2
		c-48,0-87.1,39.1-87.1,87.1c0,48,39.1,87.1,87.1,87.1c48,0,87.1-39.1,87.1-87.1C271.9,101.3,232.8,62.2,184.8,62.2z"/>
	<g>
		<path class="st0" d="M3.9,169.7c0-0.2,0-0.3,0-0.4c0-0.1,0.1-0.2,0.3-0.2l3.4-0.9l-0.5-6.4l-3.6-1.3c-0.1-0.1-0.2-0.1-0.3-0.2
			c-0.1-0.1-0.1-0.2-0.1-0.4l-0.2-2c0-0.2,0-0.3,0.1-0.3c0.1,0,0.2,0,0.4,0l16,6.3c0.2,0.1,0.4,0.2,0.5,0.2c0.1,0.1,0.3,0.2,0.4,0.3
			c0.1,0.1,0.2,0.2,0.2,0.4c0,0.1,0.1,0.3,0.1,0.5l0.1,0.8c0,0.5,0,0.8-0.2,0.9c-0.1,0.2-0.4,0.3-0.8,0.4l-15.2,4.3
			c-0.1,0-0.2,0-0.4,0c-0.1,0-0.2-0.2-0.2-0.3L3.9,169.7z M14.5,166.5l3.4-0.8l0-0.1l-3.4-1.2l-5-1.7l0.4,5L14.5,166.5z"/>
		<path class="st0" d="M6.4,185.7c-0.7,0-1.4,0-2.1,0c-0.7,0-1.3-0.2-1.8-0.5c-0.6-0.3-1-0.7-1.4-1.3c-0.4-0.6-0.7-1.5-0.9-2.6
			c-0.1-0.4-0.1-0.7-0.1-1.1c0-0.4,0-0.8,0-1.2c0-0.4,0-0.8,0.1-1.1c0-0.3,0.1-0.6,0.1-0.9c0.1-0.2,0.1-0.4,0.2-0.4c0,0,0.2,0,0.3,0
			l1.3,0.2c0.2,0.1,0.3,0.1,0.3,0.2c0,0.1,0,0.2,0,0.4c0,0.2-0.1,0.5-0.1,0.8c0,0.3,0,0.6,0,0.9c0,0.3,0,0.6,0,0.9
			c0,0.3,0.1,0.6,0.1,0.9c0.1,0.5,0.2,1,0.4,1.3c0.2,0.3,0.4,0.6,0.7,0.8c0.3,0.2,0.7,0.3,1.1,0.4c0.4,0.1,1,0.1,1.6,0.1
			c-0.2-0.5-0.4-1-0.6-1.6c-0.2-0.6-0.3-1-0.4-1.4c-0.1-0.8-0.1-1.5,0-2.1c0.2-0.6,0.4-1.1,0.8-1.6c0.4-0.4,0.9-0.8,1.5-1.1
			c0.6-0.3,1.3-0.5,2.1-0.6c1.2-0.2,2.3-0.2,3.4-0.1c1,0.1,1.9,0.4,2.7,0.9c0.8,0.5,1.4,1.1,2,1.9c0.5,0.8,0.9,1.7,1.1,2.8
			c0.1,0.8,0.2,1.5,0.2,2.3c0,0.8-0.1,1.5-0.3,2.3c-0.1,0.2-0.2,0.3-0.4,0.3L6.4,185.7z M16.6,180.7c-0.1-0.5-0.3-1.1-0.6-1.5
			c-0.3-0.5-0.7-0.9-1.2-1.2c-0.5-0.3-1.2-0.5-2-0.6c-0.8-0.1-1.7-0.1-2.8,0.1c-1.1,0.2-1.9,0.5-2.3,1.1c-0.5,0.6-0.6,1.3-0.5,2.1
			c0,0.3,0.1,0.7,0.3,1.2c0.1,0.5,0.3,1,0.6,1.6l8.5-0.2c0.1-0.4,0.1-0.9,0.1-1.3C16.7,181.4,16.6,181,16.6,180.7z"/>
		<path class="st0" d="M19.9,190.2c0.4,0.2,0.7,0.6,0.9,1.2c0.3,0.7,0.5,1.4,0.7,2.2c0.2,0.7,0.4,1.4,0.5,2c0.1,0.2,0.1,0.4,0,0.5
			c0,0.1-0.2,0.1-0.5,0.2l-1.5,0.1c-0.3,0-0.4,0-0.5-0.1c0-0.1-0.1-0.2-0.1-0.4c-0.1-0.6-0.2-1.2-0.3-1.8c-0.1-0.6-0.2-1.2-0.3-1.7
			l-10.6,1c-0.2,0-0.3,0-0.4-0.1c-0.1-0.1-0.1-0.2-0.1-0.3l-0.3-1.4c0-0.1,0-0.2,0-0.3c0-0.1,0.1-0.1,0.3-0.1l10.6-1
			C19,189.9,19.5,190,19.9,190.2z"/>
		<path class="st0" d="M11.1,203.5c-0.2,0-0.3,0-0.4,0c-0.1-0.1-0.1-0.2-0.2-0.3l-0.4-1.4c0-0.1-0.1-0.3,0-0.3
			c0-0.1,0.1-0.1,0.3-0.2l12-1.8c0.2,0,0.3,0,0.4,0.1c0.1,0.1,0.1,0.2,0.2,0.3l0.4,1.4c0,0.2,0.1,0.3,0,0.3c0,0.1-0.1,0.1-0.3,0.1
			L11.1,203.5z M28,199.8c0.1,0.4,0.1,0.7-0.1,1c-0.2,0.3-0.4,0.5-0.8,0.6c-0.2,0.1-0.5,0.1-0.7,0c-0.2,0-0.5-0.1-0.7-0.2
			c-0.2-0.1-0.4-0.3-0.5-0.4c-0.2-0.2-0.3-0.4-0.3-0.6c-0.1-0.4-0.1-0.7,0.1-1c0.2-0.3,0.4-0.5,0.8-0.6c0.2-0.1,0.5-0.1,0.7-0.1
			c0.2,0,0.5,0.1,0.7,0.2c0.2,0.1,0.4,0.2,0.5,0.4C27.9,199.3,28,199.5,28,199.8z"/>
		<path class="st0" d="M24.7,211c-0.2-0.6-0.6-1.1-1.1-1.5c-0.5-0.3-1.1-0.5-1.7-0.6c-0.6-0.1-1.3-0.1-2,0c-0.7,0.1-1.4,0.3-2.1,0.5
			c-0.4,0.1-0.8,0.3-1.1,0.5c-0.3,0.2-0.6,0.5-0.8,0.8c-0.2,0.3-0.3,0.6-0.3,1c0,0.4,0.1,0.8,0.2,1.3c0.2,0.5,0.4,1,0.7,1.4
			c0.3,0.5,0.6,0.8,0.9,1.1c0.1,0.1,0.2,0.2,0.2,0.3c0,0.1-0.1,0.1-0.1,0.2l-0.9,0.9c-0.1,0.1-0.2,0.1-0.3,0.1
			c-0.1,0-0.2-0.1-0.3-0.1c-0.6-0.5-1-1.1-1.4-1.7c-0.3-0.6-0.6-1.2-0.8-1.8c-0.5-1.4-0.5-2.7,0-3.8c0.5-1.1,1.6-1.9,3.2-2.5
			c1.1-0.4,2.2-0.7,3.3-0.7c1-0.1,2,0,2.8,0.2c0.9,0.2,1.6,0.6,2.2,1.2c0.6,0.6,1.1,1.3,1.4,2.2c0.2,0.6,0.4,1.2,0.5,1.9
			c0.1,0.7,0.1,1.3,0,1.9c0,0.2-0.2,0.3-0.5,0.3l-1.3-0.1c-0.1,0-0.2,0-0.3-0.1c-0.1-0.1-0.1-0.2-0.1-0.4c0-0.4,0-0.8,0-1.3
			C25,212,24.9,211.5,24.7,211z"/>
		<path class="st0" d="M29.3,217.7c0.1,0,0.1,0.1,0.2,0.3l0.6,1.3c0.1,0.1,0.1,0.2,0.1,0.3c0,0.1-0.1,0.1-0.3,0.2l-6.2,1.8
			c-0.7,0.2-1.3,0.4-1.8,0.7c-0.5,0.2-0.8,0.5-1,0.8c-0.2,0.3-0.3,0.7-0.3,1.1c0,0.4,0.2,1,0.5,1.7c0.1,0.2,0.2,0.4,0.4,0.7
			c0.2,0.3,0.4,0.7,0.7,1.1l10.1-3c0.2,0,0.3,0,0.4,0c0.1,0,0.1,0.1,0.2,0.3l0.6,1.3c0.1,0.1,0.1,0.2,0.1,0.3c0,0.1-0.1,0.1-0.3,0.2
			l-10.1,3c-1.1,0.3-2,0-2.7-0.9c-0.1-0.2-0.3-0.4-0.4-0.6c-0.1-0.2-0.3-0.5-0.4-0.7c-0.1-0.2-0.2-0.5-0.4-0.7
			c-0.1-0.2-0.2-0.4-0.3-0.6c-0.4-1-0.7-1.8-0.8-2.5c-0.1-0.7,0-1.3,0.3-1.9c0.3-0.5,0.8-1,1.5-1.4c0.7-0.4,1.6-0.7,2.6-1l6.3-1.9
			C29.2,217.7,29.3,217.7,29.3,217.7z"/>
		<path class="st0" d="M26.2,239.1c-0.2,0.2-0.4,0.1-0.6-0.1c-0.3-0.3-0.6-0.6-0.8-0.9c-0.2-0.3-0.4-0.6-0.5-0.9
			c-0.4-0.7-0.5-1.3-0.3-1.8c0.2-0.5,0.7-0.8,1.6-1.1L40,229c0.2-0.1,0.3-0.1,0.4,0c0.1,0,0.1,0.1,0.2,0.3l0.7,1.3
			c0.1,0.1,0.1,0.3,0.1,0.3c0,0.1-0.1,0.1-0.3,0.2l-13.8,5.1c-0.4,0.2-0.7,0.3-0.7,0.4c0,0.1,0,0.3,0.1,0.6c0.1,0.1,0.1,0.2,0.2,0.4
			c0.1,0.1,0.2,0.3,0.2,0.4c0.1,0.1,0.1,0.2,0.1,0.2c0,0-0.1,0.1-0.2,0.2L26.2,239.1z"/>
		<path class="st0" d="M37.2,237.4c-0.1-0.2-0.1-0.3-0.1-0.3c0.1-0.1,0.1-0.1,0.2-0.1l0.7-0.3c0.1,0,0.2-0.1,0.3-0.1
			c0.1,0,0.2,0.1,0.3,0.2l1.3,1.4l2.3-0.5c0.2,0,0.3,0,0.4,0c0.1,0,0.2,0.1,0.4,0.2l0.8,0.6c0.1,0.1,0.1,0.2,0.1,0.2
			c0,0.1-0.1,0.2-0.2,0.2L41,240l1.5,2.4c0.1,0.1,0.1,0.2,0.1,0.3c0,0.1-0.1,0.1-0.2,0.2l-1,0.5c-0.1,0-0.2,0.1-0.3,0
			c-0.1,0-0.2-0.1-0.2-0.2l-1.5-2.4l-7.1,3c-0.5,0.2-0.8,0.5-0.9,0.8c-0.1,0.3,0,0.7,0.3,1.1c0.1,0.2,0.3,0.4,0.5,0.7
			c0.2,0.3,0.4,0.5,0.6,0.7c0.1,0.1,0.1,0.2,0.1,0.3c0,0.1-0.1,0.1-0.2,0.2l-0.9,0.8c-0.1,0-0.2,0.1-0.2,0.1c-0.1,0-0.2,0-0.3-0.1
			c-0.2-0.2-0.4-0.4-0.6-0.6c-0.2-0.2-0.3-0.4-0.5-0.6c-0.2-0.2-0.3-0.4-0.4-0.6c-0.1-0.2-0.2-0.3-0.3-0.4c-0.6-1.1-0.9-1.9-0.6-2.6
			c0.2-0.7,0.9-1.2,2-1.7l7.2-3.1L37.2,237.4z"/>
		<path class="st0" d="M44.7,245.8c0.1,0,0.2,0.1,0.2,0.2l0.8,1.2c0.1,0.1,0.1,0.2,0.1,0.3c0,0.1-0.1,0.2-0.2,0.2l-5.8,3
			c-0.7,0.3-1.2,0.7-1.7,1c-0.4,0.3-0.7,0.6-0.9,1c-0.2,0.3-0.2,0.7,0,1.2c0.1,0.4,0.4,0.9,0.8,1.5c0.1,0.1,0.3,0.4,0.5,0.7
			c0.2,0.3,0.5,0.6,0.9,1l9.3-4.8c0.2-0.1,0.3-0.1,0.4-0.1c0.1,0,0.2,0.1,0.2,0.2l0.8,1.2c0.1,0.1,0.1,0.2,0.1,0.3
			c0,0.1-0.1,0.2-0.2,0.2l-9.4,4.8c-1,0.5-2,0.4-2.8-0.4c-0.2-0.2-0.3-0.4-0.5-0.6c-0.2-0.2-0.3-0.4-0.5-0.6
			c-0.2-0.2-0.3-0.4-0.5-0.6c-0.1-0.2-0.3-0.4-0.4-0.5c-0.6-0.9-1-1.6-1.2-2.3c-0.2-0.7-0.2-1.3,0-1.9c0.2-0.6,0.6-1.1,1.2-1.6
			c0.6-0.5,1.4-1,2.4-1.5l5.8-3C44.5,245.8,44.6,245.7,44.7,245.8z"/>
		<path class="st0" d="M53.2,257.9c0.4,0,0.9,0.2,1.4,0.7c0.5,0.5,1.1,1.1,1.6,1.6c0.5,0.6,1,1.1,1.3,1.6c0.1,0.2,0.2,0.3,0.2,0.4
			c0,0.1-0.1,0.2-0.3,0.3l-1.3,0.7c-0.2,0.1-0.4,0.2-0.5,0.1c-0.1-0.1-0.2-0.2-0.3-0.3c-0.3-0.5-0.7-1-1-1.5c-0.4-0.5-0.7-1-1.1-1.4
			l-9.1,5.5c-0.2,0.1-0.3,0.1-0.3,0.1c-0.1,0-0.2-0.1-0.3-0.2l-0.9-1.1c-0.1-0.1-0.1-0.2-0.1-0.3c0-0.1,0.1-0.2,0.2-0.3l9.1-5.5
			C52.3,258.1,52.8,257.9,53.2,257.9z"/>
		<path class="st0" d="M51.7,275.4c-1.1-1.2-1.6-2.3-1.5-3.3c0.1-1.1,0.7-2.2,2-3.4c1.1-1,2.1-1.8,3.1-2.2c1-0.5,2-0.7,2.8-0.8
			c0.9,0,1.7,0.1,2.5,0.4c0.8,0.3,1.4,0.8,2,1.5c0.6,0.6,1,1.2,1.2,1.7c0.2,0.5,0.3,1,0.3,1.5c0,0.5-0.1,0.9-0.3,1.2
			c-0.2,0.4-0.4,0.7-0.7,0.9c-1.1,1-2.2,1.4-3.4,1.1c-1.2-0.3-2.5-1.2-4-2.8c-0.2-0.2-0.4-0.5-0.6-0.7c-0.2-0.2-0.4-0.5-0.6-0.8
			c-0.3,0.2-0.5,0.4-0.7,0.6c-0.8,0.7-1.2,1.4-1.2,2c0,0.6,0.3,1.3,1,2c0.4,0.4,0.8,0.7,1.2,0.9c0.4,0.3,0.8,0.4,1.2,0.6
			c0.1,0,0.2,0.1,0.2,0.2c0,0.1,0,0.1,0,0.3l-0.5,1.2c-0.1,0.3-0.3,0.3-0.6,0.2c-0.7-0.2-1.4-0.5-1.9-1
			C52.6,276.3,52.2,275.8,51.7,275.4z M61.1,268.8c-0.7-0.7-1.4-1.1-2.3-1.1c-0.9,0-1.8,0.3-2.9,1c0.2,0.2,0.3,0.5,0.6,0.7
			c0.2,0.2,0.4,0.4,0.5,0.6c0.6,0.6,1.1,1.1,1.5,1.4c0.4,0.3,0.8,0.6,1.2,0.7c0.3,0.1,0.7,0.1,0.9,0c0.3-0.1,0.5-0.3,0.8-0.5
			c0.2-0.1,0.3-0.3,0.4-0.5c0.1-0.2,0.1-0.4,0.1-0.6c0-0.2-0.1-0.5-0.2-0.7C61.6,269.4,61.4,269.1,61.1,268.8z"/>
		<path class="st0" d="M84.4,284.5l-3.6-2.7c-0.1-0.1-0.2-0.2-0.2-0.3c0-0.1,0.1-0.2,0.2-0.3l1-1c0.1-0.1,0.2-0.2,0.3-0.2
			c0.1,0,0.2,0,0.3,0.1l9.3,7c0.1,0.1,0.2,0.2,0.2,0.3c0,0.1-0.1,0.2-0.2,0.3l-1,1c-0.1,0.1-0.2,0.2-0.3,0.2c-0.1,0-0.2,0-0.3-0.1
			l-3.7-2.8l-10.3,10.2c-0.2,0.2-0.3,0.2-0.4,0.2c-0.1,0-0.2-0.1-0.4-0.2l-1.1-0.9c-0.1-0.1-0.2-0.2-0.3-0.3c0-0.1,0-0.2,0.2-0.4
			L84.4,284.5z"/>
		<path class="st0" d="M86.2,304.2c-1.3-0.9-2.1-1.8-2.3-2.9c-0.2-1.1,0.2-2.3,1.1-3.8c0.8-1.2,1.6-2.2,2.5-2.9
			c0.9-0.7,1.7-1.2,2.6-1.5c0.9-0.3,1.7-0.3,2.5-0.2c0.8,0.1,1.6,0.5,2.3,0.9c0.7,0.4,1.2,0.9,1.6,1.4c0.3,0.5,0.6,0.9,0.6,1.4
			c0.1,0.4,0.1,0.9,0,1.3c-0.1,0.4-0.3,0.8-0.4,1c-0.8,1.2-1.8,1.9-3,1.9c-1.2,0-2.7-0.6-4.5-1.7c-0.3-0.2-0.5-0.4-0.8-0.5
			c-0.3-0.2-0.5-0.4-0.8-0.6c-0.2,0.3-0.4,0.5-0.6,0.7c-0.6,0.9-0.8,1.6-0.7,2.2c0.1,0.6,0.6,1.2,1.5,1.7c0.4,0.3,0.9,0.5,1.4,0.6
			c0.5,0.1,0.9,0.2,1.3,0.3c0.1,0,0.2,0,0.3,0.1c0,0.1,0,0.1,0,0.3l-0.2,1.3c0,0.3-0.2,0.4-0.5,0.3c-0.7,0-1.4-0.2-2.1-0.5
			C87.3,304.8,86.7,304.5,86.2,304.2z M93.6,295.5c-0.8-0.5-1.6-0.7-2.5-0.5c-0.8,0.2-1.7,0.7-2.6,1.7c0.2,0.2,0.4,0.4,0.7,0.5
			c0.3,0.2,0.5,0.3,0.7,0.4c0.7,0.4,1.3,0.8,1.8,1c0.5,0.2,0.9,0.3,1.3,0.4c0.4,0,0.7,0,0.9-0.2c0.2-0.2,0.5-0.4,0.7-0.7
			c0.1-0.2,0.2-0.4,0.2-0.6c0-0.2,0-0.4,0-0.6c-0.1-0.2-0.2-0.4-0.4-0.7C94.3,296,94,295.8,93.6,295.5z"/>
		<path class="st0" d="M104.9,302.3c-0.6-0.3-1.2-0.5-1.8-0.4c-0.6,0.1-1.1,0.3-1.7,0.7c-0.5,0.4-1,0.8-1.5,1.4
			c-0.5,0.6-0.9,1.2-1.2,1.8c-0.2,0.4-0.4,0.8-0.5,1.1c-0.1,0.4-0.1,0.7-0.1,1.1c0.1,0.4,0.2,0.7,0.4,1c0.2,0.3,0.6,0.6,1.1,0.8
			c0.5,0.2,1,0.4,1.5,0.6c0.6,0.1,1,0.2,1.4,0.3c0.2,0,0.3,0,0.3,0.1c0,0.1,0,0.1,0,0.2l-0.1,1.3c0,0.1,0,0.2-0.1,0.3
			c-0.1,0.1-0.2,0.1-0.3,0.1c-0.8,0-1.5-0.1-2.2-0.4c-0.7-0.3-1.3-0.5-1.8-0.8c-1.3-0.7-2.2-1.7-2.5-2.8c-0.3-1.1-0.1-2.5,0.7-4
			c0.6-1.1,1.2-2,1.9-2.7c0.7-0.8,1.5-1.3,2.3-1.7c0.8-0.4,1.6-0.6,2.5-0.6c0.8,0,1.7,0.2,2.5,0.7c0.6,0.3,1.1,0.7,1.7,1.1
			c0.5,0.4,1,0.9,1.3,1.4c0.1,0.2,0,0.3-0.2,0.5l-1,0.8c-0.1,0.1-0.2,0.1-0.3,0.1c-0.1,0-0.2-0.1-0.3-0.2c-0.2-0.3-0.5-0.6-0.9-1
			C105.8,302.8,105.4,302.5,104.9,302.3z"/>
		<path class="st0" d="M115.6,319c-0.1,0.2-0.2,0.2-0.3,0.2c-0.1,0-0.2,0-0.3-0.1l-1.4-0.6c-0.1-0.1-0.2-0.1-0.3-0.2
			c0-0.1,0-0.2,0.1-0.3l3.6-5.9c0.7-1.1,1-2,0.9-2.7c0-0.7-0.6-1.3-1.6-1.7c-0.4-0.2-0.9-0.4-1.4-0.5c-0.5-0.2-1-0.2-1.4-0.2
			l-5.4,8.7c-0.1,0.2-0.2,0.2-0.3,0.2c-0.1,0-0.2,0-0.3-0.1l-1.3-0.6c-0.1-0.1-0.2-0.1-0.3-0.2c-0.1-0.1,0-0.2,0.1-0.3l9.1-14.6
			c0.1-0.1,0.2-0.2,0.3-0.2c0.1,0,0.2,0,0.3,0.1l1.3,0.6c0.1,0.1,0.2,0.1,0.3,0.2c0,0.1,0,0.2-0.1,0.3l-2.6,4.2
			c0.5,0,1.1,0.2,1.7,0.3c0.6,0.2,1.1,0.4,1.5,0.5c0.8,0.4,1.4,0.8,1.8,1.3c0.4,0.5,0.7,1,0.8,1.6c0.1,0.6,0,1.2-0.2,1.9
			c-0.2,0.7-0.6,1.4-1.1,2.2L115.6,319z"/>
		<path class="st0" d="M129.9,324.5c-0.1,0-0.2,0-0.3-0.1l-1.4-0.5c-0.1,0-0.2-0.1-0.3-0.2c-0.1-0.1,0-0.2,0-0.3l2.9-5.8
			c0.3-0.6,0.5-1.2,0.7-1.7c0.1-0.5,0.2-0.9,0-1.3c-0.1-0.4-0.3-0.8-0.7-1.1c-0.4-0.3-0.9-0.6-1.7-0.8c-0.2-0.1-0.4-0.1-0.7-0.2
			c-0.3-0.1-0.7-0.2-1.2-0.3l-4.8,9.3c-0.1,0.2-0.2,0.2-0.2,0.3c-0.1,0-0.2,0-0.3,0l-1.4-0.5c-0.1,0-0.2-0.1-0.3-0.2
			c-0.1-0.1,0-0.2,0-0.3l4.8-9.4c0.6-1.1,1.4-1.5,2.5-1.3c0.2,0,0.4,0.1,0.6,0.1c0.2,0.1,0.5,0.1,0.7,0.2c0.3,0.1,0.5,0.1,0.7,0.2
			c0.2,0.1,0.5,0.1,0.6,0.2c1,0.3,1.7,0.7,2.3,1.2c0.6,0.4,1,1,1.2,1.6c0.2,0.6,0.3,1.3,0.2,2.1c-0.1,0.8-0.5,1.7-1,2.7l-3,5.9
			C130.1,324.4,130,324.5,129.9,324.5z"/>
		<path class="st0" d="M144.7,315.1c1.6,0.4,2.6,1.1,3.2,2.2c0.6,1.1,0.7,2.4,0.3,4c-0.3,1.2-0.7,2.3-1.3,3.2
			c-0.5,0.9-1.2,1.6-1.9,2.2c-0.7,0.6-1.5,0.9-2.4,1.1c-0.9,0.2-1.8,0.1-2.8-0.1c-1.5-0.4-2.6-1.1-3.2-2.1c-0.6-1-0.7-2.3-0.3-3.9
			c0.3-1.3,0.8-2.4,1.4-3.4c0.6-0.9,1.2-1.7,2-2.2c0.7-0.5,1.5-0.9,2.4-1.1C143,314.9,143.8,314.9,144.7,315.1z M144.1,317
			c-0.7-0.2-1.3-0.1-1.9,0.1c-0.6,0.2-1.1,0.6-1.5,1c-0.5,0.5-0.8,1.1-1.2,1.7c-0.3,0.7-0.6,1.4-0.8,2.2c-0.2,0.9-0.2,1.7,0.1,2.4
			c0.3,0.6,0.9,1.1,1.9,1.3c0.7,0.2,1.4,0.2,2-0.1c0.6-0.2,1.1-0.6,1.5-1.1c0.4-0.5,0.8-1.1,1.1-1.8c0.3-0.7,0.5-1.4,0.7-2.1
			c0.1-0.4,0.2-0.8,0.2-1.2c0-0.4-0.1-0.7-0.2-1.1c-0.1-0.3-0.4-0.6-0.7-0.8C145,317.3,144.6,317.1,144.1,317z"/>
		<path class="st0" d="M154.7,329.9c0,0.3-0.1,0.4-0.4,0.4c-0.4,0.1-0.8,0.1-1.2,0c-0.4,0-0.7-0.1-1-0.1c-0.8-0.1-1.3-0.4-1.6-0.9
			c-0.2-0.4-0.2-1.1,0.1-1.9l4.8-14.6c0.1-0.2,0.1-0.3,0.2-0.3c0.1,0,0.2,0,0.3,0l1.5,0.3c0.2,0,0.3,0.1,0.3,0.1
			c0.1,0.1,0.1,0.2,0,0.3l-4.6,13.9c-0.1,0.4-0.2,0.7-0.1,0.8c0.1,0.1,0.3,0.2,0.5,0.3c0.1,0,0.3,0,0.4,0.1c0.2,0,0.3,0,0.4,0
			c0.1,0,0.2,0,0.2,0.1c0,0,0,0.1,0.1,0.3L154.7,329.9z"/>
		<path class="st0" d="M166.5,318.9c1.6,0.2,2.8,0.8,3.5,1.8c0.7,1,1,2.3,0.8,3.9c-0.1,1.2-0.4,2.3-0.8,3.3c-0.4,1-0.9,1.8-1.6,2.4
			c-0.6,0.6-1.4,1.1-2.2,1.4c-0.9,0.3-1.8,0.4-2.8,0.3c-1.6-0.2-2.7-0.7-3.4-1.6c-0.7-0.9-1-2.2-0.8-3.8c0.2-1.4,0.5-2.5,0.9-3.5
			c0.5-1,1-1.8,1.7-2.4c0.7-0.6,1.4-1.1,2.2-1.4C164.7,318.9,165.6,318.8,166.5,318.9z M166.1,320.9c-0.7-0.1-1.3,0-1.8,0.3
			c-0.5,0.3-1,0.7-1.4,1.2s-0.7,1.2-0.9,1.9c-0.2,0.7-0.4,1.5-0.5,2.3c-0.1,1,0,1.8,0.4,2.4c0.4,0.6,1,1,2,1.1
			c0.7,0.1,1.4,0,1.9-0.3c0.5-0.3,1-0.8,1.4-1.3c0.4-0.6,0.7-1.2,0.9-1.9c0.2-0.7,0.4-1.4,0.4-2.2c0-0.4,0.1-0.8,0-1.2
			c0-0.4-0.2-0.7-0.3-1c-0.2-0.3-0.4-0.5-0.8-0.7C167,321.1,166.6,320.9,166.1,320.9z"/>
		<path class="st0" d="M183.8,332.9c-0.1,0.7-0.3,1.4-0.4,2c-0.2,0.6-0.4,1.2-0.8,1.7c-0.4,0.5-0.9,0.9-1.6,1.2
			c-0.7,0.3-1.6,0.4-2.7,0.4c-0.4,0-0.7,0-1.1-0.1c-0.4-0.1-0.8-0.1-1.2-0.2c-0.4-0.1-0.7-0.2-1.1-0.3c-0.3-0.1-0.6-0.2-0.8-0.3
			c-0.2-0.1-0.4-0.2-0.4-0.2c0,0,0-0.2,0.1-0.3l0.5-1.3c0.1-0.2,0.2-0.3,0.2-0.3c0.1,0,0.2,0,0.4,0.1c0.2,0.1,0.5,0.2,0.8,0.3
			c0.3,0.1,0.6,0.2,0.9,0.2c0.3,0.1,0.6,0.1,0.9,0.2c0.3,0,0.6,0.1,0.9,0.1c0.5,0,1,0,1.3-0.1c0.4-0.1,0.7-0.3,0.9-0.5
			c0.2-0.2,0.4-0.6,0.6-1c0.2-0.4,0.3-1,0.4-1.6c-0.5,0.1-1.1,0.2-1.7,0.3c-0.6,0.1-1.1,0.1-1.5,0.1c-0.8,0-1.5-0.2-2.1-0.4
			c-0.6-0.3-1-0.6-1.4-1.1c-0.4-0.5-0.6-1-0.7-1.7c-0.1-0.7-0.2-1.4-0.2-2.2c0-1.2,0.2-2.3,0.5-3.3c0.3-1,0.8-1.8,1.4-2.5
			c0.6-0.7,1.3-1.2,2.2-1.6c0.9-0.4,1.9-0.5,3-0.5c0.8,0,1.5,0.1,2.3,0.3c0.8,0.1,1.5,0.4,2.2,0.7c0.2,0.1,0.3,0.3,0.2,0.5
			L183.8,332.9z M180.8,321.9c-0.6,0-1.1,0.1-1.6,0.3c-0.5,0.2-1,0.5-1.4,1c-0.4,0.5-0.8,1.1-1,1.8c-0.3,0.7-0.4,1.7-0.4,2.7
			c0,1.1,0.2,1.9,0.6,2.5c0.5,0.6,1.1,0.9,2,0.9c0.3,0,0.7,0,1.2,0c0.5,0,1.1-0.1,1.7-0.3l1.4-8.4c-0.4-0.1-0.8-0.2-1.3-0.3
			C181.6,321.9,181.2,321.9,180.8,321.9z"/>
		<path class="st0" d="M190.1,338.2c-0.5,0-1.1,0-1.7-0.1c-0.6-0.1-1.2-0.3-1.6-0.4c-0.2-0.1-0.4-0.2-0.4-0.2c0,0,0-0.2,0-0.3
			l0.4-1.2c0.1-0.2,0.1-0.3,0.2-0.3c0.1,0,0.2,0,0.4,0.1c0.2,0.1,0.5,0.1,0.7,0.2c0.3,0.1,0.5,0.1,0.8,0.1c0.2,0,0.5,0.1,0.7,0.1
			c0.2,0,0.4,0,0.5,0c0.5,0,0.9-0.2,1.2-0.5c0.3-0.3,0.6-0.7,0.8-1.3l0.7-1.7l-0.3,0c-0.3,0-0.5,0-0.7-0.1c-0.2-0.1-0.3-0.4-0.4-0.8
			l-2.4-11.3c0-0.2,0-0.3,0.2-0.3l1.7-0.1c0.2,0,0.3,0.1,0.4,0.2l1.2,6l0.9,4.5l0.1,0l1.8-4.6l2.4-6.1c0-0.1,0.1-0.1,0.1-0.2
			c0,0,0.1-0.1,0.3-0.1l1.8-0.1c0.2,0,0.3,0.1,0.2,0.3l-6,15.1c-0.5,1.1-1,2-1.6,2.4C191.8,337.9,191.1,338.2,190.1,338.2z"/>
		<path class="st0" d="M222.9,313.5c-1,0.2-1.7,0.6-2,1.2c-0.3,0.5-0.4,1.1-0.3,1.7c0.1,0.5,0.5,0.9,1.2,1.2
			c0.7,0.3,1.7,0.6,3.1,0.9c0.6,0.1,1.2,0.3,1.7,0.4c0.6,0.2,1.1,0.4,1.6,0.7c0.5,0.3,0.9,0.6,1.3,1.1c0.4,0.4,0.6,1,0.8,1.7
			c0.2,0.9,0.2,1.7,0,2.4c-0.2,0.7-0.6,1.3-1,1.9c-0.5,0.5-1.1,1-1.8,1.3c-0.7,0.4-1.5,0.6-2.2,0.8c-1,0.2-2,0.4-3.1,0.4
			c-1.1,0.1-2.1,0-3.1-0.3c-0.2,0-0.2-0.2-0.2-0.5l0.4-1.6c0-0.2,0.2-0.3,0.4-0.3c0.8,0.2,1.7,0.3,2.5,0.3c0.8,0,1.6-0.1,2.3-0.2
			c1.3-0.3,2.3-0.8,2.8-1.3c0.5-0.6,0.6-1.3,0.5-2.2c-0.1-0.4-0.2-0.7-0.4-0.9c-0.2-0.2-0.5-0.4-0.8-0.6c-0.3-0.2-0.7-0.3-1.1-0.4
			c-0.4-0.1-1-0.2-1.5-0.4c-0.9-0.2-1.7-0.4-2.4-0.6c-0.7-0.2-1.2-0.5-1.7-0.7c-0.5-0.3-0.9-0.6-1.1-1c-0.3-0.4-0.5-0.8-0.6-1.4
			c-0.3-1.5-0.1-2.7,0.8-3.7c0.8-1,2.1-1.7,3.9-2.1c0.8-0.2,1.6-0.3,2.5-0.3c0.9,0,1.7,0,2.4,0.2c0.1,0,0.2,0.1,0.2,0.1
			c0,0,0.1,0.1,0.1,0.3l-0.2,1.6c0,0.1-0.1,0.2-0.1,0.3c0,0-0.1,0-0.2,0c-0.8-0.1-1.6-0.2-2.3-0.1
			C224.2,313.3,223.6,313.4,222.9,313.5z"/>
		<path class="st0" d="M237.5,313.8c-0.7,0.2-1.2,0.5-1.5,1c-0.4,0.5-0.6,1-0.7,1.7c-0.1,0.6-0.1,1.3-0.1,2c0.1,0.7,0.2,1.4,0.5,2.1
			c0.1,0.4,0.3,0.8,0.5,1.1c0.2,0.3,0.4,0.6,0.7,0.8c0.3,0.2,0.6,0.3,1,0.4c0.4,0,0.8,0,1.3-0.2c0.5-0.2,1-0.4,1.5-0.7
			c0.5-0.3,0.9-0.6,1.2-0.8c0.1-0.1,0.2-0.2,0.3-0.2s0.1,0.1,0.2,0.2l0.9,1c0.1,0.1,0.1,0.2,0.1,0.3c0,0.1-0.1,0.2-0.2,0.3
			c-0.5,0.5-1.1,1-1.8,1.3c-0.7,0.3-1.3,0.5-1.8,0.7c-1.5,0.5-2.7,0.4-3.8-0.1c-1.1-0.5-1.8-1.6-2.4-3.3c-0.4-1.1-0.6-2.2-0.6-3.3
			c0-1,0.1-2,0.4-2.8c0.3-0.8,0.7-1.6,1.3-2.2c0.6-0.6,1.3-1.1,2.2-1.3c0.6-0.2,1.3-0.3,2-0.4c0.7-0.1,1.3-0.1,1.9,0.1
			c0.2,0,0.3,0.2,0.2,0.5l-0.1,1.3c0,0.1,0,0.2-0.1,0.3c-0.1,0.1-0.2,0.1-0.4,0c-0.4-0.1-0.8-0.1-1.3,0
			C238.5,313.5,238,313.6,237.5,313.8z"/>
		<path class="st0" d="M244.7,303.9c0.4-0.1,0.7-0.1,1,0c0.3,0.2,0.6,0.4,0.7,0.8c0.1,0.2,0.1,0.5,0.1,0.7c0,0.2-0.1,0.5-0.2,0.7
			c-0.1,0.2-0.2,0.4-0.4,0.6c-0.2,0.2-0.3,0.3-0.6,0.4c-0.3,0.1-0.7,0.1-1,0c-0.3-0.1-0.6-0.4-0.7-0.7c-0.1-0.2-0.1-0.5-0.1-0.7
			c0-0.2,0.1-0.5,0.2-0.7c0.1-0.2,0.2-0.4,0.4-0.6C244.3,304.2,244.5,304,244.7,303.9z M249.7,320.6c0,0.2,0,0.3,0,0.4
			c0,0.1-0.1,0.1-0.3,0.2l-1.4,0.5c-0.1,0.1-0.2,0.1-0.3,0.1c-0.1,0-0.1-0.1-0.2-0.3l-2.7-11.8c0-0.2,0-0.3,0-0.4
			c0.1-0.1,0.1-0.1,0.3-0.2l1.4-0.5c0.2-0.1,0.3-0.1,0.3-0.1c0.1,0,0.1,0.1,0.2,0.3L249.7,320.6z"/>
		<path class="st0" d="M259.4,317.3c-1.4,0.6-2.7,0.8-3.7,0.4c-1-0.4-1.9-1.4-2.6-3c-0.6-1.3-1-2.6-1.1-3.7
			c-0.1-1.1-0.1-2.1,0.2-2.9c0.2-0.9,0.7-1.6,1.2-2.2c0.6-0.6,1.2-1.1,2-1.4c0.8-0.3,1.4-0.5,2-0.5c0.6,0,1.1,0,1.5,0.2
			c0.4,0.2,0.8,0.4,1.1,0.7c0.3,0.3,0.5,0.6,0.6,0.9c0.6,1.3,0.6,2.5-0.1,3.6c-0.7,1-1.9,2-3.9,2.8c-0.3,0.1-0.6,0.3-0.9,0.4
			c-0.3,0.1-0.6,0.2-1,0.3c0.1,0.3,0.2,0.6,0.3,0.9c0.4,1,0.9,1.6,1.5,1.8c0.6,0.2,1.3,0.1,2.3-0.3c0.5-0.2,0.9-0.5,1.3-0.8
			c0.4-0.3,0.7-0.6,0.9-1c0.1-0.1,0.2-0.2,0.2-0.2c0.1,0,0.1,0,0.3,0.1l1,0.8c0.2,0.2,0.2,0.4,0,0.6c-0.4,0.6-0.9,1.1-1.5,1.5
			C260.6,316.7,260,317,259.4,317.3z M256.2,306.3c-0.9,0.4-1.5,1-1.8,1.8c-0.3,0.8-0.3,1.8,0,3.1c0.3-0.1,0.5-0.2,0.8-0.3
			c0.3-0.1,0.5-0.2,0.7-0.3c0.8-0.3,1.4-0.7,1.8-1c0.5-0.3,0.8-0.6,1-0.9c0.2-0.3,0.3-0.6,0.3-0.9c0-0.3-0.1-0.6-0.2-0.9
			c-0.1-0.2-0.2-0.4-0.4-0.5c-0.1-0.1-0.3-0.3-0.5-0.3c-0.2-0.1-0.5-0.1-0.8,0C256.9,306,256.6,306.1,256.2,306.3z"/>
		<path class="st0" d="M276.6,308.1c0,0.1-0.1,0.1-0.3,0.2L275,309c-0.1,0.1-0.2,0.1-0.3,0.1c-0.1,0-0.2-0.1-0.2-0.3l-2.3-6.1
			c-0.3-0.7-0.5-1.2-0.8-1.6c-0.3-0.4-0.6-0.7-1-0.9c-0.4-0.2-0.8-0.2-1.3-0.2c-0.5,0.1-1.1,0.3-1.8,0.7c-0.2,0.1-0.4,0.2-0.6,0.4
			c-0.3,0.2-0.6,0.4-1,0.7l3.7,9.8c0.1,0.2,0.1,0.3,0,0.4c0,0.1-0.1,0.1-0.2,0.2l-1.3,0.7c-0.1,0.1-0.2,0.1-0.3,0.1
			c-0.1,0-0.2-0.1-0.2-0.3l-3.8-9.8c-0.4-1.1-0.2-2.1,0.7-2.7c0.1-0.1,0.3-0.2,0.5-0.3c0.2-0.1,0.4-0.3,0.6-0.4
			c0.2-0.1,0.4-0.3,0.6-0.4c0.2-0.1,0.4-0.2,0.6-0.3c0.9-0.5,1.7-0.8,2.4-1c0.7-0.1,1.4-0.1,2,0.1c0.6,0.2,1.1,0.7,1.6,1.3
			c0.5,0.6,0.9,1.5,1.3,2.5l2.4,6.1C276.6,307.9,276.6,308,276.6,308.1z"/>
		<path class="st0" d="M280.4,292.8c-0.6,0.4-1,0.8-1.2,1.4c-0.2,0.6-0.3,1.2-0.2,1.8c0.1,0.6,0.2,1.3,0.5,2c0.3,0.7,0.6,1.3,1,1.9
			c0.2,0.4,0.5,0.7,0.8,1c0.3,0.3,0.6,0.5,0.9,0.6c0.3,0.1,0.7,0.1,1.1,0.1c0.4-0.1,0.8-0.2,1.2-0.5c0.4-0.3,0.8-0.6,1.2-1.1
			c0.4-0.4,0.7-0.8,0.9-1.1c0.1-0.2,0.2-0.2,0.2-0.2c0.1,0,0.1,0,0.2,0.1l1.1,0.7c0.1,0.1,0.2,0.2,0.2,0.3c0,0.1,0,0.2-0.1,0.3
			c-0.4,0.7-0.8,1.2-1.4,1.7c-0.5,0.5-1.1,0.9-1.5,1.2c-1.3,0.8-2.5,1.1-3.7,0.9c-1.2-0.2-2.2-1.1-3.2-2.5c-0.7-1-1.2-2-1.5-3
			c-0.3-1-0.5-1.9-0.4-2.8c0-0.9,0.3-1.7,0.6-2.5c0.4-0.7,1-1.4,1.8-1.9c0.5-0.3,1.1-0.7,1.8-0.9c0.6-0.3,1.3-0.4,1.9-0.4
			c0.2,0,0.3,0.1,0.4,0.4l0.2,1.2c0,0.1,0,0.2,0,0.3c0,0.1-0.2,0.1-0.3,0.1c-0.4,0.1-0.8,0.2-1.3,0.3
			C281.3,292.3,280.8,292.5,280.4,292.8z"/>
		<path class="st0" d="M296.2,295.2c-1.2,1-2.4,1.4-3.5,1.2c-1.1-0.2-2.1-0.9-3.2-2.3c-0.9-1.2-1.6-2.3-1.9-3.3
			c-0.4-1-0.6-2-0.5-2.9c0-0.9,0.3-1.7,0.7-2.4c0.4-0.7,1-1.3,1.7-1.9c0.7-0.5,1.3-0.8,1.8-1c0.6-0.2,1.1-0.2,1.5-0.1
			c0.5,0.1,0.8,0.2,1.2,0.4c0.3,0.2,0.6,0.5,0.8,0.8c0.9,1.2,1.2,2.3,0.8,3.5c-0.4,1.1-1.4,2.4-3.1,3.7c-0.3,0.2-0.5,0.4-0.8,0.6
			c-0.3,0.2-0.6,0.4-0.9,0.6c0.2,0.3,0.3,0.6,0.5,0.8c0.6,0.8,1.3,1.3,1.9,1.4c0.6,0.1,1.3-0.2,2.1-0.8c0.4-0.3,0.8-0.7,1-1.1
			c0.3-0.4,0.5-0.8,0.7-1.2c0.1-0.1,0.1-0.2,0.2-0.2c0.1,0,0.1,0,0.3,0.1l1.1,0.6c0.3,0.1,0.3,0.3,0.2,0.6c-0.3,0.7-0.7,1.3-1.1,1.8
			C297.2,294.3,296.7,294.8,296.2,295.2z M290.5,285.3c-0.8,0.6-1.2,1.3-1.3,2.2c-0.1,0.8,0.1,1.8,0.7,3c0.2-0.1,0.5-0.3,0.7-0.5
			c0.2-0.2,0.5-0.3,0.6-0.5c0.7-0.5,1.2-1,1.5-1.4c0.4-0.4,0.6-0.8,0.8-1.1c0.1-0.3,0.2-0.6,0.1-0.9c-0.1-0.3-0.2-0.6-0.4-0.9
			c-0.1-0.2-0.3-0.3-0.5-0.4c-0.2-0.1-0.4-0.2-0.6-0.2c-0.2,0-0.5,0-0.8,0.1C291.1,284.8,290.8,285,290.5,285.3z"/>
		<path class="st0" d="M305.1,264.4c-0.1-0.2-0.2-0.3-0.2-0.4c0-0.1,0.1-0.2,0.2-0.4l0.9-1c0.1-0.1,0.2-0.2,0.3-0.2
			c0.1,0,0.2,0.1,0.4,0.2l10.1,12.7c0.1,0.2,0.2,0.3,0.2,0.4c0,0.1-0.1,0.2-0.2,0.4l-0.9,1c-0.1,0.1-0.2,0.2-0.3,0.2
			c-0.1,0-0.2,0-0.4-0.2L305.1,264.4z"/>
		<path class="st0" d="M327.5,263.8c0,0.1-0.1,0.2-0.2,0.3l-0.9,1.1c-0.1,0.1-0.2,0.2-0.2,0.2c-0.1,0-0.2,0-0.3-0.2l-4.4-4.8
			c-0.5-0.5-0.9-0.9-1.3-1.2c-0.4-0.3-0.8-0.5-1.2-0.5c-0.4,0-0.8,0.1-1.3,0.3c-0.4,0.2-0.9,0.7-1.4,1.3c-0.1,0.1-0.3,0.3-0.5,0.6
			c-0.2,0.3-0.4,0.6-0.7,1l7,7.8c0.1,0.1,0.2,0.2,0.2,0.3c0,0.1-0.1,0.2-0.2,0.3l-0.9,1.1c-0.1,0.1-0.2,0.2-0.3,0.2
			c-0.1,0-0.2,0-0.3-0.2l-7.1-7.8c-0.8-0.9-0.9-1.8-0.3-2.8c0.1-0.1,0.2-0.3,0.3-0.5c0.1-0.2,0.3-0.4,0.4-0.6
			c0.1-0.2,0.3-0.4,0.5-0.6c0.2-0.2,0.3-0.4,0.4-0.5c0.7-0.8,1.3-1.4,1.9-1.8c0.6-0.4,1.3-0.6,1.9-0.6c0.6,0,1.3,0.2,2,0.6
			c0.7,0.4,1.4,1,2.1,1.8l4.4,4.9C327.4,263.6,327.5,263.7,327.5,263.8z"/>
		<path class="st0" d="M336.6,251.2c0,0.1-0.1,0.2-0.1,0.3l-0.8,1.2c-0.1,0.1-0.1,0.2-0.2,0.2c-0.1,0-0.2,0-0.3-0.1l-4.8-4.4
			c-0.5-0.5-1-0.9-1.4-1.1c-0.4-0.3-0.9-0.4-1.3-0.4c-0.4,0-0.8,0.1-1.2,0.4c-0.4,0.3-0.8,0.7-1.3,1.4c-0.1,0.1-0.2,0.4-0.4,0.6
			c-0.2,0.3-0.4,0.6-0.6,1.1l7.7,7.1c0.1,0.1,0.2,0.2,0.2,0.3c0,0.1,0,0.2-0.1,0.3l-0.8,1.2c-0.1,0.1-0.2,0.2-0.2,0.2
			c-0.1,0-0.2,0-0.3-0.1l-7.7-7.2c-0.9-0.8-1.1-1.8-0.6-2.8c0.1-0.1,0.2-0.3,0.3-0.5c0.1-0.2,0.2-0.4,0.4-0.7
			c0.1-0.2,0.3-0.4,0.4-0.7c0.1-0.2,0.3-0.4,0.4-0.6c0.6-0.8,1.2-1.5,1.8-1.9c0.6-0.5,1.2-0.7,1.8-0.8c0.6-0.1,1.3,0.1,2,0.4
			c0.7,0.3,1.5,0.9,2.3,1.7l4.8,4.5C336.5,251,336.6,251.1,336.6,251.2z"/>
		<path class="st0" d="M331.6,234.5c0.8-1.4,1.8-2.2,3-2.5c1.2-0.3,2.5,0,3.9,0.8c1.1,0.6,2,1.3,2.7,2.1c0.7,0.8,1.2,1.6,1.6,2.4
			c0.3,0.8,0.5,1.7,0.4,2.6c-0.1,0.9-0.4,1.8-0.9,2.7c-0.8,1.4-1.7,2.2-2.9,2.5c-1.1,0.3-2.4,0-3.8-0.8c-1.2-0.7-2.1-1.4-2.9-2.2
			c-0.7-0.8-1.3-1.7-1.6-2.5c-0.3-0.9-0.4-1.7-0.4-2.6C330.9,236,331.1,235.2,331.6,234.5z M333.2,235.6c-0.3,0.6-0.5,1.2-0.4,1.8
			c0.1,0.6,0.2,1.2,0.6,1.8c0.3,0.6,0.8,1.1,1.4,1.6c0.6,0.5,1.2,1,1.9,1.4c0.8,0.5,1.6,0.7,2.3,0.6c0.7-0.1,1.3-0.6,1.8-1.4
			c0.4-0.6,0.5-1.3,0.5-1.9c-0.1-0.6-0.3-1.2-0.7-1.8c-0.4-0.6-0.8-1.1-1.4-1.6c-0.6-0.5-1.2-0.9-1.8-1.3c-0.4-0.2-0.8-0.4-1.1-0.5
			c-0.4-0.1-0.7-0.1-1.1-0.1c-0.3,0-0.7,0.2-1,0.4C333.8,234.8,333.5,235.1,333.2,235.6z"/>
		<path class="st0" d="M348.9,227.1c0.3,0.4,0.5,0.7,0.6,0.9c0.1,0.2,0,0.5-0.1,0.9l-0.4,0.9c-0.1,0.3-0.3,0.5-0.5,0.6
			c-0.2,0.1-0.5,0.1-1,0l-11.3-3c-0.2,0-0.2-0.2-0.1-0.3l0.7-1.6c0.1-0.2,0.2-0.3,0.4-0.2l6.1,1.7l4,1.2l0.1-0.1l-3-3.3l-4.5-5.3
			c-0.1-0.1-0.1-0.1-0.1-0.2c0-0.1,0-0.2,0.1-0.3l0.8-1.7c0.1-0.2,0.2-0.2,0.3,0L348.9,227.1z"/>
		<path class="st0" d="M343.2,209.4c0.2-0.5,0.4-1.1,0.8-1.8c0.3-0.7,0.8-1.4,1.3-2.2c0.2-0.2,0.3-0.3,0.4-0.3
			c0.1,0,0.3,0.1,0.4,0.2c1.7,0.9,3.3,1.8,4.8,2.7c1.5,0.8,3.1,1.7,4.7,2.5c0.2,0.1,0.3,0.3,0.3,0.5c0,0.4,0,0.8-0.1,1.3
			c-0.1,0.4-0.1,0.9-0.2,1.3c-0.1,0.4-0.2,0.9-0.4,1.3c-0.1,0.4-0.3,0.8-0.4,1.1c-0.3,0.9-0.7,1.5-1.1,2c-0.4,0.5-0.9,0.8-1.4,1
			c-0.5,0.2-1.1,0.3-1.7,0.2c-0.6-0.1-1.2-0.2-1.8-0.4c-1.1-0.4-2.1-0.9-3-1.5c-0.9-0.6-1.6-1.3-2.2-2.1c-0.5-0.8-0.9-1.6-1-2.6
			C342.6,211.6,342.7,210.6,343.2,209.4z M353.2,214.7c0.1-0.2,0.1-0.4,0.2-0.6c0.1-0.2,0.1-0.4,0.2-0.7c0.1-0.2,0.1-0.5,0.1-0.7
			c0-0.2,0-0.4,0-0.6c-1.3-0.7-2.6-1.4-3.9-2c-1.2-0.7-2.5-1.4-3.7-2.1c-0.2,0.3-0.4,0.7-0.6,1.1c-0.2,0.4-0.4,0.8-0.5,1.2
			c-0.2,0.5-0.3,1-0.3,1.6c0,0.5,0.2,1.1,0.5,1.6c0.3,0.6,0.8,1.1,1.5,1.6c0.7,0.5,1.6,1,2.8,1.5c0.4,0.2,0.8,0.2,1.1,0.3
			c0.4,0,0.7,0,1-0.2c0.3-0.1,0.6-0.4,0.9-0.7C352.8,215.6,353,215.2,353.2,214.7z"/>
		<path class="st0" d="M347.9,202.4c0,0.2-0.1,0.3-0.2,0.3c-0.1,0-0.2,0-0.3-0.1l-0.8-0.3c-0.1-0.1-0.2-0.1-0.3-0.2
			c-0.1-0.1-0.1-0.2-0.1-0.4l0.2-1.9l-2-1.4c-0.2-0.1-0.3-0.2-0.3-0.3c-0.1-0.1-0.1-0.2-0.1-0.4l-0.1-1c0-0.1,0-0.2,0.1-0.3
			c0.1-0.1,0.2,0,0.3,0l2.7,1.3l0.8-2.7c0-0.2,0.1-0.2,0.2-0.3c0.1,0,0.2,0,0.3,0.1l1,0.5c0.1,0.1,0.2,0.1,0.3,0.2
			c0,0.1,0,0.2,0,0.3l-0.8,2.7l7,3.2c0.5,0.2,0.9,0.3,1.1,0.1c0.3-0.1,0.5-0.5,0.6-0.9c0.1-0.2,0.1-0.5,0.2-0.9
			c0.1-0.4,0.1-0.7,0.2-0.9c0-0.1,0-0.2,0.1-0.3c0.1,0,0.1,0,0.2,0l1.2,0.2c0.1,0,0.2,0.1,0.2,0.1c0.1,0,0.1,0.1,0.1,0.3
			c0,0.3,0,0.5-0.1,0.8c0,0.3-0.1,0.6-0.1,0.8c0,0.2-0.1,0.5-0.2,0.7c-0.1,0.2-0.1,0.4-0.1,0.5c-0.4,1.2-0.9,1.9-1.5,2.2
			c-0.6,0.3-1.5,0.1-2.6-0.4l-7.1-3.2L347.9,202.4z"/>
		<path class="st0" d="M344.8,187.8c0.1-0.4,0.3-0.7,0.6-0.8c0.3-0.2,0.6-0.2,1-0.1c0.2,0.1,0.5,0.2,0.6,0.3
			c0.2,0.2,0.3,0.3,0.5,0.5c0.1,0.2,0.2,0.4,0.3,0.7c0,0.2,0,0.5,0,0.7c-0.1,0.4-0.3,0.6-0.6,0.8c-0.3,0.2-0.6,0.2-1,0.1
			c-0.2-0.1-0.5-0.2-0.7-0.3c-0.2-0.1-0.4-0.3-0.5-0.5c-0.1-0.2-0.2-0.4-0.3-0.6C344.7,188.2,344.7,188,344.8,187.8z M361.3,193.1
			c0.2,0.1,0.3,0.1,0.3,0.2c0,0.1,0,0.2,0,0.3l-0.3,1.4c0,0.1-0.1,0.2-0.1,0.3c-0.1,0.1-0.2,0.1-0.3,0l-11.3-4.4
			c-0.2-0.1-0.3-0.1-0.3-0.2c0-0.1,0-0.2,0-0.3l0.3-1.4c0-0.2,0.1-0.3,0.1-0.3c0.1-0.1,0.2,0,0.3,0L361.3,193.1z"/>
		<path class="st0" d="M351.2,179c0.3-1.6,0.9-2.7,2-3.4c1-0.7,2.4-0.9,4-0.6c1.2,0.2,2.3,0.6,3.3,1c0.9,0.5,1.7,1,2.3,1.7
			c0.6,0.7,1,1.4,1.3,2.3c0.2,0.9,0.3,1.8,0.1,2.8c-0.3,1.6-0.9,2.7-1.8,3.3c-1,0.7-2.2,0.9-3.9,0.6c-1.3-0.2-2.5-0.6-3.5-1.1
			c-1-0.5-1.7-1.1-2.3-1.8c-0.6-0.7-1-1.5-1.2-2.3C351.1,180.7,351.1,179.9,351.2,179z M353.2,179.5c-0.1,0.7,0,1.3,0.2,1.9
			c0.3,0.6,0.6,1,1.2,1.5c0.5,0.4,1.1,0.8,1.8,1c0.7,0.3,1.4,0.5,2.2,0.6c1,0.2,1.8,0.1,2.4-0.2c0.6-0.3,1-1,1.2-2
			c0.1-0.7,0-1.4-0.2-1.9c-0.3-0.6-0.7-1-1.2-1.4c-0.5-0.4-1.2-0.7-1.9-1c-0.7-0.3-1.4-0.4-2.1-0.6c-0.4-0.1-0.8-0.1-1.2-0.1
			c-0.4,0-0.7,0.1-1,0.3c-0.3,0.2-0.6,0.4-0.8,0.7C353.4,178.6,353.3,179,353.2,179.5z"/>
		<path class="st0" d="M366.2,162.5c0,0.1,0,0.2,0,0.3l-0.1,1.5c0,0.1,0,0.2-0.1,0.3c0,0.1-0.2,0.1-0.3,0l-6.3-1.4
			c-0.7-0.2-1.3-0.2-1.8-0.3c-0.5,0-1,0.1-1.3,0.3c-0.4,0.2-0.6,0.5-0.9,1c-0.2,0.4-0.3,1.1-0.4,1.8c0,0.2,0,0.4,0,0.7
			c0,0.3,0,0.7,0,1.2l10.2,2.3c0.2,0,0.3,0.1,0.3,0.2c0,0.1,0,0.2,0,0.3l-0.1,1.5c0,0.1,0,0.3-0.1,0.3c0,0.1-0.2,0.1-0.3,0
			l-10.3-2.3c-1.2-0.3-1.8-1-1.9-2.1c0-0.2,0-0.4,0-0.6c0-0.2,0-0.5,0-0.8c0-0.3,0-0.5,0-0.8c0-0.3,0-0.5,0-0.7
			c0.1-1,0.3-1.9,0.6-2.6c0.3-0.7,0.7-1.2,1.2-1.6c0.5-0.4,1.2-0.6,2-0.6c0.8-0.1,1.7,0,2.8,0.3l6.4,1.5
			C366.1,162.3,366.2,162.4,366.2,162.5z"/>
	</g>
</g>
</svg>
