<?xml version="1.0" encoding="utf-8"?>
<!-- Generator: Adobe Illustrator 22.0.1, SVG Export Plug-In . SVG Version: 6.00 Build 0)  -->
<svg version="1.1" id="Layer_1" xmlns="http://www.w3.org/2000/svg" xmlns:xlink="http://www.w3.org/1999/xlink" x="0px" y="0px"
	 viewBox="0 0 685.2 196.1" style="enable-background:new 0 0 685.2 196.1;" xml:space="preserve">
<style type="text/css">
	.st0{fill:#FFFFFF;}
	.st1{fill:#009877;}
</style>
<g>
	<g>
		<g>
			<g>
				<g>
					<g>
						<path class="st0" d="M166.7,106.9h-23.1l-5.8,13.3c-0.4,0.7-0.7,1.2-1.1,1.5c-0.4,0.3-1.1,0.5-2,0.5h-12.3
							c-0.7,0-1.1-0.2-1.3-0.6c-0.1-0.4-0.1-0.9,0.1-1.5l30.3-65.5c1-2.4,2.2-3.9,3.3-4.6c1.2-0.7,2.8-1.1,4.8-1.2h6.1
							c1.1,0,2.1,0.1,2.8,0.2c0.8,0.1,1.4,0.4,2,0.8c0.6,0.4,1,1,1.3,1.8c0.3,0.8,0.6,1.8,0.8,3l11.9,65.5c0.1,0.4,0,0.9-0.2,1.4
							c-0.2,0.5-0.6,0.7-1.4,0.7h-11.6c-0.8,0-1.4-0.1-1.8-0.3c-0.5-0.2-0.7-0.6-0.9-1.4L166.7,106.9z M148.9,93.9h15.9l-1.9-13.3
							l-1.6-14.9h-0.7l-6,14.9L148.9,93.9z"/>
						<path class="st0" d="M246.3,62.1c-0.3,0.3-0.8,0.5-1.6,0.5h-18.4l-8.1,57.3c-0.1,0.9-0.4,1.5-0.7,1.8
							c-0.3,0.3-0.9,0.4-1.9,0.4h-10.9c-0.8,0-1.4-0.2-1.8-0.5c-0.3-0.3-0.4-0.9-0.3-1.7l8.2-57.3h-18c-0.8,0-1.2-0.2-1.5-0.5
							c-0.2-0.3-0.3-0.9-0.2-1.6l1.4-9.3c0.1-0.9,0.3-1.5,0.6-1.8c0.3-0.3,0.8-0.4,1.6-0.4h51.9c0.8,0,1.3,0.2,1.5,0.4
							c0.2,0.3,0.3,0.9,0.1,1.8l-1.3,9.3C246.8,61.2,246.5,61.8,246.3,62.1z"/>
						<path class="st0" d="M272.1,123.3c-2.2,0-4.5-0.1-6.9-0.4c-2.4-0.2-4.7-0.6-7-1.1c-2.3-0.5-4.5-1.2-6.7-2
							c-2.2-0.8-4.1-1.8-5.8-3c-0.5-0.4-0.8-0.7-0.9-1.1c-0.1-0.4,0.1-1.1,0.6-2l4-8.4c0.4-0.8,0.8-1.3,1.3-1.5c0.4-0.1,1,0,1.8,0.3
							c1.3,0.6,2.7,1.1,4.2,1.7c1.6,0.6,3.2,1.1,4.9,1.6c1.7,0.4,3.5,0.8,5.2,1.1c1.8,0.3,3.5,0.5,5.3,0.5c2.4,0,4.3-0.2,5.8-0.7
							c1.5-0.5,2.7-1.1,3.6-1.9c0.9-0.8,1.5-1.6,1.9-2.6c0.4-1,0.5-2,0.5-2.9c0-1.9-0.8-3.4-2.3-4.7c-1.5-1.2-4.1-2.7-7.7-4.4
							c-3.3-1.6-6.3-3.2-8.9-4.8c-2.6-1.6-4.8-3.3-6.6-5.1c-1.8-1.8-3.2-3.7-4.2-5.8c-1-2.1-1.5-4.4-1.5-6.9
							c0-6.5,2.3-11.7,6.8-15.6c4.6-3.9,11.1-5.9,19.6-5.9c3.8,0,7.7,0.4,11.6,1.1c3.9,0.8,7.2,1.9,10,3.5c0.8,0.3,1.2,0.8,1.3,1.2
							c0.1,0.4,0,1.2-0.3,2.3l-2.5,7.8c-0.4,1-0.9,1.6-1.4,1.7c-0.5,0.1-1.1,0.1-1.9-0.2c-3-1-6-1.8-9-2.4c-3-0.6-5.9-0.9-8.6-0.9
							c-3.3,0-5.6,0.7-7,2c-1.3,1.3-2,2.9-2,4.6c0,1.4,0.8,2.8,2.5,4.1c1.6,1.3,4.4,2.9,8.3,4.6c3,1.3,5.8,2.7,8.4,4.1
							c2.6,1.4,4.8,3.1,6.7,4.9c1.9,1.8,3.3,3.9,4.4,6.2c1,2.3,1.6,5,1.6,7.9c0,4-0.7,7.4-2.2,10.3c-1.5,2.9-3.5,5.3-6.1,7.2
							c-2.6,1.9-5.7,3.3-9.2,4.2C280,122.8,276.2,123.3,272.1,123.3z"/>
						<path class="st0" d="M324,121.7c-0.3,0.3-1,0.4-1.9,0.4h-10.7c-0.8,0-1.5-0.2-1.8-0.5c-0.4-0.3-0.5-0.9-0.4-1.7l9.7-68.7
							c0.1-0.8,0.4-1.4,0.8-1.7c0.4-0.3,1-0.5,1.9-0.5h10.8c1,0,1.6,0.2,1.9,0.4c0.3,0.3,0.3,0.9,0.2,1.8l-9.7,68.7
							C324.5,120.8,324.3,121.4,324,121.7z"/>
						<path class="st0" d="M368.3,122.1c-1.8,0-3.1-0.4-3.8-1.3c-0.7-0.8-0.9-2.2-0.6-4l8.7-62.7c0.3-1.8,1-3.1,1.8-4
							c0.9-0.9,2.2-1.3,4.1-1.3l23.5-0.1c2.6,0,5.1,0.3,7.4,0.9c2.3,0.6,4.2,1.6,5.9,2.9c1.7,1.3,3,3,3.9,5c0.9,2.1,1.4,4.5,1.4,7.4
							c0,1.6-0.2,3.2-0.7,4.9c-0.5,1.6-1.1,3.2-2.1,4.7c-0.9,1.5-2.1,2.9-3.6,4.1c-1.5,1.3-3.2,2.3-5.3,3l-0.1,0.6
							c3.6,1.4,6.2,3.5,7.7,6.3c1.5,2.8,2.3,5.9,2.3,9.3c0,3.8-0.7,7.3-2,10.2c-1.3,3-3.2,5.5-5.5,7.6c-2.4,2.1-5.2,3.6-8.4,4.7
							c-3.2,1.1-6.8,1.6-10.6,1.6H368.3z M377.5,86.4l-3.8,26.9h19c3.3,0,6.1-0.6,8.2-1.7c2.1-1.1,3.8-2.5,5.1-4.1
							c1.3-1.6,2.1-3.3,2.6-5.2c0.5-1.8,0.7-3.5,0.7-4.9c0-3.3-1-6-3.1-8.1c-2.1-2.1-5.3-3.1-9.7-3.1H377.5z M378.6,78.2h18.5
							c1.1,0,2.4-0.2,3.9-0.5c1.5-0.3,2.9-1,4.3-1.9c1.4-0.9,2.6-2.1,3.6-3.8c1-1.6,1.5-3.7,1.5-6.2c0-2.5-0.9-4.5-2.6-6.1
							c-1.7-1.5-4.2-2.3-7.3-2.3h-18.9L378.6,78.2z"/>
						<path class="st0" d="M463.2,48.8c2.9,0,5.6,0.4,7.9,1.3c2.3,0.9,4.3,2.1,6,3.7c1.6,1.6,2.9,3.4,3.7,5.6
							c0.8,2.2,1.2,4.6,1.2,7.2c0,5.5-1.3,10-4.1,13.4c-2.7,3.4-6.1,5.8-10.1,7.3v0.4c2.7,0.9,4.4,2.3,5.4,4c1,1.8,1.6,4,1.9,6.5
							l2.7,22c0.1,0.3,0,0.8-0.1,1.2c-0.1,0.4-0.6,0.7-1.4,0.7h-6.7c-0.3,0-0.7-0.1-1-0.2c-0.3-0.1-0.6-0.5-0.7-1.2l-2.4-19.9
							c-0.3-2-0.8-3.7-1.5-5c-0.7-1.3-1.6-2.4-2.7-3.1c-1.1-0.8-2.3-1.3-3.7-1.6c-1.4-0.3-2.9-0.4-4.6-0.4h-14.5l-4.2,29.4
							c-0.1,0.8-0.4,1.4-0.7,1.6c-0.3,0.2-0.9,0.4-1.6,0.4h-5.3c-0.7,0-1.2-0.1-1.6-0.4c-0.4-0.2-0.5-0.8-0.3-1.6l9.3-66
							c0.3-1.8,0.9-3.2,1.7-4c0.9-0.9,2.2-1.3,4.1-1.3H463.2z M443.4,57.7l-3.6,24.7h16.9c2.6,0,5-0.4,6.9-1.2
							c2-0.8,3.6-1.9,4.9-3.2c1.3-1.4,2.3-2.9,2.9-4.7c0.7-1.8,1-3.6,1-5.6c0-1.2-0.2-2.5-0.6-3.7c-0.4-1.2-1-2.2-1.9-3.2
							c-0.9-0.9-2.1-1.7-3.6-2.2c-1.5-0.6-3.3-0.8-5.5-0.8H443.4z"/>
						<path class="st0" d="M536.2,122.1c-0.6,0-1.1-0.1-1.5-0.2c-0.4-0.1-0.6-0.6-0.8-1.4l-2.8-15.4h-28.6l-7.2,15.4
							c-0.3,0.6-0.7,1-1,1.2c-0.3,0.2-0.8,0.4-1.4,0.4h-7.4c-0.7,0-1.1-0.2-1.2-0.6c-0.1-0.4-0.1-0.9,0.1-1.4L516.7,53
							c0.8-1.7,1.5-2.8,2.3-3.3c0.7-0.5,1.9-0.8,3.5-0.9h2.9c1.8,0,3,0.3,3.5,0.9c0.6,0.6,1,1.7,1.4,3.3l13.4,67.2
							c0.1,0.5,0.1,0.9-0.1,1.4c-0.2,0.4-0.6,0.6-1.3,0.6H536.2z M525.8,75l-2.6-15.2h-0.5L516,74.5l-10,22.3h23.5L525.8,75z"/>
						<path class="st0" d="M582.2,56.4c-4.5,0-7.9,1-10.2,3c-2.4,2-3.6,4.6-3.6,7.8c0,2.7,1.4,4.9,4.2,6.8c2.8,1.9,6.9,4.1,12.2,6.4
							c2.5,1.1,4.9,2.3,7.2,3.5c2.3,1.3,4.3,2.7,6,4.3c1.7,1.6,3.1,3.5,4.2,5.6c1,2.1,1.6,4.7,1.6,7.6c0,3.8-0.7,7.1-2.2,9.9
							c-1.5,2.7-3.4,5-5.9,6.7c-2.5,1.7-5.3,3-8.6,3.9c-3.3,0.8-6.7,1.3-10.3,1.3c-4,0-8.3-0.4-12.9-1.1c-4.6-0.7-8.8-2.1-12.6-4.2
							c-0.6-0.4-0.7-1.1-0.2-2.1l2.7-5.5c0.3-0.8,0.9-1,1.8-0.6c3.3,1.7,6.7,2.9,10.2,3.7c3.5,0.8,6.9,1.2,10,1.2
							c5.8,0,10.3-1,13.3-3.1c3-2.1,4.5-5.2,4.5-9.5c0-1.7-0.3-3.1-0.9-4.4c-0.6-1.3-1.6-2.4-2.8-3.4c-1.2-1-2.8-2-4.6-3
							c-1.8-0.9-4-2-6.4-3.1c-3.6-1.7-6.6-3.3-9.2-4.8c-2.6-1.5-4.8-3-6.4-4.6c-1.7-1.6-2.9-3.3-3.8-5.2c-0.8-1.8-1.3-3.9-1.3-6.2
							c0-6.3,2.2-11.2,6.6-14.6c4.4-3.4,10.5-5.1,18.1-5.1c3.3,0,6.9,0.3,10.6,1c3.7,0.7,7.1,1.7,10,3.1c0.4,0.1,0.6,0.3,0.7,0.6
							c0.1,0.2,0.1,0.6,0,1.2l-2.1,5.8c-0.3,0.5-0.5,0.8-0.7,0.8c-0.2,0.1-0.5,0-0.7-0.1c-3.3-1.4-6.5-2.4-9.7-3
							C587.8,56.7,584.9,56.4,582.2,56.4z"/>
						<path class="st0" d="M622.9,51c0.2-0.8,0.4-1.4,0.8-1.6c0.4-0.2,1-0.4,1.7-0.4h5.1c0.8,0,1.3,0.1,1.5,0.4
							c0.3,0.2,0.3,0.8,0.2,1.6l-9.8,69.2c-0.1,0.8-0.3,1.4-0.6,1.6c-0.3,0.2-0.8,0.4-1.6,0.4h-5.1c-0.8,0-1.3-0.1-1.7-0.4
							c-0.3-0.2-0.4-0.8-0.3-1.6L622.9,51z"/>
						<path class="st0" d="M646.9,50.8c0.1-0.8,0.4-1.4,0.8-1.6c0.4-0.2,0.9-0.4,1.6-0.4h5c0.8,0,1.3,0.1,1.6,0.4
							c0.3,0.3,0.4,0.8,0.3,1.6l-7.6,54c-0.8,5.7,1.6,8.6,7.2,8.6h28.2c0.6,0,1,0.2,1.1,0.5c0.1,0.3,0.2,0.7,0.1,1.3l-0.7,5.2
							c-0.1,0.6-0.3,1-0.5,1.3c-0.2,0.3-0.6,0.5-1.2,0.5h-28.9c-3.3,0-5.9-0.4-8-1.4c-2.1-0.9-3.6-2.1-4.7-3.6
							c-1.1-1.5-1.8-3.4-2-5.4c-0.3-2.1-0.3-4.3,0.1-6.7L646.9,50.8z"/>
					</g>
				</g>
				<g>
					<g>
						<path class="st0" d="M133.5,144.5c1.9,0,3.4,0.6,4.5,1.7c1.1,1.1,1.6,2.6,1.6,4.5c0,0.8-0.1,1.7-0.4,2.5
							c-0.2,0.9-0.7,1.7-1.3,2.5c-0.6,0.8-1.4,1.4-2.5,1.9c-1,0.5-2.3,0.8-4,0.8h-6.2l-1.3,9.1c0,0.2-0.1,0.4-0.2,0.4
							c-0.1,0.1-0.2,0.1-0.5,0.1H122c-0.2,0-0.3,0-0.4-0.1c-0.1-0.1-0.1-0.2-0.1-0.4l3-21.3c0.1-0.5,0.2-0.9,0.5-1.2
							c0.3-0.3,0.7-0.4,1.3-0.4H133.5z M126.9,146.9l-1.3,9.1h5.8c1.7,0,3.1-0.5,4.1-1.4c1-0.9,1.5-2.2,1.5-3.8
							c0-0.5-0.1-0.9-0.2-1.4c-0.1-0.5-0.4-0.9-0.7-1.2c-0.3-0.4-0.7-0.7-1.3-0.9c-0.5-0.2-1.2-0.3-2.1-0.3H126.9z"/>
						<path class="st0" d="M164,167.8c-0.1,0.1-0.2,0.2-0.5,0.2h-9.2c-1,0-1.9-0.1-2.5-0.4c-0.6-0.3-1.1-0.7-1.4-1.2
							c-0.3-0.5-0.5-1.1-0.6-1.7c-0.1-0.7,0-1.4,0.1-2.1l1.7-12.4c0.1-0.8,0.3-1.5,0.5-2.2c0.2-0.7,0.6-1.3,1-1.8
							c0.4-0.5,1-0.9,1.7-1.2c0.7-0.3,1.5-0.4,2.6-0.4h8.8c0.2,0,0.4,0.1,0.4,0.1c0.1,0.1,0.1,0.3,0,0.5l-0.2,1.2
							c0,0.2-0.1,0.4-0.1,0.5c-0.1,0.1-0.2,0.1-0.4,0.1h-8.5c-1,0-1.8,0.2-2.3,0.7c-0.5,0.5-0.8,1.2-1,2.1l-0.7,4.7H164
							c0.2,0,0.3,0,0.4,0.1c0.1,0.1,0.1,0.2,0,0.4l-0.2,1.1c0,0.2-0.1,0.3-0.2,0.4c-0.1,0.1-0.2,0.1-0.4,0.1h-10.5l-0.9,6.1
							c-0.1,0.8,0,1.5,0.3,2c0.3,0.5,1,0.8,2.1,0.8h9.2c0.2,0,0.4,0,0.4,0.1c0,0.1,0,0.2,0,0.5l-0.1,1.2
							C164.2,167.5,164.1,167.7,164,167.8z"/>
						<path class="st0" d="M185.1,146.5c-1.4,0-2.6,0.3-3.5,1c-0.9,0.7-1.4,1.6-1.4,2.8c0,0.5,0.1,1,0.4,1.3
							c0.2,0.4,0.6,0.8,1.1,1.1c0.5,0.3,1,0.7,1.7,1c0.7,0.3,1.4,0.6,2.2,1c0.9,0.4,1.7,0.7,2.5,1.2c0.8,0.4,1.4,0.9,2,1.4
							c0.6,0.5,1,1.1,1.3,1.8c0.3,0.7,0.5,1.4,0.5,2.3c0,1.2-0.2,2.2-0.7,3.1c-0.5,0.9-1.1,1.6-1.8,2.1c-0.8,0.6-1.7,1-2.7,1.3
							c-1.1,0.3-2.2,0.4-3.4,0.4c-0.6,0-1.2,0-1.9-0.1c-0.7,0-1.4-0.1-2.1-0.3c-0.7-0.1-1.4-0.3-2.1-0.5c-0.7-0.2-1.3-0.5-1.9-0.8
							c-0.2-0.1-0.2-0.3-0.1-0.6l0.7-1.5c0.1-0.2,0.3-0.2,0.5-0.2c1,0.6,2.1,1,3.3,1.2c1.2,0.3,2.3,0.4,3.3,0.4
							c0.9,0,1.7-0.1,2.5-0.2c0.8-0.2,1.4-0.4,1.9-0.8c0.5-0.3,0.9-0.8,1.2-1.4c0.3-0.6,0.4-1.2,0.4-2c0-0.6-0.1-1.1-0.3-1.5
							c-0.2-0.4-0.5-0.8-1-1.2c-0.4-0.4-0.9-0.7-1.6-1c-0.6-0.3-1.3-0.7-2.2-1c-1.1-0.5-2.1-1-2.9-1.4c-0.8-0.4-1.5-0.9-2-1.4
							c-0.5-0.5-0.9-1.1-1.2-1.6c-0.3-0.6-0.4-1.3-0.4-2c0-2,0.7-3.5,2.1-4.6c1.4-1.1,3.3-1.6,5.7-1.6c1,0,2.1,0.1,3.3,0.3
							c1.2,0.2,2.2,0.6,3.2,1.1c0.1,0,0.2,0.1,0.2,0.2c0,0.1,0,0.2,0,0.3l-0.6,1.6c-0.1,0.1-0.2,0.2-0.2,0.2c-0.1,0-0.1,0-0.2,0
							c-1.1-0.5-2.1-0.8-3.1-1C186.9,146.6,186,146.5,185.1,146.5z"/>
						<path class="st0" d="M214.3,144.2c2.7,0,4.7,0.8,6.1,2.4c1.4,1.6,2.1,3.8,2.1,6.7c0,2.1-0.2,4-0.7,5.8
							c-0.5,1.8-1.2,3.4-2.2,4.8c-1,1.4-2.2,2.4-3.6,3.3c-1.4,0.8-3.1,1.2-4.9,1.2c-2.7,0-4.7-0.8-6-2.3c-1.3-1.5-2-3.7-2-6.4
							c0-2.4,0.3-4.6,0.9-6.5c0.6-1.9,1.4-3.5,2.4-4.8c1-1.3,2.2-2.3,3.6-3C211.3,144.6,212.7,144.2,214.3,144.2z M214.2,146.5
							c-1.5,0-2.8,0.4-3.9,1.1c-1.1,0.7-2,1.7-2.7,2.9c-0.7,1.2-1.2,2.5-1.6,4.1c-0.3,1.5-0.5,3.1-0.5,4.7c0,1,0.1,1.9,0.3,2.7
							c0.2,0.8,0.5,1.5,1,2.1c0.5,0.6,1,1.1,1.8,1.4c0.7,0.3,1.6,0.5,2.7,0.5c1.5,0,2.8-0.4,3.9-1.1c1.1-0.7,2-1.7,2.7-2.9
							c0.7-1.2,1.2-2.5,1.6-4.1c0.4-1.5,0.5-3.1,0.5-4.7c0-1-0.1-1.8-0.3-2.7c-0.2-0.8-0.6-1.5-1-2.1c-0.5-0.6-1.1-1.1-1.8-1.4
							C216.2,146.7,215.3,146.5,214.2,146.5z M210,172.3c-0.2,0-0.3-0.2-0.3-0.5l0.2-1.3c0-0.3,0.2-0.4,0.5-0.4h3
							c1,0,1.9,0.1,2.7,0.2c0.8,0.1,1.5,0.3,2.1,0.5c0.6,0.2,1.1,0.4,1.6,0.6c0.5,0.2,0.8,0.4,1.1,0.6c0.1,0.1,0.2,0.2,0.2,0.2
							c0,0.1,0,0.1-0.1,0.3l-0.8,1.3c-0.1,0.1-0.2,0.2-0.3,0.2c-0.1,0-0.2-0.1-0.4-0.2c-0.8-0.4-1.7-0.8-2.8-1.1
							c-1.1-0.3-2.4-0.5-3.7-0.5H210z"/>
						<path class="st0" d="M236.4,145.1c0-0.2,0.1-0.4,0.2-0.4c0.1-0.1,0.3-0.1,0.4-0.1h1.4c0.2,0,0.4,0,0.4,0.1
							c0.1,0.1,0.1,0.2,0.1,0.4l-1.8,12.7c-0.2,1.4-0.3,2.7-0.3,3.7c0,1,0.2,1.9,0.6,2.6c0.4,0.7,1.1,1.2,2,1.5
							c0.9,0.3,2.2,0.5,3.8,0.5c0.4,0,1,0,1.9-0.1c0.9-0.1,1.9-0.2,2.9-0.4l2.9-20.5c0-0.2,0.1-0.4,0.2-0.4c0.1-0.1,0.2-0.1,0.4-0.1
							h1.5c0.2,0,0.4,0,0.4,0.1c0,0.1,0,0.2,0,0.4l-2.8,20.2c-0.1,0.7-0.3,1.3-0.7,1.7c-0.4,0.4-0.9,0.7-1.8,0.9
							c-0.8,0.2-1.7,0.3-2.8,0.3c-1,0.1-1.9,0.1-2.6,0.1c-1.8,0-3.4-0.2-4.5-0.5c-1.2-0.3-2.1-0.9-2.7-1.7c-0.6-0.8-1-1.9-1.2-3.2
							c-0.1-1.3-0.1-3,0.2-5L236.4,145.1z"/>
						<path class="st0" d="M267.1,145.1c0-0.2,0.1-0.4,0.2-0.4c0.1-0.1,0.3-0.1,0.5-0.1h1.4c0.2,0,0.3,0,0.4,0.1
							c0.1,0.1,0.1,0.2,0.1,0.4l-3.2,22.3c0,0.2-0.1,0.4-0.2,0.4c-0.1,0.1-0.2,0.1-0.4,0.1h-1.4c-0.2,0-0.3,0-0.4-0.1
							c-0.1-0.1-0.1-0.2-0.1-0.4L267.1,145.1z"/>
						<path class="st0" d="M289.5,146.5c-1.4,0-2.6,0.3-3.5,1c-0.9,0.7-1.4,1.6-1.4,2.8c0,0.5,0.1,1,0.4,1.3
							c0.2,0.4,0.6,0.8,1.1,1.1c0.5,0.3,1,0.7,1.7,1c0.7,0.3,1.4,0.6,2.2,1c0.9,0.4,1.7,0.7,2.5,1.2c0.8,0.4,1.4,0.9,2,1.4
							c0.6,0.5,1,1.1,1.3,1.8c0.3,0.7,0.5,1.4,0.5,2.3c0,1.2-0.2,2.2-0.7,3.1c-0.4,0.9-1.1,1.6-1.8,2.1c-0.8,0.6-1.7,1-2.7,1.3
							c-1.1,0.3-2.2,0.4-3.4,0.4c-0.6,0-1.2,0-1.9-0.1c-0.7,0-1.4-0.1-2.1-0.3c-0.7-0.1-1.4-0.3-2.1-0.5c-0.7-0.2-1.3-0.5-1.9-0.8
							c-0.2-0.1-0.2-0.3-0.1-0.6l0.7-1.5c0.1-0.2,0.3-0.2,0.5-0.2c1,0.6,2.1,1,3.3,1.2c1.2,0.3,2.3,0.4,3.3,0.4
							c0.9,0,1.8-0.1,2.5-0.2c0.8-0.2,1.4-0.4,1.9-0.8c0.5-0.3,1-0.8,1.2-1.4c0.3-0.6,0.4-1.2,0.4-2c0-0.6-0.1-1.1-0.3-1.5
							c-0.2-0.4-0.5-0.8-1-1.2c-0.4-0.4-0.9-0.7-1.6-1c-0.6-0.3-1.4-0.7-2.2-1c-1.1-0.5-2.1-1-2.9-1.4c-0.8-0.4-1.5-0.9-2-1.4
							c-0.5-0.5-0.9-1.1-1.2-1.6c-0.3-0.6-0.4-1.3-0.4-2c0-2,0.7-3.5,2.1-4.6c1.4-1.1,3.3-1.6,5.7-1.6c1,0,2.1,0.1,3.3,0.3
							c1.2,0.2,2.3,0.6,3.2,1.1c0.1,0,0.2,0.1,0.2,0.2c0,0.1,0,0.2,0,0.3l-0.6,1.6c-0.1,0.1-0.2,0.2-0.2,0.2c-0.1,0-0.1,0-0.2,0
							c-1-0.5-2.1-0.8-3.1-1C291.3,146.6,290.4,146.5,289.5,146.5z"/>
						<path class="st0" d="M321.4,167.9c-0.2,0-0.3,0-0.4-0.1c-0.1,0-0.2-0.2-0.2-0.4l-0.9-5.1h-9.7l-2.4,5.1
							c-0.1,0.2-0.2,0.3-0.3,0.3c-0.1,0.1-0.2,0.1-0.4,0.1h-2c-0.2,0-0.3-0.1-0.3-0.2c0-0.1,0-0.2,0-0.4l10.6-21.7
							c0.2-0.5,0.5-0.8,0.6-0.9c0.2-0.1,0.5-0.2,1-0.2h0.8c0.5,0,0.8,0.1,1,0.2c0.1,0.2,0.3,0.5,0.4,0.9l4.3,21.7c0,0.1,0,0.2,0,0.4
							c-0.1,0.1-0.2,0.2-0.3,0.2H321.4z M318.1,152.5l-0.9-5.1H317l-2.3,4.9l-3.5,7.7h8.2L318.1,152.5z"/>
						<path class="st0" d="M366.7,167.8c-0.1,0.1-0.2,0.2-0.5,0.2h-9.2c-1,0-1.9-0.1-2.5-0.4c-0.6-0.3-1.1-0.7-1.5-1.2
							c-0.3-0.5-0.5-1.1-0.6-1.7c-0.1-0.7,0-1.4,0.1-2.1l1.7-12.4c0.1-0.8,0.3-1.5,0.5-2.2c0.2-0.7,0.6-1.3,1-1.8
							c0.4-0.5,1-0.9,1.7-1.2c0.7-0.3,1.5-0.4,2.6-0.4h8.8c0.2,0,0.4,0.1,0.4,0.1c0.1,0.1,0.1,0.3,0.1,0.5l-0.2,1.2
							c0,0.2-0.1,0.4-0.1,0.5c-0.1,0.1-0.2,0.1-0.4,0.1h-8.5c-1,0-1.8,0.2-2.3,0.7c-0.5,0.5-0.8,1.2-1,2.1l-0.7,4.7h10.5
							c0.2,0,0.3,0,0.4,0.1c0.1,0.1,0.1,0.2,0.1,0.4l-0.2,1.1c0,0.2-0.1,0.3-0.1,0.4c-0.1,0.1-0.2,0.1-0.4,0.1h-10.5l-0.9,6.1
							c-0.1,0.8,0,1.5,0.3,2c0.3,0.5,1,0.8,2.1,0.8h9.2c0.2,0,0.4,0,0.4,0.1c0,0.1,0,0.2,0,0.5l-0.1,1.2
							C366.9,167.5,366.8,167.7,366.7,167.8z"/>
						<path class="st0" d="M407.5,144.2c0.4,0,0.9,0,1.4,0.1c0.5,0,1,0.1,1.6,0.2c0.5,0.1,1.1,0.2,1.6,0.4c0.5,0.2,1.1,0.4,1.6,0.7
							c0.1,0,0.2,0.1,0.2,0.2c0,0.1,0,0.2-0.1,0.5l-0.5,1.2c-0.1,0.3-0.3,0.3-0.6,0.2c-0.8-0.4-1.6-0.7-2.5-0.9
							c-0.9-0.1-1.7-0.2-2.4-0.2c-1.6,0-3,0.4-4,1.1c-1.1,0.7-2,1.7-2.6,2.8c-0.7,1.2-1.2,2.5-1.4,4c-0.3,1.5-0.4,3-0.4,4.6
							c0,1,0.1,2,0.3,2.9c0.2,0.9,0.5,1.6,1,2.2c0.5,0.6,1.1,1.1,1.9,1.4c0.8,0.3,1.7,0.5,2.9,0.5c1,0,1.9-0.1,2.9-0.4
							c1-0.3,1.9-0.6,2.8-0.9c0.2-0.1,0.4-0.1,0.4-0.1c0.1,0.1,0.1,0.2,0.2,0.3l0.6,1.2c0.1,0.2,0.1,0.4,0.1,0.5
							c-0.1,0.1-0.2,0.2-0.3,0.2c-1.2,0.6-2.5,1.1-3.8,1.3c-1.3,0.2-2.4,0.3-3.4,0.3c-2.7,0-4.7-0.8-6.1-2.3c-1.4-1.5-2.1-3.9-2.1-7
							c0-2.3,0.3-4.4,0.8-6.2c0.6-1.8,1.3-3.4,2.3-4.6c1-1.3,2.1-2.2,3.5-2.9C404.4,144.6,405.9,144.2,407.5,144.2z"/>
						<path class="st0" d="M435,144.2c2.7,0,4.7,0.8,6.1,2.4c1.4,1.6,2.1,3.8,2.1,6.7c0,2.1-0.2,4-0.7,5.8c-0.5,1.8-1.2,3.4-2.2,4.8
							c-1,1.4-2.1,2.4-3.6,3.3c-1.4,0.8-3.1,1.2-4.9,1.2c-2.7,0-4.7-0.8-6-2.3c-1.3-1.5-2-3.7-2-6.4c0-2.4,0.3-4.6,0.9-6.5
							c0.6-1.9,1.4-3.5,2.4-4.8c1-1.3,2.2-2.3,3.6-3C432,144.6,433.4,144.2,435,144.2z M434.9,146.5c-1.5,0-2.8,0.4-3.9,1.1
							c-1.1,0.7-2,1.7-2.7,2.9c-0.7,1.2-1.2,2.5-1.6,4.1c-0.3,1.5-0.5,3.1-0.5,4.7c0,1,0.1,1.9,0.3,2.7c0.2,0.8,0.5,1.5,1,2.1
							c0.5,0.6,1.1,1.1,1.8,1.4c0.7,0.3,1.7,0.5,2.7,0.5c1.5,0,2.8-0.4,3.9-1.1c1.1-0.7,2-1.7,2.7-2.9c0.7-1.2,1.2-2.5,1.6-4.1
							c0.4-1.5,0.5-3.1,0.5-4.7c0-1-0.1-1.8-0.3-2.7c-0.2-0.8-0.5-1.5-1-2.2c-0.5-0.6-1.1-1.1-1.8-1.4
							C436.9,146.7,436,146.5,434.9,146.5z"/>
						<path class="st0" d="M471.8,145.1c0-0.2,0.1-0.4,0.2-0.4c0.1-0.1,0.3-0.1,0.5-0.1h1.3c0.2,0,0.3,0,0.4,0.1
							c0.1,0.1,0.1,0.2,0.1,0.4l-3,21.4c-0.1,0.5-0.2,0.8-0.4,1.1c-0.2,0.3-0.6,0.4-1.1,0.4H469c-0.4,0-0.7-0.1-0.9-0.3
							c-0.2-0.2-0.3-0.5-0.5-1l-6.6-14.9l-1.7-3.9h-0.1l-2.7,19.5c0,0.2-0.1,0.4-0.2,0.4c-0.1,0.1-0.2,0.1-0.5,0.1h-1.3
							c-0.2,0-0.3,0-0.4-0.1c-0.1-0.1-0.1-0.2-0.1-0.4l3-21.4c0.1-0.5,0.2-0.9,0.5-1.1c0.2-0.2,0.6-0.4,1.2-0.4h0.7
							c0.4,0,0.7,0.1,0.9,0.3c0.2,0.2,0.3,0.5,0.5,0.9l6.2,14.1l2,4.8h0.1L471.8,145.1z"/>
						<path class="st0" d="M493.6,146.5c-1.4,0-2.6,0.3-3.5,1c-0.9,0.7-1.4,1.6-1.4,2.8c0,0.5,0.1,1,0.4,1.3
							c0.2,0.4,0.6,0.8,1.1,1.1c0.5,0.3,1,0.7,1.7,1c0.7,0.3,1.4,0.6,2.2,1c0.9,0.4,1.7,0.7,2.5,1.2c0.8,0.4,1.4,0.9,2,1.4
							c0.6,0.5,1,1.1,1.3,1.8c0.3,0.7,0.5,1.4,0.5,2.3c0,1.2-0.2,2.2-0.7,3.1c-0.5,0.9-1.1,1.6-1.8,2.1c-0.8,0.6-1.7,1-2.7,1.3
							c-1.1,0.3-2.2,0.4-3.4,0.4c-0.6,0-1.2,0-1.9-0.1c-0.7,0-1.4-0.1-2.1-0.3c-0.7-0.1-1.4-0.3-2.1-0.5c-0.7-0.2-1.3-0.5-1.9-0.8
							c-0.2-0.1-0.2-0.3-0.1-0.6l0.7-1.5c0.1-0.2,0.3-0.2,0.5-0.2c1,0.6,2.1,1,3.3,1.2c1.2,0.3,2.3,0.4,3.3,0.4
							c0.9,0,1.8-0.1,2.5-0.2c0.8-0.2,1.4-0.4,1.9-0.8c0.5-0.3,0.9-0.8,1.2-1.4c0.3-0.6,0.4-1.2,0.4-2c0-0.6-0.1-1.1-0.3-1.5
							c-0.2-0.4-0.5-0.8-0.9-1.2c-0.4-0.4-0.9-0.7-1.6-1c-0.6-0.3-1.3-0.7-2.2-1c-1.1-0.5-2.1-1-2.9-1.4c-0.8-0.4-1.5-0.9-2-1.4
							c-0.5-0.5-0.9-1.1-1.2-1.6c-0.3-0.6-0.4-1.3-0.4-2c0-2,0.7-3.5,2.1-4.6c1.4-1.1,3.3-1.6,5.7-1.6c1,0,2.1,0.1,3.3,0.3
							c1.2,0.2,2.2,0.6,3.2,1.1c0.1,0,0.2,0.1,0.2,0.2c0,0.1,0,0.2,0,0.3l-0.6,1.6c-0.1,0.1-0.2,0.2-0.2,0.2c-0.1,0-0.1,0-0.2,0
							c-1-0.5-2.1-0.8-3.1-1C495.4,146.6,494.5,146.5,493.6,146.5z"/>
						<path class="st0" d="M514,145.1c0-0.2,0.1-0.4,0.2-0.4c0.1-0.1,0.3-0.1,0.4-0.1h1.4c0.2,0,0.4,0,0.4,0.1
							c0.1,0.1,0.1,0.2,0.1,0.4l-1.8,12.7c-0.2,1.4-0.3,2.7-0.3,3.7c0,1,0.2,1.9,0.7,2.6c0.4,0.7,1.1,1.2,2,1.5
							c0.9,0.3,2.2,0.5,3.8,0.5c0.4,0,1,0,1.9-0.1c0.9-0.1,1.9-0.2,2.9-0.4l2.9-20.5c0-0.2,0.1-0.4,0.2-0.4c0.1-0.1,0.2-0.1,0.4-0.1
							h1.5c0.2,0,0.4,0,0.4,0.1c0,0.1,0,0.2,0,0.4l-2.8,20.2c-0.1,0.7-0.3,1.3-0.7,1.7c-0.4,0.4-0.9,0.7-1.8,0.9
							c-0.8,0.2-1.7,0.3-2.8,0.3c-1,0.1-1.9,0.1-2.6,0.1c-1.8,0-3.4-0.2-4.5-0.5c-1.2-0.3-2.1-0.9-2.7-1.7c-0.6-0.8-1-1.9-1.2-3.2
							c-0.1-1.3-0.1-3,0.2-5L514,145.1z"/>
						<path class="st0" d="M544.2,145.1c0-0.2,0.1-0.4,0.2-0.5c0.1-0.1,0.3-0.1,0.4-0.1h1.3c0.2,0,0.4,0,0.4,0.1
							c0.1,0.1,0.1,0.2,0,0.5l-2.5,17.5c-0.1,1,0,1.8,0.4,2.3c0.4,0.5,1.1,0.8,2.1,0.8h9c0.2,0,0.3,0,0.3,0.1c0,0.1,0.1,0.2,0,0.4
							l-0.2,1.4c0,0.2-0.1,0.3-0.1,0.4c0,0.1-0.2,0.1-0.3,0.1h-9.2c-1,0-1.8-0.1-2.5-0.4c-0.6-0.3-1.1-0.7-1.4-1.1
							c-0.3-0.5-0.5-1-0.6-1.7c-0.1-0.6-0.1-1.3,0-2.1L544.2,145.1z"/>
						<path class="st0" d="M572.5,146.8h-6.4c-0.2,0-0.3,0-0.3-0.1c0-0.1-0.1-0.2,0-0.4l0.2-1.4c0-0.2,0.1-0.3,0.1-0.4
							c0.1-0.1,0.2-0.1,0.4-0.1h15.7c0.3,0,0.4,0.2,0.3,0.5l-0.2,1.4c0,0.2-0.1,0.3-0.1,0.4c-0.1,0.1-0.2,0.1-0.4,0.1h-6.7
							l-2.9,20.6c0,0.2-0.1,0.4-0.2,0.4c-0.1,0.1-0.2,0.1-0.4,0.1h-1.4c-0.2,0-0.4,0-0.4-0.1c-0.1-0.1-0.1-0.2-0.1-0.4L572.5,146.8z
							"/>
						<path class="st0" d="M601.8,144.2c2.7,0,4.7,0.8,6.1,2.4c1.4,1.6,2.1,3.8,2.1,6.7c0,2.1-0.2,4-0.7,5.8
							c-0.5,1.8-1.2,3.4-2.2,4.8c-1,1.4-2.1,2.4-3.6,3.3c-1.4,0.8-3.1,1.2-4.9,1.2c-2.7,0-4.7-0.8-6-2.3c-1.3-1.5-2-3.7-2-6.4
							c0-2.4,0.3-4.6,0.9-6.5c0.6-1.9,1.4-3.5,2.4-4.8c1-1.3,2.2-2.3,3.6-3C598.8,144.6,600.2,144.2,601.8,144.2z M601.7,146.5
							c-1.5,0-2.8,0.4-3.9,1.1c-1.1,0.7-2,1.7-2.7,2.9c-0.7,1.2-1.2,2.5-1.6,4.1c-0.3,1.5-0.5,3.1-0.5,4.7c0,1,0.1,1.9,0.3,2.7
							c0.2,0.8,0.5,1.5,1,2.1c0.4,0.6,1.1,1.1,1.8,1.4c0.8,0.3,1.7,0.5,2.7,0.5c1.5,0,2.8-0.4,3.9-1.1c1.1-0.7,2-1.7,2.7-2.9
							c0.7-1.2,1.2-2.5,1.6-4.1c0.4-1.5,0.5-3.1,0.5-4.7c0-1-0.1-1.8-0.3-2.7c-0.2-0.8-0.5-1.5-1-2.2c-0.5-0.6-1.1-1.1-1.8-1.4
							C603.7,146.7,602.8,146.5,601.7,146.5z"/>
						<path class="st0" d="M632.8,144.5c0.9,0,1.8,0.1,2.5,0.4c0.7,0.3,1.3,0.7,1.8,1.2c0.5,0.5,0.9,1.1,1.1,1.8
							c0.3,0.7,0.4,1.4,0.4,2.2c0,1.7-0.4,3.2-1.3,4.3c-0.9,1.1-2,1.9-3.3,2.4v0.1c0.8,0.3,1.4,0.7,1.7,1.3c0.3,0.6,0.5,1.3,0.6,2.1
							l0.9,7.1c0,0.1,0,0.2,0,0.4c0,0.1-0.2,0.2-0.4,0.2h-1.8c-0.1,0-0.2,0-0.3-0.1c-0.1,0-0.2-0.2-0.2-0.3l-0.8-6.4
							c-0.1-0.7-0.3-1.2-0.5-1.7c-0.2-0.4-0.5-0.8-0.9-1c-0.4-0.3-0.8-0.4-1.2-0.5c-0.5-0.1-1-0.2-1.5-0.2h-5.1l-1.4,9.7
							c0,0.2-0.1,0.4-0.2,0.4c-0.1,0.1-0.2,0.1-0.5,0.1h-1.4c-0.2,0-0.3,0-0.4-0.1c-0.1-0.1-0.1-0.2-0.1-0.4l3-21.3
							c0.1-0.5,0.2-0.9,0.5-1.2c0.3-0.3,0.7-0.4,1.3-0.4H632.8z M626.3,146.9l-1.2,8.5h5.8c0.9,0,1.6-0.1,2.3-0.4
							c0.7-0.3,1.2-0.6,1.7-1.1c0.5-0.5,0.8-1,1-1.6c0.2-0.6,0.4-1.3,0.4-2c0-0.9-0.3-1.7-0.9-2.4c-0.6-0.7-1.6-1-3-1H626.3z"/>
						<path class="st0" d="M652.7,145.1c0-0.2,0.1-0.4,0.2-0.4c0.1-0.1,0.3-0.1,0.5-0.1h1.4c0.2,0,0.3,0,0.4,0.1
							c0.1,0.1,0.1,0.2,0.1,0.4l-3.2,22.3c0,0.2-0.1,0.4-0.2,0.4c-0.1,0.1-0.2,0.1-0.4,0.1h-1.4c-0.2,0-0.4,0-0.5-0.1
							c-0.1-0.1-0.1-0.2-0.1-0.4L652.7,145.1z"/>
						<path class="st0" d="M680.5,167.9c-0.2,0-0.3,0-0.4-0.1c-0.1,0-0.2-0.2-0.2-0.4l-0.9-5.1h-9.6l-2.4,5.1
							c-0.1,0.2-0.2,0.3-0.2,0.3c-0.1,0.1-0.2,0.1-0.4,0.1h-2c-0.2,0-0.3-0.1-0.3-0.2c0-0.1,0-0.2,0-0.4l10.5-21.7
							c0.3-0.5,0.5-0.8,0.7-0.9c0.2-0.1,0.5-0.2,1-0.2h0.8c0.5,0,0.8,0.1,1,0.2c0.1,0.2,0.3,0.5,0.4,0.9l4.3,21.7c0,0.1,0,0.2,0,0.4
							c-0.1,0.1-0.2,0.2-0.3,0.2H680.5z M677.2,152.5l-0.9-5.1h-0.1l-2.3,4.9l-3.5,7.7h8.2L677.2,152.5z"/>
					</g>
				</g>
			</g>
		</g>
	</g>
	<g>
		<path class="st1" d="M56.5,94.6c-46.7,57.6-7.7,101.5-7.7,101.5c-3-37.6,22.8-40.6,41.2-68.2c18.4-27.6-1.7-47.8-1.7-47.8
			s1.9,11.1-22.9,33.2c-24.9,22.3-21.9,40.5-21,43.9c-12-38.1,44.1-57.7,41.8-95.3c-2.1-34.2-21.3-47.6-21.3-47.6
			S87.7,56.2,56.5,94.6z"/>
		<path class="st1" d="M41.3,101.5C88,43.9,49,0,49,0c3,37.6-22.8,40.7-41.2,68.2c-18.4,27.6,1.7,47.8,1.7,47.8S7.6,105,32.3,82.9
			c24.9-22.3,21.9-40.5,21-43.9c12,38.1-44.1,57.7-41.8,95.3c2.1,34.2,21.3,47.6,21.3,47.6S10.1,140,41.3,101.5z"/>
	</g>
</g>
</svg>
