<?xml version="1.0" encoding="utf-8"?>
<!-- Generator: Adobe Illustrator 16.0.4, SVG Export Plug-In . SVG Version: 6.00 Build 0)  -->
<!DOCTYPE svg PUBLIC "-//W3C//DTD SVG 1.1//EN" "http://www.w3.org/Graphics/SVG/1.1/DTD/svg11.dtd">
<svg version="1.1" id="Layer_1" xmlns="http://www.w3.org/2000/svg" xmlns:xlink="http://www.w3.org/1999/xlink" x="0px" y="0px"
	 width="307.562px" height="309px" viewBox="0 0 307.562 309" enable-background="new 0 0 307.562 309" xml:space="preserve">
<g>
	<g>
		<path fill="#FFFFFF" d="M63.374,226.83c0.491,0.6,0.918,1.07,1.287,1.41c0.367,0.342,0.7,0.576,0.999,0.704
			c0.297,0.128,0.575,0.166,0.828,0.113c0.253-0.055,0.505-0.182,0.754-0.384c0.294-0.242,0.472-0.557,0.525-0.947
			c0.057-0.393-0.148-0.874-0.612-1.443c-0.451-0.553-1.064-0.917-1.84-1.092c-0.776-0.175-1.678,0.029-2.704,0.609
			c0.123,0.182,0.25,0.36,0.38,0.534C63.121,226.513,63.25,226.676,63.374,226.83z"/>
		<path fill="#FFFFFF" d="M207.616,256.276c-0.396-0.799-0.875-1.365-1.438-1.696c-0.561-0.332-1.243-0.299-2.044,0.095
			c-0.535,0.265-0.94,0.632-1.218,1.101c-0.276,0.471-0.436,1.014-0.474,1.63c-0.037,0.615,0.033,1.289,0.217,2.018
			c0.183,0.729,0.469,1.485,0.855,2.269c0.44,0.893,0.946,1.478,1.517,1.759c0.571,0.284,1.239,0.237,2.006-0.144
			c0.551-0.273,0.959-0.656,1.224-1.154c0.264-0.495,0.407-1.058,0.428-1.688c0.021-0.63-0.063-1.303-0.249-2.018
			C208.252,257.729,207.978,257.009,207.616,256.276z"/>
		<path fill="#FFFFFF" d="M109.587,257.734c-0.655-0.287-1.367-0.332-2.139-0.136c-0.77,0.196-1.48,0.789-2.128,1.773
			c0.19,0.106,0.385,0.208,0.581,0.304c0.195,0.099,0.385,0.188,0.566,0.268c0.709,0.309,1.305,0.535,1.787,0.67
			s0.885,0.194,1.21,0.172c0.323-0.022,0.586-0.115,0.788-0.279c0.202-0.16,0.367-0.391,0.497-0.684
			c0.152-0.348,0.166-0.709,0.036-1.083C110.657,258.364,110.257,258.03,109.587,257.734z"/>
		<path fill="#FFFFFF" d="M194.372,42.201c-0.599-0.196-1.228-0.175-1.889,0.065c-0.658,0.24-1.23,0.819-1.714,1.738
			c0.177,0.078,0.354,0.149,0.535,0.219c0.181,0.067,0.355,0.129,0.521,0.184c0.65,0.212,1.19,0.356,1.627,0.435
			c0.437,0.077,0.793,0.092,1.077,0.046c0.281-0.048,0.505-0.15,0.667-0.312c0.163-0.161,0.289-0.375,0.378-0.645
			c0.104-0.318,0.084-0.636-0.062-0.953C195.368,42.662,194.989,42.402,194.372,42.201z"/>
		<path fill="#FFFFFF" d="M136.499,39.789c0.227-0.177,0.373-0.374,0.44-0.592c0.067-0.22,0.075-0.467,0.024-0.746
			c-0.059-0.331-0.229-0.6-0.503-0.81c-0.278-0.212-0.737-0.259-1.373-0.145c-0.622,0.111-1.165,0.43-1.63,0.954
			c-0.468,0.524-0.695,1.306-0.688,2.345c0.194-0.017,0.387-0.038,0.577-0.063c0.192-0.024,0.371-0.054,0.546-0.085
			c0.67-0.121,1.216-0.251,1.636-0.389C135.948,40.12,136.272,39.963,136.499,39.789z"/>
		<polygon fill="#FFFFFF" points="40.495,133.415 41.345,129.515 37.984,129.267 34.233,128.851 34.193,129.03 37.542,131.293 		"/>
		<path fill="#FFFFFF" d="M262.98,118.872c-0.245,0.535-0.251,1.151-0.015,1.848c0.077,0.233,0.203,0.537,0.375,0.914
			c0.172,0.375,0.395,0.749,0.667,1.118l6.872-1.311c0.006-0.317-0.031-0.653-0.104-1.017c-0.076-0.362-0.152-0.652-0.223-0.868
			c-0.152-0.448-0.377-0.857-0.675-1.226c-0.302-0.371-0.688-0.657-1.163-0.858c-0.473-0.2-1.039-0.303-1.694-0.304
			c-0.655,0-1.433,0.148-2.327,0.45C263.798,117.92,263.226,118.337,262.98,118.872z"/>
		<path fill="#FFFFFF" d="M44.047,116.495c0.503,0.421,1.195,0.798,2.08,1.137c0.88,0.342,1.587,0.383,2.118,0.128
			c0.529-0.257,0.926-0.729,1.19-1.415c0.087-0.229,0.186-0.542,0.29-0.942c0.11-0.399,0.174-0.828,0.202-1.287l-6.132-3.372
			c-0.205,0.241-0.395,0.524-0.568,0.852c-0.172,0.327-0.298,0.599-0.38,0.811c-0.169,0.44-0.256,0.899-0.262,1.375
			c-0.006,0.478,0.11,0.943,0.346,1.401C43.171,115.637,43.54,116.076,44.047,116.495z"/>
		<path fill="#FFFFFF" d="M262.854,101.942c-0.416-0.24-0.896-0.375-1.441-0.403c-0.543-0.027-1.137,0.043-1.775,0.211
			c-0.642,0.168-1.307,0.426-1.993,0.775c-0.782,0.396-1.294,0.847-1.536,1.354c-0.245,0.507-0.194,1.096,0.146,1.767
			c0.244,0.483,0.588,0.84,1.027,1.068c0.438,0.229,0.938,0.35,1.493,0.361s1.148-0.067,1.776-0.239
			c0.63-0.173,1.265-0.421,1.906-0.746c0.703-0.356,1.195-0.784,1.483-1.282c0.286-0.5,0.253-1.102-0.105-1.803
			C263.601,102.535,263.271,102.182,262.854,101.942z"/>
		<path fill="#FFFFFF" d="M243.286,85.024c0.481,0.124,0.994,0.128,1.537,0.015c0.545-0.113,1.105-0.325,1.681-0.635
			c0.573-0.31,1.133-0.693,1.685-1.154c0.605-0.506,0.991-1.034,1.157-1.584c0.167-0.552-0.003-1.13-0.51-1.733
			c-0.335-0.403-0.733-0.675-1.192-0.813c-0.462-0.142-0.96-0.163-1.498-0.068c-0.534,0.096-1.097,0.297-1.682,0.606
			c-0.588,0.308-1.178,0.71-1.769,1.205c-0.67,0.562-1.066,1.116-1.19,1.665c-0.124,0.547,0.057,1.11,0.54,1.688
			C242.395,84.632,242.808,84.9,243.286,85.024z"/>
		<path fill="#FFFFFF" d="M264.649,198.857c-0.396-0.492-0.896-0.948-1.504-1.37c-0.607-0.423-1.287-0.794-2.035-1.113
			c-0.821-0.351-1.554-0.469-2.195-0.356c-0.643,0.115-1.14,0.582-1.491,1.404c-0.233,0.547-0.304,1.09-0.21,1.627
			c0.095,0.537,0.328,1.053,0.699,1.545c0.372,0.495,0.866,0.959,1.479,1.394c0.612,0.436,1.321,0.824,2.125,1.168
			c0.912,0.39,1.678,0.507,2.294,0.348c0.618-0.156,1.095-0.626,1.432-1.412c0.242-0.565,0.302-1.123,0.181-1.672
			C265.3,199.871,265.042,199.35,264.649,198.857z"/>
		<path fill="#FFFFFF" d="M154.341,9.271c-79.378,0-143.73,64.353-143.73,143.73c0,79.379,64.353,143.728,143.73,143.728
			s143.727-64.349,143.727-143.728C298.067,73.624,233.719,9.271,154.341,9.271z M276.218,128.955
			c0.082,0.064,0.139,0.165,0.164,0.303l0.516,2.79c0.045,0.24,0.045,0.409,0,0.506c-0.045,0.099-0.161,0.174-0.347,0.226
			l-5.087,1.66l-4.389,1.398l0.028,0.154l4.924,1.067l5.489,1.229c0.204,0.052,0.354,0.113,0.447,0.185
			c0.093,0.072,0.162,0.226,0.207,0.469l0.578,3.124c0.025,0.137,0.006,0.236-0.053,0.291c-0.062,0.056-0.17,0.053-0.324-0.008
			l-16.824-4.342c-1.199-0.312-2.13-0.76-2.797-1.34c-0.671-0.579-1.112-1.463-1.331-2.65c-0.09-0.483-0.141-1.021-0.152-1.615
			c-0.011-0.596,0.022-1.158,0.102-1.689c0.042-0.255,0.096-0.408,0.157-0.455c0.062-0.047,0.203-0.053,0.422-0.025l2.062,0.181
			c0.237,0.027,0.367,0.083,0.392,0.168s0.031,0.235,0.017,0.45c-0.039,0.364-0.059,0.723-0.057,1.08
			c0.007,0.354,0.026,0.635,0.064,0.842c0.052,0.275,0.122,0.512,0.213,0.71c0.086,0.196,0.208,0.365,0.359,0.506
			c0.149,0.14,0.342,0.262,0.574,0.361c0.23,0.101,0.526,0.196,0.881,0.292l1.515,0.389l-0.109-0.594
			c-0.071-0.381-0.052-0.659,0.058-0.839c0.11-0.181,0.389-0.358,0.837-0.529l11.07-4.261
			C276.005,128.901,276.135,128.89,276.218,128.955z M272.018,115.672c0.687,0.775,1.235,1.778,1.649,3.006
			c0.289,0.862,0.515,1.771,0.678,2.723c0.163,0.951,0.185,1.836,0.069,2.648c-0.053,0.222-0.126,0.381-0.212,0.475
			c-0.088,0.095-0.229,0.156-0.424,0.184l-12.186,2.236c-0.853,0.156-1.656,0.22-2.417,0.188c-0.757-0.031-1.46-0.197-2.104-0.496
			c-0.647-0.3-1.222-0.766-1.729-1.389c-0.504-0.625-0.932-1.459-1.283-2.505c-0.261-0.78-0.459-1.625-0.589-2.53
			c-0.13-0.909-0.183-1.688-0.163-2.342c0.039-0.272,0.102-0.431,0.186-0.479c0.088-0.048,0.206-0.066,0.354-0.063l2.177-0.039
			c0.211,0.023,0.345,0.068,0.408,0.142c0.059,0.071,0.096,0.234,0.105,0.49c0.015,0.476,0.054,1.039,0.124,1.688
			c0.074,0.649,0.192,1.226,0.357,1.722c0.175,0.516,0.363,0.932,0.571,1.25s0.454,0.549,0.735,0.695
			c0.278,0.146,0.622,0.216,1.024,0.211c0.405-0.009,0.895-0.062,1.468-0.161c-0.274-0.388-0.528-0.821-0.755-1.3
			c-0.224-0.479-0.418-0.956-0.578-1.438c-0.284-0.849-0.403-1.611-0.354-2.293c0.048-0.682,0.236-1.288,0.565-1.823
			c0.326-0.536,0.785-0.998,1.376-1.39c0.589-0.393,1.271-0.72,2.052-0.98c1.214-0.407,2.366-0.628,3.461-0.665
			c1.098-0.035,2.105,0.136,3.027,0.508C270.528,114.32,271.334,114.895,272.018,115.672z M266.864,101.835
			c0.854,1.682,1.047,3.167,0.58,4.451s-1.52,2.344-3.158,3.176c-1.17,0.594-2.307,0.984-3.41,1.172
			c-1.103,0.188-2.134,0.167-3.093-0.062c-0.96-0.227-1.836-0.66-2.621-1.301c-0.784-0.64-1.446-1.488-1.984-2.549
			c-0.862-1.698-1.082-3.167-0.663-4.41c0.419-1.241,1.412-2.258,2.972-3.05c1.28-0.65,2.505-1.065,3.67-1.245
			c1.165-0.179,2.233-0.15,3.21,0.09c0.975,0.239,1.844,0.676,2.606,1.308S266.366,100.854,266.864,101.835z M262.823,85.715
			c0.225-0.104,0.379-0.13,0.469-0.073c0.092,0.056,0.189,0.163,0.296,0.324l1.402,2.127c0.106,0.161,0.157,0.294,0.155,0.402
			c-0.004,0.105-0.093,0.197-0.273,0.273l-13.292,6.324c-0.394,0.196-0.634,0.375-0.715,0.535c-0.085,0.158-0.02,0.398,0.191,0.722
			c0.078,0.116,0.167,0.242,0.265,0.376c0.099,0.134,0.194,0.255,0.287,0.361c0.101,0.123,0.148,0.212,0.144,0.269
			c-0.006,0.054-0.067,0.133-0.188,0.234l-1.615,1.413c-0.124,0.102-0.236,0.144-0.342,0.13c-0.104-0.015-0.229-0.088-0.382-0.221
			c-0.366-0.302-0.715-0.654-1.044-1.056c-0.327-0.403-0.607-0.779-0.839-1.13c-0.317-0.482-0.539-0.929-0.663-1.34
			c-0.126-0.409-0.13-0.797-0.01-1.157c0.115-0.362,0.361-0.7,0.729-1.016c0.367-0.317,0.888-0.635,1.56-0.953L262.823,85.715z
			 M64.283,153.002c0-49.735,40.319-90.057,90.057-90.057c49.734,0,90.056,40.321,90.056,90.057
			c0,49.737-40.321,90.057-90.056,90.057C104.603,243.059,64.283,202.739,64.283,153.002z M67.84,212.146
			c-0.126,0.548-0.45,0.984-0.974,1.311c-0.335,0.211-0.69,0.338-1.061,0.383s-0.735,0.02-1.096-0.07
			c-0.361-0.09-0.691-0.242-0.986-0.453c-0.299-0.213-0.535-0.463-0.715-0.749c-0.326-0.521-0.428-1.049-0.304-1.582
			c0.122-0.534,0.436-0.958,0.941-1.274c0.337-0.209,0.692-0.346,1.065-0.403c0.372-0.058,0.737-0.046,1.094,0.037
			c0.355,0.081,0.687,0.227,0.991,0.433c0.305,0.207,0.553,0.464,0.741,0.766C67.864,211.066,67.964,211.601,67.84,212.146z
			 M242.858,205.29c0.044-0.365,0.158-0.702,0.34-1.01c0.312-0.529,0.743-0.863,1.285-1.001c0.545-0.143,1.08-0.054,1.611,0.26
			c0.342,0.203,0.617,0.457,0.826,0.767c0.209,0.311,0.357,0.645,0.443,1.007c0.084,0.361,0.102,0.725,0.05,1.084
			c-0.052,0.362-0.166,0.687-0.337,0.977c-0.313,0.53-0.736,0.863-1.267,1c-0.529,0.135-1.052,0.052-1.563-0.251
			c-0.342-0.202-0.624-0.458-0.849-0.763c-0.222-0.304-0.379-0.633-0.47-0.987C242.839,206.019,242.815,205.658,242.858,205.29z
			 M246.301,75.492c1.005,0.014,1.95,0.241,2.835,0.685c0.885,0.444,1.682,1.089,2.388,1.933c1.21,1.446,1.735,2.849,1.57,4.207
			c-0.166,1.356-0.953,2.625-2.363,3.805c-1.006,0.843-2.027,1.48-3.057,1.911c-1.032,0.432-2.043,0.645-3.028,0.638
			c-0.988-0.005-1.936-0.23-2.846-0.677c-0.908-0.446-1.747-1.124-2.51-2.035c-1.221-1.46-1.767-2.842-1.637-4.147
			c0.129-1.305,0.862-2.519,2.206-3.643c1.1-0.921,2.198-1.603,3.292-2.039C244.247,75.691,245.296,75.479,246.301,75.492z
			 M234.185,61.943c0.437-0.079,0.923,0.039,1.462,0.355c0.155,0.09,0.354,0.228,0.599,0.412c0.245,0.185,0.513,0.387,0.797,0.607
			c0.284,0.219,0.561,0.436,0.827,0.651c0.267,0.215,0.498,0.408,0.691,0.584c0.876,0.781,1.549,1.547,2.019,2.296
			c0.467,0.748,0.712,1.488,0.729,2.219c0.015,0.73-0.207,1.471-0.667,2.223c-0.462,0.75-1.17,1.53-2.129,2.341l-5.271,4.479
			c-0.155,0.12-0.276,0.184-0.363,0.188c-0.087,0.006-0.22-0.074-0.402-0.237l-1.959-1.751c-0.144-0.128-0.228-0.244-0.251-0.349
			c-0.025-0.104,0.04-0.216,0.193-0.336l5.471-4.621c0.438-0.383,0.785-0.741,1.045-1.072c0.262-0.33,0.417-0.668,0.465-1.012
			c0.051-0.343-0.02-0.692-0.206-1.048c-0.188-0.354-0.509-0.737-0.968-1.146c-0.129-0.116-0.312-0.273-0.545-0.471
			c-0.234-0.198-0.508-0.388-0.813-0.568l-8.01,6.753c-0.155,0.119-0.275,0.183-0.363,0.188c-0.085,0.004-0.22-0.075-0.403-0.238
			l-1.938-1.731c-0.144-0.13-0.228-0.245-0.249-0.351c-0.026-0.104,0.038-0.215,0.192-0.335l8.702-7.331
			C233.3,62.258,233.749,62.024,234.185,61.943z M223.663,46.976l2.189,1.447c0.191,0.126,0.293,0.234,0.303,0.326
			c0.016,0.092-0.047,0.209-0.183,0.351l-3.306,3.766c0.228,0.066,0.478,0.157,0.749,0.273c0.269,0.114,0.537,0.24,0.808,0.375
			c0.267,0.135,0.518,0.27,0.754,0.404c0.235,0.136,0.441,0.261,0.616,0.376c1.533,1.014,2.321,2.141,2.36,3.384
			s-0.562,2.567-1.805,3.971l-5.244,5.944c-0.146,0.156-0.259,0.238-0.338,0.248c-0.082,0.011-0.223-0.052-0.429-0.187l-2.191-1.447
			c-0.161-0.106-0.26-0.209-0.298-0.31c-0.04-0.099,0.008-0.218,0.143-0.36l4.929-5.557c0.308-0.341,0.567-0.67,0.776-0.983
			c0.205-0.313,0.326-0.616,0.363-0.908c0.033-0.291-0.028-0.579-0.186-0.861c-0.161-0.284-0.451-0.565-0.876-0.845
			c-0.13-0.088-0.293-0.184-0.485-0.29c-0.192-0.105-0.393-0.213-0.606-0.321c-0.211-0.108-0.419-0.204-0.629-0.288
			c-0.204-0.085-0.396-0.153-0.57-0.206l-6.703,7.627c-0.146,0.154-0.263,0.235-0.349,0.241c-0.088,0.005-0.229-0.055-0.417-0.181
			l-2.192-1.446c-0.16-0.107-0.256-0.207-0.288-0.301c-0.032-0.095,0.021-0.213,0.155-0.355l12.191-13.789
			C223.131,46.825,223.384,46.792,223.663,46.976z M200.732,50.441c0.614-1.277,1.3-2.335,2.06-3.176
			c0.761-0.84,1.565-1.456,2.42-1.853c0.856-0.395,1.748-0.579,2.674-0.552s1.863,0.268,2.809,0.723
			c0.631,0.303,1.253,0.678,1.863,1.126c0.611,0.447,1.105,0.92,1.491,1.415c0.104,0.147,0.147,0.27,0.13,0.369
			c-0.02,0.098-0.104,0.226-0.26,0.385l-1.549,1.528c-0.131,0.15-0.258,0.203-0.377,0.152c-0.125-0.048-0.273-0.153-0.448-0.315
			c-0.341-0.3-0.703-0.576-1.087-0.827c-0.385-0.253-0.743-0.459-1.074-0.617c-0.521-0.251-1.021-0.351-1.5-0.3
			c-0.481,0.052-0.938,0.221-1.369,0.51c-0.43,0.289-0.827,0.67-1.19,1.148c-0.364,0.475-0.689,1.013-0.979,1.61
			c-0.175,0.364-0.296,0.709-0.362,1.036c-0.071,0.325-0.074,0.634-0.009,0.927c0.062,0.293,0.202,0.564,0.423,0.816
			c0.219,0.25,0.533,0.473,0.944,0.671c0.503,0.242,1.021,0.422,1.548,0.538c0.527,0.118,1.002,0.199,1.424,0.249
			c0.207,0.02,0.342,0.057,0.414,0.109c0.071,0.055,0.09,0.179,0.054,0.376l-0.236,2.128c-0.028,0.182-0.076,0.314-0.146,0.397
			c-0.07,0.082-0.222,0.126-0.456,0.13c-0.884,0.021-1.754-0.099-2.608-0.363c-0.854-0.264-1.579-0.54-2.179-0.828
			c-1.606-0.771-2.62-1.781-3.043-3.033C199.69,53.672,199.896,52.178,200.732,50.441z M189.9,39.783
			c0.853-0.502,1.76-0.795,2.718-0.878c0.957-0.083,1.934,0.039,2.933,0.366c1.664,0.544,2.787,1.284,3.362,2.22
			c0.581,0.935,0.68,1.977,0.305,3.124c-0.513,1.564-1.387,2.562-2.625,2.996c-1.235,0.434-2.922,0.301-5.049-0.396
			c-0.318-0.104-0.636-0.216-0.954-0.338c-0.318-0.123-0.653-0.271-1.002-0.44c-0.405,0.846-0.501,1.473-0.286,1.884
			c0.216,0.411,0.787,0.778,1.712,1.099c0.2,0.065,0.435,0.124,0.704,0.176c0.268,0.051,0.549,0.092,0.842,0.123
			c0.296,0.032,0.589,0.054,0.878,0.066c0.291,0.013,0.558,0.013,0.803-0.001c0.219-0.001,0.36,0.021,0.419,0.068
			c0.057,0.047,0.099,0.147,0.121,0.303l0.13,2.226c0.04,0.271-0.119,0.44-0.471,0.508c-0.399,0.092-0.833,0.135-1.301,0.128
			c-0.467-0.006-0.937-0.034-1.406-0.087c-0.473-0.053-0.927-0.133-1.359-0.239c-0.437-0.104-0.819-0.212-1.153-0.32
			c-1.58-0.518-2.686-1.345-3.318-2.481c-0.631-1.138-0.668-2.562-0.107-4.276c0.477-1.447,1.064-2.654,1.769-3.623
			C188.266,41.021,189.045,40.286,189.9,39.783z M173.589,32.475l0.773-2.233c0.076-0.218,0.155-0.354,0.237-0.41
			c0.081-0.055,0.216-0.065,0.407-0.029l12.822,2.436c0.189,0.037,0.307,0.095,0.354,0.176c0.047,0.08,0.031,0.229-0.045,0.445
			l-0.772,2.231c-0.069,0.184-0.147,0.307-0.229,0.371c-0.085,0.064-0.22,0.078-0.411,0.044l-4.539-0.863l-4.703,13.781
			c-0.078,0.217-0.16,0.353-0.25,0.407c-0.093,0.053-0.259,0.057-0.498,0.012l-2.683-0.51c-0.208-0.038-0.345-0.105-0.416-0.199
			c-0.073-0.094-0.07-0.241,0.002-0.441l4.703-13.78l-4.438-0.844c-0.188-0.037-0.301-0.098-0.338-0.185
			S173.535,32.659,173.589,32.475z M152.1,27.413c0.183-1.815,3.243-6.069,3.926-6c0.637,0.063,2.828,4.85,2.646,6.666
			c-0.15,1.47-1.244,2.619-2.62,2.901c-0.216-0.339-0.382-0.703-0.485-1.086c-0.034-0.113-0.059-0.229-0.078-0.345c0,0,0,0-0.002,0
			c-0.111-0.611-0.082-1.249,0.103-1.859c0.003-0.015,0.013-0.026,0.013-0.04c0.037-0.146-0.016-0.308-0.146-0.396
			c-0.167-0.111-0.389-0.065-0.502,0.1c-0.02,0.031-0.037,0.065-0.045,0.099c-0.002,0.011-0.007,0.023-0.007,0.034
			c-0.359,1.193-0.225,2.473,0.347,3.555c-0.063-0.002-0.129-0.004-0.195-0.011C153.234,30.848,151.915,29.228,152.1,27.413z
			 M128.991,40.544c0.16-1.186,0.495-2.201,1.011-3.05c0.515-0.85,1.173-1.537,1.976-2.065c0.805-0.526,1.722-0.884,2.755-1.069
			c1.726-0.311,3.062-0.192,4.017,0.355c0.951,0.55,1.533,1.419,1.75,2.608c0.29,1.619-0.006,2.914-0.889,3.882
			c-0.884,0.97-2.43,1.652-4.633,2.05c-0.33,0.06-0.662,0.11-1.002,0.152c-0.338,0.044-0.704,0.074-1.09,0.09
			c0.043,0.936,0.257,1.533,0.642,1.793c0.387,0.26,1.062,0.312,2.03,0.155c0.208-0.038,0.441-0.098,0.7-0.181
			c0.262-0.083,0.529-0.18,0.802-0.292c0.273-0.111,0.54-0.229,0.802-0.357c0.263-0.128,0.499-0.253,0.707-0.382
			c0.193-0.104,0.329-0.151,0.402-0.139c0.072,0.015,0.158,0.084,0.25,0.208l1.168,1.898c0.167,0.221,0.108,0.443-0.171,0.671
			c-0.307,0.27-0.667,0.512-1.084,0.729c-0.414,0.218-0.841,0.415-1.28,0.592c-0.438,0.177-0.875,0.322-1.308,0.437
			c-0.436,0.113-0.822,0.201-1.166,0.264c-1.638,0.294-3.006,0.091-4.101-0.609c-1.095-0.701-1.804-1.938-2.125-3.713
			C128.885,43.071,128.832,41.729,128.991,40.544z M117.999,39.461c0.09-0.274,0.254-0.517,0.492-0.725
			c0.239-0.209,0.583-0.418,1.033-0.628c0.905-0.382,1.799-0.72,2.671-1.011s1.73-0.545,2.581-0.766
			c0.267-0.08,0.455-0.096,0.562-0.045c0.104,0.049,0.175,0.217,0.206,0.5l0.272,2.359c0.043,0.261,0.009,0.426-0.098,0.495
			s-0.276,0.12-0.503,0.152c-0.732,0.111-1.374,0.231-1.921,0.359c-0.545,0.129-1.117,0.266-1.717,0.408l1.588,10.438
			c0.036,0.245,0.019,0.412-0.056,0.498c-0.074,0.087-0.22,0.161-0.439,0.229l-2.336,0.705c-0.187,0.056-0.332,0.069-0.441,0.037
			c-0.11-0.031-0.187-0.168-0.223-0.414l-1.636-10.424c-0.07-0.471-0.115-0.883-0.14-1.233
			C117.872,40.048,117.905,39.736,117.999,39.461z M101.044,45.519c0.027-0.09,0.153-0.184,0.379-0.284l2.424-1.073
			c0.319-0.141,0.522-0.05,0.61,0.274l1.961,6.829c0.169,0.597,0.344,1.089,0.526,1.477c0.181,0.39,0.4,0.68,0.659,0.871
			c0.256,0.193,0.567,0.279,0.934,0.261c0.366-0.018,0.828-0.15,1.388-0.398c0.162-0.07,0.386-0.18,0.676-0.328
			c0.287-0.146,0.591-0.319,0.903-0.516l-2.893-10.034c-0.045-0.19-0.052-0.331-0.015-0.425c0.033-0.092,0.162-0.187,0.388-0.287
			l2.401-1.063c0.32-0.142,0.523-0.05,0.61,0.275l3.102,10.891c0.16,0.58,0.188,1.085,0.082,1.516
			c-0.108,0.429-0.411,0.832-0.916,1.209c-0.177,0.117-0.401,0.255-0.678,0.415c-0.272,0.158-0.568,0.324-0.886,0.493
			c-0.318,0.17-0.63,0.327-0.94,0.473c-0.307,0.147-0.573,0.27-0.799,0.369c-1.138,0.504-2.128,0.817-2.972,0.942
			c-0.845,0.127-1.58,0.045-2.204-0.243s-1.162-0.787-1.612-1.498c-0.448-0.711-0.833-1.646-1.154-2.805l-1.947-6.922
			C101.026,45.747,101.015,45.606,101.044,45.519z M88.844,52.751l1.433-1.385l-0.811-2.363c-0.062-0.206-0.073-0.379-0.034-0.516
			c0.039-0.136,0.12-0.272,0.244-0.408l1.709-1.948c0.115-0.111,0.231-0.158,0.341-0.144c0.112,0.014,0.205,0.121,0.283,0.318
			l1.391,3.271l2.496-1.504c0.163-0.1,0.287-0.126,0.363-0.082c0.079,0.045,0.141,0.137,0.184,0.273l0.737,1.733
			c0.06,0.169,0.089,0.298,0.093,0.388c0.006,0.089-0.085,0.189-0.266,0.297l-2.496,1.505l2.654,6.188
			c0.203,0.471,0.439,0.738,0.712,0.799c0.27,0.062,0.625-0.039,1.062-0.301c0.208-0.127,0.455-0.301,0.74-0.525
			c0.284-0.222,0.522-0.411,0.715-0.568c0.132-0.12,0.236-0.167,0.314-0.143c0.076,0.025,0.152,0.087,0.23,0.183l1.36,1.695
			c0.061,0.105,0.106,0.196,0.132,0.271c0.025,0.078-0.025,0.197-0.154,0.355c-0.457,0.5-0.958,0.945-1.51,1.338
			c-0.548,0.394-1.014,0.703-1.387,0.928c-1.261,0.76-2.293,1.01-3.104,0.752c-0.811-0.259-1.461-0.965-1.95-2.12l-2.964-6.953
			l-1.553,0.936c-0.163,0.101-0.281,0.114-0.355,0.045c-0.073-0.069-0.139-0.167-0.193-0.297l-0.553-1.323
			c-0.06-0.168-0.087-0.288-0.082-0.364C88.633,53.006,88.703,52.896,88.844,52.751z M78.438,53.047
			c0.052-0.092,0.155-0.195,0.311-0.311l2.049-1.515c0.154-0.114,0.284-0.173,0.391-0.177c0.107-0.001,0.203,0.084,0.29,0.261
			L88.5,64.242c0.218,0.381,0.407,0.611,0.574,0.686c0.163,0.074,0.399-0.003,0.71-0.233c0.111-0.081,0.233-0.177,0.362-0.282
			c0.126-0.105,0.241-0.207,0.346-0.305c0.116-0.109,0.2-0.162,0.257-0.159s0.138,0.061,0.247,0.178l1.498,1.539
			c0.106,0.115,0.155,0.226,0.146,0.331c-0.008,0.105-0.075,0.235-0.199,0.393c-0.282,0.384-0.616,0.749-0.999,1.1
			c-0.387,0.349-0.746,0.648-1.084,0.897c-0.465,0.344-0.897,0.59-1.303,0.735c-0.402,0.147-0.788,0.169-1.154,0.071
			c-0.368-0.099-0.72-0.324-1.056-0.675c-0.334-0.349-0.678-0.853-1.032-1.506l-7.274-13.5
			C78.423,53.295,78.388,53.14,78.438,53.047z M67.756,69.166l1.939-1.81c0.256-0.239,0.479-0.22,0.667,0.06l4.092,5.808
			c0.355,0.508,0.682,0.916,0.979,1.224c0.302,0.308,0.603,0.51,0.909,0.606c0.307,0.098,0.631,0.078,0.968-0.061
			c0.341-0.137,0.731-0.413,1.18-0.832c0.13-0.12,0.307-0.295,0.532-0.529c0.222-0.234,0.453-0.495,0.683-0.785l-6.022-8.531
			c-0.107-0.163-0.156-0.297-0.154-0.395c0.002-0.099,0.096-0.231,0.273-0.399l1.919-1.793c0.256-0.239,0.479-0.218,0.667,0.06
			l6.5,9.271c0.344,0.496,0.535,0.965,0.575,1.405c0.042,0.44-0.113,0.922-0.468,1.441c-0.129,0.17-0.299,0.374-0.504,0.614
			c-0.204,0.241-0.43,0.494-0.675,0.758s-0.49,0.516-0.731,0.755c-0.245,0.24-0.456,0.442-0.637,0.61
			c-0.906,0.85-1.738,1.47-2.496,1.865c-0.757,0.396-1.477,0.559-2.164,0.493c-0.685-0.066-1.355-0.362-2.013-0.886
			c-0.658-0.524-1.327-1.282-2.011-2.272l-4.109-5.9c-0.107-0.165-0.16-0.295-0.163-0.386
			C67.489,69.464,67.577,69.334,67.756,69.166z M58.864,79.547c0.244-0.894,0.699-1.747,1.363-2.561
			c0.442-0.543,0.955-1.057,1.534-1.544c0.58-0.487,1.156-0.858,1.729-1.115c0.165-0.068,0.296-0.079,0.386-0.039
			c0.093,0.041,0.197,0.155,0.314,0.341l1.121,1.866c0.115,0.162,0.135,0.298,0.059,0.405s-0.214,0.226-0.411,0.359
			c-0.371,0.261-0.727,0.548-1.061,0.86c-0.338,0.314-0.622,0.613-0.853,0.898c-0.366,0.446-0.583,0.909-0.645,1.389
			c-0.064,0.479-0.01,0.963,0.172,1.448c0.18,0.484,0.458,0.963,0.832,1.427c0.378,0.468,0.825,0.911,1.34,1.332
			c0.31,0.255,0.616,0.455,0.917,0.6c0.302,0.144,0.599,0.219,0.901,0.227c0.298,0.008,0.596-0.065,0.893-0.221
			c0.295-0.152,0.585-0.406,0.874-0.76c0.354-0.433,0.65-0.892,0.89-1.378c0.237-0.482,0.428-0.925,0.575-1.324
			c0.066-0.194,0.138-0.318,0.204-0.376c0.07-0.057,0.194-0.045,0.377,0.037l2.016,0.731c0.169,0.07,0.284,0.147,0.35,0.234
			c0.064,0.088,0.072,0.245,0.02,0.474c-0.187,0.866-0.511,1.683-0.969,2.449c-0.456,0.768-0.897,1.408-1.318,1.923
			c-1.127,1.38-2.349,2.126-3.662,2.241c-1.318,0.115-2.719-0.437-4.211-1.656c-1.098-0.898-1.964-1.814-2.601-2.751
			c-0.636-0.936-1.047-1.867-1.229-2.791C58.587,81.35,58.619,80.44,58.864,79.547z M53.255,86.668
			c0.135-0.205,0.245-0.314,0.33-0.332c0.083-0.019,0.196,0.041,0.34,0.177l9.723,8.581c0.141,0.137,0.22,0.245,0.236,0.33
			c0.021,0.086-0.038,0.23-0.174,0.434l-1.434,2.171c-0.104,0.16-0.205,0.258-0.301,0.29c-0.092,0.031-0.21-0.02-0.352-0.155
			l-9.74-8.56c-0.141-0.135-0.214-0.257-0.216-0.362c-0.004-0.108,0.048-0.24,0.154-0.401L53.255,86.668z M47.856,84.714
			c0.057-0.32,0.17-0.611,0.344-0.874c0.299-0.453,0.688-0.73,1.174-0.831c0.487-0.099,0.956,0,1.406,0.3
			c0.293,0.192,0.526,0.43,0.699,0.71c0.171,0.282,0.286,0.582,0.346,0.906c0.059,0.321,0.059,0.642-0.003,0.957
			c-0.062,0.317-0.175,0.599-0.339,0.847c-0.297,0.453-0.683,0.729-1.155,0.824c-0.474,0.098-0.929,0.002-1.368-0.287
			c-0.293-0.192-0.531-0.428-0.715-0.706c-0.183-0.278-0.307-0.575-0.371-0.892C47.81,85.354,47.804,85.036,47.856,84.714z
			 M45.927,98.438c0.367-0.913,0.759-1.782,1.17-2.604c0.411-0.823,0.84-1.612,1.281-2.368c0.132-0.247,0.254-0.391,0.365-0.431
			c0.11-0.04,0.275,0.029,0.498,0.208l1.863,1.474c0.215,0.155,0.31,0.295,0.282,0.419c-0.026,0.124-0.111,0.279-0.249,0.463
			c-0.438,0.6-0.808,1.138-1.102,1.615c-0.297,0.477-0.604,0.977-0.924,1.501l8.508,6.254c0.199,0.146,0.304,0.276,0.312,0.389
			c0.008,0.115-0.039,0.271-0.146,0.472l-1.153,2.154c-0.091,0.169-0.186,0.282-0.285,0.338c-0.1,0.057-0.25,0.012-0.45-0.136
			l-8.532-6.206c-0.383-0.286-0.707-0.543-0.971-0.773c-0.264-0.231-0.463-0.475-0.591-0.733c-0.13-0.259-0.184-0.546-0.164-0.863
			C45.658,99.294,45.754,98.903,45.927,98.438z M39.89,111.098c0.327-0.849,0.729-1.692,1.21-2.53
			c0.484-0.837,1.026-1.533,1.635-2.087c0.184-0.136,0.339-0.211,0.468-0.228c0.127-0.016,0.275,0.026,0.441,0.128l10.815,6.044
			c0.757,0.423,1.418,0.888,1.981,1.396c0.565,0.508,0.998,1.084,1.307,1.728c0.307,0.641,0.455,1.363,0.447,2.167
			c-0.012,0.804-0.212,1.721-0.609,2.749c-0.295,0.769-0.683,1.545-1.162,2.327c-0.478,0.78-0.935,1.415-1.367,1.907
			c-0.203,0.184-0.352,0.268-0.447,0.248c-0.097-0.017-0.2-0.076-0.312-0.176l-1.701-1.357c-0.148-0.15-0.222-0.273-0.224-0.367
			c0-0.095,0.075-0.244,0.23-0.446c0.292-0.374,0.62-0.835,0.979-1.381c0.359-0.547,0.636-1.065,0.825-1.555
			c0.194-0.506,0.312-0.949,0.354-1.327c0.043-0.377,0.003-0.713-0.121-1.004c-0.123-0.29-0.341-0.562-0.654-0.814
			c-0.318-0.253-0.729-0.524-1.236-0.812c-0.034,0.475-0.116,0.969-0.247,1.481c-0.13,0.514-0.287,1.004-0.471,1.478
			c-0.321,0.834-0.714,1.497-1.188,1.993c-0.47,0.492-1.005,0.842-1.599,1.043c-0.593,0.204-1.241,0.269-1.944,0.195
			s-1.438-0.259-2.206-0.554c-1.194-0.459-2.224-1.022-3.091-1.695c-0.866-0.67-1.536-1.443-2.006-2.318
			c-0.471-0.874-0.724-1.83-0.754-2.865C39.208,113.43,39.423,112.307,39.89,111.098z M29.98,128.379l0.33-1.513
			c0.062-0.273,0.124-0.502,0.19-0.684c0.064-0.183,0.166-0.333,0.298-0.445c0.134-0.115,0.303-0.194,0.511-0.239
			c0.205-0.045,0.47-0.059,0.788-0.043l16.725,0.583c0.107,0.007,0.217,0.044,0.326,0.112c0.11,0.068,0.144,0.198,0.104,0.386
			l-0.621,2.849c-0.043,0.188-0.096,0.332-0.164,0.433c-0.064,0.104-0.197,0.151-0.395,0.145l-3.446-0.214l-1.235,5.67l2.943,2.147
			c0.154,0.123,0.258,0.24,0.314,0.35c0.056,0.112,0.056,0.287,0.006,0.525l-0.661,3.028c-0.037,0.172-0.11,0.263-0.22,0.272
			c-0.11,0.014-0.229-0.021-0.354-0.104L30.954,130.69c-0.522-0.386-0.841-0.739-0.948-1.069
			C29.899,129.293,29.891,128.879,29.98,128.379z M29.552,161.364c-1.823,0-6.364-2.619-6.364-3.303
			c0-0.641,4.541-3.303,6.364-3.303c1.479,0,2.732,0.974,3.152,2.313c-0.315,0.251-0.662,0.45-1.034,0.593
			c-0.108,0.045-0.22,0.079-0.334,0.112c0,0,0,0,0,0.003c-0.596,0.172-1.233,0.205-1.858,0.085
			c-0.017-0.002-0.027-0.008-0.042-0.008c-0.15-0.026-0.304,0.045-0.38,0.185c-0.093,0.178-0.024,0.395,0.151,0.488
			c0.032,0.018,0.067,0.03,0.103,0.036c0.008,0,0.022,0.005,0.033,0.006c1.224,0.234,2.482-0.03,3.504-0.705
			c0,0.063,0.007,0.128,0.007,0.194C32.854,159.886,31.377,161.364,29.552,161.364z M36.165,193.912
			c-0.72-0.567-1.346-1.303-1.873-2.202c-0.528-0.904-0.953-1.916-1.278-3.043c-0.176-0.611-0.324-1.249-0.444-1.916
			c-0.119-0.671-0.197-1.339-0.235-2.011c-0.038-0.668-0.028-1.333,0.03-1.992c0.059-0.655,0.182-1.27,0.368-1.84
			c0.057-0.161,0.14-0.268,0.25-0.321c0.107-0.05,0.307-0.045,0.592,0.018l2.603,0.427c0.264,0.049,0.429,0.124,0.5,0.229
			c0.07,0.104,0.089,0.273,0.055,0.512c-0.055,0.388-0.101,0.82-0.139,1.295c-0.039,0.476-0.053,0.965-0.042,1.469
			c0.009,0.503,0.042,1.011,0.097,1.521c0.054,0.512,0.149,1.007,0.288,1.481c0.185,0.647,0.404,1.16,0.656,1.531
			c0.252,0.372,0.519,0.652,0.8,0.838c0.281,0.189,0.568,0.292,0.864,0.311c0.294,0.021,0.574-0.01,0.842-0.087
			c0.517-0.15,0.879-0.481,1.092-0.996c0.214-0.516,0.415-1.338,0.606-2.469c0.176-1.04,0.381-1.984,0.612-2.825
			c0.234-0.842,0.522-1.582,0.866-2.218c0.342-0.637,0.764-1.168,1.258-1.601c0.496-0.433,1.087-0.747,1.774-0.944
			c1.774-0.512,3.375-0.295,4.804,0.646c1.428,0.941,2.477,2.578,3.146,4.906c0.302,1.048,0.502,2.137,0.6,3.266
			c0.098,1.13,0.046,2.135-0.154,3.019c-0.035,0.238-0.108,0.395-0.22,0.468c-0.115,0.075-0.337,0.107-0.67,0.1l-2.345-0.068
			c-0.318-0.032-0.513-0.111-0.579-0.236c-0.067-0.127-0.103-0.302-0.104-0.527c0.029-0.897,0.013-1.787-0.056-2.664
			c-0.066-0.882-0.207-1.691-0.423-2.438c-0.257-0.896-0.621-1.477-1.089-1.744c-0.472-0.27-0.943-0.335-1.421-0.198
			c-0.383,0.11-0.689,0.442-0.923,0.993c-0.234,0.554-0.435,1.435-0.603,2.639c-0.128,0.925-0.285,1.797-0.474,2.616
			c-0.188,0.817-0.455,1.556-0.804,2.213c-0.347,0.659-0.795,1.221-1.342,1.688c-0.548,0.469-1.231,0.819-2.052,1.055
			c-1.088,0.313-2.085,0.384-2.991,0.211C37.699,194.851,36.887,194.479,36.165,193.912z M44.355,211.941
			c-0.154,0.138-0.292,0.219-0.412,0.242c-0.12,0.024-0.285-0.046-0.496-0.212c-0.791-0.615-1.467-1.345-2.028-2.188
			c-0.56-0.846-1-1.609-1.321-2.291c-0.856-1.831-1.021-3.445-0.495-4.848c0.527-1.4,1.779-2.564,3.758-3.492
			c1.456-0.682,2.817-1.12,4.088-1.311c1.269-0.192,2.421-0.154,3.456,0.109c1.034,0.269,1.949,0.743,2.743,1.433
			c0.793,0.688,1.443,1.57,1.949,2.649c0.337,0.719,0.613,1.494,0.828,2.326c0.214,0.832,0.311,1.601,0.294,2.312
			c-0.015,0.203-0.064,0.344-0.149,0.416c-0.088,0.072-0.256,0.124-0.504,0.153l-2.458,0.23c-0.223,0.04-0.37-0.005-0.443-0.138
			c-0.071-0.13-0.126-0.329-0.163-0.597c-0.085-0.507-0.207-1.011-0.363-1.509c-0.155-0.497-0.322-0.934-0.499-1.312
			c-0.278-0.592-0.647-1.04-1.104-1.339c-0.46-0.301-0.98-0.479-1.567-0.532c-0.582-0.056-1.206-0.006-1.867,0.153
			c-0.662,0.155-1.333,0.393-2.017,0.714c-0.414,0.193-0.769,0.409-1.062,0.647c-0.296,0.235-0.519,0.506-0.673,0.807
			c-0.155,0.305-0.224,0.643-0.212,1.022c0.012,0.378,0.128,0.799,0.348,1.266c0.268,0.576,0.593,1.104,0.971,1.585
			c0.381,0.48,0.737,0.892,1.076,1.237c0.164,0.166,0.258,0.296,0.282,0.396c0.024,0.098-0.051,0.221-0.222,0.368L44.355,211.941z
			 M48.645,221.164c-0.207,0.083-0.356,0.111-0.452,0.09c-0.097-0.021-0.217-0.15-0.365-0.387l-1.562-2.498
			c-0.115-0.187-0.168-0.335-0.156-0.448c0.011-0.112,0.119-0.209,0.326-0.292l13.421-6.002c0.206-0.084,0.364-0.101,0.476-0.055
			c0.112,0.048,0.227,0.163,0.342,0.349l1.563,2.501c0.147,0.234,0.21,0.4,0.188,0.496c-0.022,0.097-0.137,0.187-0.344,0.268
			L48.645,221.164z M62.675,234.125l-1.24,2.203c-0.127,0.282-0.382,0.35-0.76,0.197c-0.437-0.156-0.876-0.382-1.318-0.674
			c-0.443-0.29-0.874-0.607-1.291-0.947c-0.416-0.337-0.8-0.692-1.15-1.058c-0.352-0.368-0.652-0.706-0.902-1.013
			c-1.194-1.462-1.742-2.93-1.646-4.402c0.091-1.472,0.93-2.854,2.516-4.145c1.339-1.092,2.638-1.885,3.903-2.377
			c1.263-0.491,2.458-0.717,3.582-0.673s2.17,0.319,3.134,0.826c0.963,0.509,1.823,1.224,2.576,2.147
			c1.254,1.538,1.871,2.931,1.851,4.178c-0.022,1.247-0.563,2.303-1.626,3.168c-1.446,1.18-2.893,1.599-4.34,1.252
			c-1.445-0.344-2.972-1.502-4.578-3.47c-0.238-0.292-0.472-0.598-0.701-0.909c-0.229-0.312-0.459-0.656-0.688-1.033
			c-0.904,0.558-1.379,1.098-1.425,1.624c-0.047,0.523,0.273,1.223,0.961,2.097c0.15,0.186,0.339,0.384,0.564,0.596
			c0.225,0.215,0.469,0.427,0.729,0.637c0.261,0.211,0.526,0.41,0.798,0.6c0.269,0.189,0.523,0.354,0.764,0.489
			c0.211,0.136,0.331,0.243,0.359,0.324C62.771,233.841,62.748,233.963,62.675,234.125z M81.721,246.359l-5.952,5.113
			c-0.174,0.137-0.311,0.211-0.408,0.217c-0.098,0.005-0.251-0.085-0.46-0.269l-2.231-1.972c-0.163-0.144-0.26-0.275-0.287-0.395
			c-0.029-0.118,0.044-0.244,0.219-0.382l6.174-5.274c0.493-0.439,0.886-0.848,1.179-1.225c0.294-0.377,0.468-0.76,0.521-1.147
			c0.053-0.392-0.027-0.788-0.242-1.189s-0.582-0.832-1.104-1.294c-0.148-0.131-0.356-0.308-0.623-0.529
			c-0.267-0.224-0.575-0.437-0.926-0.642l-9.039,7.712c-0.176,0.135-0.311,0.209-0.409,0.214c-0.099,0.006-0.252-0.085-0.46-0.268
			l-2.209-1.953c-0.164-0.143-0.26-0.275-0.287-0.394c-0.028-0.118,0.043-0.244,0.219-0.383l9.821-8.367
			c0.522-0.441,1.029-0.708,1.524-0.803c0.492-0.092,1.046,0.037,1.658,0.396c0.176,0.101,0.403,0.256,0.684,0.464
			c0.279,0.209,0.581,0.436,0.905,0.683c0.325,0.246,0.64,0.491,0.943,0.733c0.303,0.241,0.565,0.461,0.79,0.658
			c0.995,0.881,1.762,1.745,2.301,2.59c0.537,0.847,0.817,1.686,0.84,2.513s-0.225,1.669-0.742,2.524
			C83.602,244.547,82.803,245.436,81.721,246.359z M97.546,252.92c-0.132-0.071-0.285-0.209-0.459-0.415
			c-0.345-0.385-0.717-0.743-1.114-1.08c-0.398-0.335-0.774-0.613-1.126-0.838c-0.553-0.353-1.104-0.53-1.652-0.539
			c-0.547-0.008-1.083,0.124-1.604,0.392c-0.524,0.267-1.024,0.645-1.498,1.132c-0.473,0.486-0.913,1.047-1.317,1.683
			c-0.245,0.387-0.43,0.757-0.55,1.117c-0.122,0.357-0.166,0.703-0.135,1.042c0.031,0.341,0.154,0.663,0.368,0.976
			c0.213,0.312,0.538,0.605,0.974,0.884c0.536,0.341,1.093,0.614,1.671,0.813c0.576,0.203,1.1,0.36,1.572,0.471
			c0.226,0.049,0.374,0.111,0.448,0.179c0.073,0.07,0.077,0.214,0.01,0.431l-0.553,2.367c-0.056,0.199-0.129,0.341-0.218,0.426
			c-0.088,0.084-0.266,0.114-0.53,0.086c-0.999-0.093-1.962-0.349-2.888-0.76c-0.925-0.413-1.708-0.821-2.344-1.226
			c-1.704-1.084-2.71-2.356-3.017-3.823c-0.308-1.466,0.125-3.12,1.297-4.964c0.862-1.355,1.779-2.456,2.746-3.298
			c0.969-0.845,1.961-1.43,2.978-1.762c1.017-0.33,2.045-0.416,3.084-0.262c1.038,0.153,2.061,0.552,3.065,1.19
			c0.67,0.425,1.319,0.932,1.947,1.521c0.626,0.585,1.122,1.184,1.487,1.791c0.098,0.181,0.13,0.324,0.097,0.434
			c-0.034,0.107-0.148,0.24-0.341,0.4l-1.952,1.511C97.825,252.953,97.676,252.992,97.546,252.92z M114.788,260.999
			c-0.752,1.708-1.851,2.737-3.295,3.089c-1.445,0.354-3.331,0.014-5.656-1.006c-0.346-0.153-0.691-0.316-1.039-0.49
			c-0.347-0.175-0.706-0.378-1.082-0.605c-0.553,0.906-0.728,1.604-0.531,2.091c0.196,0.49,0.801,0.966,1.812,1.433
			c0.217,0.096,0.475,0.187,0.772,0.273c0.297,0.09,0.611,0.166,0.938,0.233c0.329,0.07,0.655,0.127,0.981,0.173
			c0.326,0.047,0.629,0.074,0.904,0.089c0.251,0.022,0.405,0.064,0.468,0.123c0.059,0.06,0.094,0.177,0.104,0.355l-0.103,2.524
			c0.016,0.312-0.18,0.487-0.587,0.523c-0.46,0.06-0.954,0.06-1.48,0c-0.527-0.059-1.055-0.143-1.58-0.257
			c-0.525-0.112-1.027-0.249-1.507-0.419c-0.479-0.166-0.9-0.329-1.265-0.49c-1.728-0.759-2.884-1.814-3.471-3.168
			c-0.586-1.354-0.469-2.967,0.355-4.838c0.695-1.581,1.492-2.879,2.395-3.893c0.899-1.013,1.861-1.756,2.883-2.229
			c1.022-0.472,2.077-0.704,3.166-0.692c1.09,0.015,2.18,0.259,3.271,0.74c1.817,0.8,3,1.759,3.548,2.88
			C115.34,258.557,115.339,259.744,114.788,260.999z M134.79,278.833c-0.291,1.801-3.603,5.864-4.277,5.754
			c-0.633-0.101-2.535-5.009-2.242-6.81c0.236-1.457,1.396-2.541,2.787-2.741c0.194,0.352,0.337,0.726,0.418,1.114
			c0.027,0.114,0.045,0.23,0.06,0.346l0.003,0.002c0.073,0.616,0.005,1.253-0.215,1.852c-0.004,0.011-0.014,0.025-0.014,0.038
			c-0.05,0.144-0.004,0.307,0.121,0.405c0.162,0.119,0.387,0.088,0.508-0.072c0.021-0.029,0.037-0.063,0.05-0.097
			c0.003-0.008,0.008-0.02,0.012-0.03c0.428-1.171,0.364-2.455-0.139-3.572c0.065,0.009,0.13,0.015,0.193,0.023
			C133.855,275.338,135.081,277.031,134.79,278.833z M155.984,258.879l-3.095,19.549c-0.045,0.259-0.111,0.425-0.202,0.503
			c-0.09,0.079-0.276,0.115-0.553,0.11l-3.067-0.051c-0.238-0.006-0.411-0.052-0.518-0.145c-0.109-0.089-0.141-0.255-0.098-0.492
			l3.095-19.548c0.044-0.235,0.128-0.399,0.247-0.486c0.121-0.087,0.299-0.13,0.538-0.124l3.067,0.051
			c0.278,0.003,0.455,0.048,0.534,0.126C156.011,258.454,156.027,258.623,155.984,258.879z M174.341,276.925
			c-0.016,0.222-0.053,0.371-0.112,0.446c-0.062,0.08-0.231,0.134-0.506,0.167l-2.958,0.346c-0.218,0.025-0.38,0.012-0.485-0.048
			c-0.106-0.057-0.153-0.196-0.14-0.418l0.186-8.117c0.002-0.662-0.039-1.228-0.125-1.694c-0.084-0.47-0.254-0.854-0.509-1.156
			c-0.256-0.298-0.605-0.505-1.047-0.611c-0.443-0.107-1.009-0.12-1.698-0.038c-0.199,0.021-0.469,0.059-0.812,0.108
			c-0.344,0.051-0.708,0.139-1.094,0.263l-0.283,11.879c-0.015,0.222-0.051,0.371-0.112,0.447c-0.062,0.078-0.23,0.132-0.506,0.166
			l-2.928,0.344c-0.218,0.025-0.379,0.008-0.485-0.048c-0.107-0.057-0.154-0.198-0.14-0.421l0.313-12.9
			c0.02-0.681,0.159-1.237,0.419-1.667c0.259-0.432,0.726-0.755,1.398-0.975c0.193-0.062,0.46-0.131,0.804-0.199
			c0.34-0.071,0.711-0.144,1.111-0.221c0.402-0.075,0.794-0.148,1.176-0.214c0.381-0.064,0.721-0.115,1.016-0.149
			c1.321-0.155,2.477-0.148,3.466,0.015c0.987,0.164,1.8,0.512,2.433,1.047c0.632,0.537,1.094,1.281,1.386,2.236
			c0.293,0.955,0.423,2.145,0.39,3.566L174.341,276.925z M194.853,272.076c-0.047,0.087-0.205,0.169-0.471,0.247l-2.855,0.847
			c-0.209,0.062-0.371,0.076-0.487,0.037c-0.114-0.039-0.184-0.169-0.208-0.389l-1.201-8.031c-0.109-0.65-0.246-1.199-0.41-1.649
			c-0.165-0.447-0.398-0.797-0.702-1.05c-0.302-0.251-0.681-0.395-1.135-0.426c-0.455-0.029-1.015,0.055-1.68,0.252
			c-0.19,0.055-0.452,0.14-0.782,0.247c-0.33,0.109-0.672,0.256-1.031,0.448l1.745,11.749c0.024,0.222,0.014,0.374-0.033,0.461
			c-0.049,0.087-0.204,0.169-0.47,0.247l-2.826,0.84c-0.21,0.062-0.373,0.074-0.488,0.037c-0.114-0.04-0.184-0.17-0.207-0.389
			l-1.892-12.766c-0.098-0.676-0.055-1.247,0.128-1.717c0.182-0.468,0.586-0.867,1.212-1.199c0.179-0.093,0.432-0.206,0.756-0.332
			s0.679-0.262,1.06-0.408c0.381-0.144,0.757-0.279,1.121-0.408c0.365-0.129,0.691-0.236,0.977-0.32
			c1.275-0.38,2.414-0.572,3.416-0.58c1.004-0.006,1.862,0.2,2.576,0.619c0.715,0.42,1.297,1.076,1.747,1.968
			c0.45,0.888,0.782,2.039,0.993,3.446l1.182,7.756C194.91,271.837,194.898,271.988,194.853,272.076z M212.642,261.633
			c-0.268,1.086-0.771,2.07-1.507,2.954c-0.733,0.884-1.705,1.624-2.913,2.221c-1.937,0.956-3.605,1.19-5.01,0.697
			c-1.402-0.489-2.545-1.626-3.424-3.407c-0.721-1.459-1.176-2.852-1.365-4.174c-0.191-1.323-0.145-2.537,0.141-3.642
			c0.282-1.104,0.786-2.083,1.513-2.938c0.727-0.857,1.648-1.562,2.769-2.116c1.917-0.948,3.604-1.147,5.054-0.604
			c1.452,0.545,2.64,1.753,3.562,3.622c0.66,1.333,1.091,2.628,1.288,3.88C212.948,259.378,212.912,260.549,212.642,261.633z
			 M227.355,254.715c-0.074,0.186-0.185,0.357-0.331,0.51c-0.146,0.154-0.324,0.306-0.533,0.455l-1.769,1.267
			c-0.372,0.264-0.721,0.392-1.046,0.38c-0.324-0.009-0.734-0.242-1.229-0.692l-10.231-9.486c-0.159-0.155-0.23-0.281-0.215-0.377
			c0.017-0.099,0.097-0.2,0.241-0.304l2.542-1.819c0.244-0.175,0.422-0.258,0.533-0.253c0.115,0.006,0.25,0.085,0.411,0.239
			l4.352,4.39l3.462,3.713l0.121-0.085l-1.301-5.296l-1.385-6.441c-0.047-0.236-0.055-0.414-0.02-0.539
			c0.035-0.119,0.174-0.27,0.416-0.441l2.76-1.976c0.258-0.186,0.415-0.102,0.472,0.248l2.758,14.906
			c0.067,0.369,0.103,0.68,0.103,0.938C227.466,254.307,227.429,254.526,227.355,254.715z M245.25,238.064
			c-0.52,1.078-1.126,2.062-1.815,2.944c-0.689,0.884-1.337,1.627-1.942,2.229c-0.87,0.867-1.708,1.492-2.509,1.868
			c-0.801,0.377-1.573,0.561-2.317,0.544c-0.745-0.016-1.46-0.205-2.147-0.571c-0.686-0.369-1.345-0.867-1.976-1.5
			c-1.122-1.126-1.997-2.264-2.626-3.416c-0.63-1.151-1.004-2.294-1.121-3.426c-0.117-1.128,0.032-2.237,0.449-3.325
			c0.416-1.088,1.115-2.121,2.102-3.103c0.491-0.489,1.162-1.075,2.014-1.755c0.85-0.68,1.788-1.317,2.813-1.921
			c0.311-0.169,0.534-0.21,0.676-0.127c0.141,0.087,0.272,0.22,0.399,0.404c1.357,1.84,2.677,3.608,3.959,5.301
			c1.282,1.695,2.603,3.407,3.959,5.136C245.35,237.559,245.378,237.798,245.25,238.064z M256.348,224.879
			c-0.267,0.719-0.604,1.402-1.015,2.049c-0.41,0.647-0.764,1.17-1.062,1.566c-0.999,1.335-1.98,2.041-2.94,2.114
			c-0.962,0.075-1.946-0.391-2.956-1.396l-6.078-6.041l-1.232,1.645c-0.131,0.174-0.248,0.242-0.354,0.199
			c-0.106-0.042-0.215-0.118-0.331-0.229l-1.145-1.156c-0.134-0.149-0.215-0.266-0.241-0.348c-0.025-0.08,0.003-0.226,0.086-0.438
			l0.916-2.067l-1.859-2.136c-0.156-0.192-0.24-0.367-0.257-0.526c-0.015-0.161,0.011-0.34,0.083-0.535l0.964-2.774
			c0.075-0.169,0.175-0.267,0.297-0.299c0.124-0.031,0.269,0.039,0.435,0.214l2.855,2.845l1.981-2.646
			c0.13-0.174,0.247-0.256,0.349-0.242s0.204,0.085,0.307,0.21l1.514,1.507c0.135,0.152,0.225,0.274,0.266,0.367
			c0.042,0.095-0.009,0.235-0.151,0.427l-1.982,2.645l5.43,5.371c0.414,0.407,0.775,0.586,1.087,0.533
			c0.312-0.049,0.641-0.307,0.986-0.768c0.166-0.222,0.352-0.513,0.555-0.866c0.205-0.356,0.375-0.656,0.511-0.904
			c0.086-0.183,0.176-0.276,0.267-0.282c0.092-0.008,0.199,0.024,0.322,0.092l2.15,1.201c0.111,0.084,0.196,0.16,0.256,0.229
			C256.419,224.509,256.414,224.656,256.348,224.879z M261.422,217.047l-1.503,2.538c-0.11,0.187-0.217,0.302-0.322,0.342
			c-0.105,0.044-0.242-0.009-0.41-0.155l-11.498-9.162c-0.168-0.146-0.256-0.278-0.267-0.399c-0.008-0.121,0.043-0.275,0.153-0.464
			l1.503-2.535c0.14-0.24,0.261-0.373,0.354-0.398c0.096-0.021,0.227,0.037,0.396,0.184l11.482,9.188
			c0.169,0.146,0.265,0.267,0.289,0.36C261.624,216.641,261.565,216.809,261.422,217.047z M268.417,203.98
			c-0.848,1.986-1.965,3.25-3.351,3.789c-1.387,0.538-2.993,0.416-4.817-0.362c-1.496-0.641-2.748-1.402-3.753-2.283
			c-1.005-0.882-1.759-1.833-2.261-2.858c-0.502-1.021-0.755-2.094-0.762-3.217c-0.006-1.124,0.236-2.259,0.729-3.408
			c0.841-1.967,1.989-3.217,3.447-3.746c1.457-0.528,3.143-0.385,5.061,0.434c1.369,0.586,2.538,1.291,3.502,2.112
			c0.967,0.823,1.699,1.735,2.2,2.734c0.501,1.001,0.759,2.077,0.775,3.226C269.203,201.547,268.947,202.74,268.417,203.98z
			 M276.312,177.713l-0.688,2.896c-0.051,0.214-0.121,0.361-0.213,0.439c-0.09,0.081-0.237,0.078-0.441-0.014l-7.56-2.96
			c-0.618-0.229-1.163-0.384-1.635-0.466c-0.471-0.081-0.89-0.053-1.26,0.084c-0.369,0.137-0.68,0.396-0.933,0.771
			c-0.254,0.381-0.46,0.907-0.622,1.582c-0.045,0.194-0.104,0.462-0.175,0.801c-0.07,0.341-0.112,0.714-0.128,1.118l11.058,4.343
			c0.203,0.09,0.332,0.178,0.383,0.261c0.052,0.083,0.045,0.261-0.019,0.531l-0.683,2.866c-0.051,0.214-0.12,0.361-0.211,0.44
			c-0.093,0.081-0.238,0.077-0.441-0.013l-12.009-4.723c-0.634-0.252-1.107-0.576-1.424-0.967c-0.315-0.392-0.46-0.939-0.434-1.65
			c0.007-0.203,0.037-0.475,0.088-0.82c0.052-0.345,0.108-0.718,0.175-1.121c0.065-0.402,0.133-0.794,0.203-1.176
			s0.141-0.719,0.21-1.008c0.306-1.293,0.708-2.376,1.2-3.249c0.494-0.873,1.1-1.514,1.821-1.922
			c0.719-0.413,1.577-0.591,2.576-0.537c0.995,0.056,2.158,0.34,3.483,0.858l7.313,2.843c0.204,0.09,0.332,0.175,0.382,0.259
			C276.383,177.267,276.376,177.442,276.312,177.713z M279.126,161.364c-1.823,0-3.302-1.479-3.302-3.303
			c0-0.066,0.005-0.131,0.007-0.194c1.022,0.675,2.28,0.939,3.505,0.705c0.011-0.001,0.024-0.006,0.033-0.006
			c0.035-0.006,0.07-0.019,0.103-0.036c0.176-0.094,0.246-0.311,0.151-0.488c-0.077-0.14-0.229-0.211-0.381-0.185
			c-0.013,0-0.027,0.006-0.04,0.008c-0.623,0.12-1.265,0.087-1.861-0.085c0-0.003,0-0.003,0-0.003
			c-0.111-0.033-0.225-0.067-0.334-0.112c-0.371-0.143-0.717-0.342-1.031-0.593c0.419-1.34,1.673-2.313,3.15-2.313
			c1.825,0,6.366,2.662,6.366,3.303C285.492,158.745,280.951,161.364,279.126,161.364z"/>
		<path fill="#FFFFFF" d="M238.066,234.923c-0.358-0.485-0.729-0.982-1.115-1.497c-0.383-0.513-0.835-1.141-1.354-1.887
			c-0.154,0.1-0.316,0.211-0.485,0.336c-0.168,0.126-0.338,0.26-0.506,0.398c-0.17,0.142-0.326,0.278-0.475,0.412
			c-0.147,0.131-0.271,0.248-0.369,0.346c-0.365,0.364-0.63,0.787-0.792,1.272c-0.163,0.483-0.198,1.032-0.107,1.643
			c0.09,0.61,0.33,1.274,0.722,1.989c0.393,0.719,0.966,1.471,1.723,2.258c0.295,0.296,0.599,0.531,0.916,0.706
			c0.314,0.178,0.647,0.273,0.998,0.286c0.352,0.015,0.716-0.061,1.096-0.229c0.379-0.167,0.773-0.453,1.181-0.862
			c0.212-0.208,0.425-0.471,0.644-0.787c0.218-0.316,0.406-0.619,0.559-0.915c-0.586-0.76-1.084-1.404-1.49-1.938
			C238.805,235.918,238.423,235.409,238.066,234.923z"/>
	</g>
	<path fill="#FFFFFF" d="M154.34,301.777c-82.035,0-148.775-66.741-148.775-148.776S72.305,4.225,154.34,4.225
		c82.033,0,148.772,66.741,148.772,148.776S236.373,301.777,154.34,301.777z M154.34,5.666C73.099,5.666,7.006,71.76,7.006,153.001
		S73.099,300.336,154.34,300.336c81.24,0,147.333-66.094,147.333-147.335S235.58,5.666,154.34,5.666z"/>
	<path fill="#FFFFFF" d="M154.34,239.421c-47.653,0-86.421-38.769-86.421-86.419c0-47.652,38.768-86.419,86.421-86.419
		c47.652,0,86.419,38.767,86.419,86.419C240.759,200.652,201.992,239.421,154.34,239.421z M154.34,68.022
		c-46.857,0-84.979,38.121-84.979,84.979c0,46.857,38.121,84.978,84.979,84.978s84.979-38.12,84.979-84.978
		C239.319,106.144,201.197,68.022,154.34,68.022z"/>
	<g>
		<path fill="#FFFFFF" d="M159.927,150.244c-34.301,42.268-5.657,74.495-5.657,74.495c-2.223-27.581,16.718-29.825,30.238-50.052
			c13.528-20.224-1.245-35.101-1.245-35.101s1.41,8.109-16.77,24.33c-18.287,16.332-16.062,29.728-15.434,32.238
			c-8.774-27.93,32.34-42.319,30.642-69.892c-1.543-25.084-15.63-34.925-15.63-34.925S182.81,122.048,159.927,150.244z"/>
		<path fill="#FFFFFF" d="M148.757,155.339c34.295-42.271,5.653-74.501,5.653-74.501c2.226,27.581-16.72,29.827-30.241,50.055
			c-13.531,20.225,1.247,35.103,1.247,35.103s-1.409-8.111,16.771-24.333c18.286-16.331,16.062-29.727,15.437-32.24
			c8.77,27.93-32.342,42.32-30.643,69.891c1.541,25.087,15.625,34.925,15.625,34.925S125.87,183.528,148.757,155.339z"/>
	</g>
</g>
</svg>
