<?xml version="1.0" encoding="utf-8"?>
<!-- Generator: Adobe Illustrator 16.0.4, SVG Export Plug-In . SVG Version: 6.00 Build 0)  -->
<!DOCTYPE svg PUBLIC "-//W3C//DTD SVG 1.1//EN" "http://www.w3.org/Graphics/SVG/1.1/DTD/svg11.dtd">
<svg version="1.1" id="Layer_1" xmlns="http://www.w3.org/2000/svg" xmlns:xlink="http://www.w3.org/1999/xlink" x="0px" y="0px"
	 width="42.429px" height="42.429px" viewBox="0 0 42.429 42.429" enable-background="new 0 0 42.429 42.429" xml:space="preserve">
<g enable-background="new    ">
	<path fill="#0a806d" d="M10.086,36.267c-0.139,0.104-0.269,0.182-0.39,0.234c-0.122,0.052-0.251,0.078-0.389,0.078
		c-0.243,0-0.476-0.087-0.701-0.259c-0.226-0.173-0.337-0.363-0.337-0.571c0-0.104,0.026-0.216,0.078-0.337
		c0.052-0.121,0.13-0.268,0.234-0.441l11.887-14.119L8.891,7.458C8.857,7.389,8.805,7.321,8.736,7.251
		c-0.174-0.208-0.26-0.38-0.26-0.519c0-0.208,0.112-0.406,0.337-0.597c0.225-0.19,0.458-0.286,0.701-0.286
		c0.104,0,0.225,0.044,0.363,0.13c0.138,0.086,0.277,0.182,0.416,0.285l11.368,13.185L33.029,6.264
		c0.138-0.104,0.276-0.199,0.415-0.285c0.138-0.086,0.277-0.13,0.416-0.13c0.276,0.035,0.51,0.147,0.701,0.337
		c0.19,0.19,0.286,0.372,0.286,0.545c0,0.104-0.035,0.226-0.104,0.363c-0.07,0.139-0.139,0.26-0.208,0.363L22.907,20.747
		l12.042,14.275c0.173,0.243,0.286,0.424,0.337,0.545c0.052,0.122,0.078,0.217,0.078,0.286c0,0.139-0.113,0.294-0.337,0.467
		c-0.226,0.172-0.476,0.259-0.753,0.259c-0.139,0-0.269-0.026-0.389-0.078c-0.122-0.052-0.234-0.13-0.337-0.234L21.661,22.356
		L10.086,36.267z"/>
</g>
</svg>
