<?xml version="1.0" encoding="utf-8"?>
<!-- Generator: Adobe Illustrator 16.0.4, SVG Export Plug-In . SVG Version: 6.00 Build 0)  -->
<!DOCTYPE svg PUBLIC "-//W3C//DTD SVG 1.1//EN" "http://www.w3.org/Graphics/SVG/1.1/DTD/svg11.dtd">
<svg version="1.1" id="Layer_1" xmlns="http://www.w3.org/2000/svg" xmlns:xlink="http://www.w3.org/1999/xlink" x="0px" y="0px"
	 width="255.12px" height="66.968px" viewBox="0 0 255.12 66.968" enable-background="new 0 0 255.12 66.968" xml:space="preserve">
<g>
	<path fill="#73879B" d="M28.385,31.589c0,1.734-0.297,3.316-0.892,4.745c-0.594,1.43-1.453,2.65-2.577,3.663
		c-1.124,1.01-2.489,1.79-4.095,2.335c-1.606,0.547-3.42,0.819-5.444,0.819c-2.022,0-3.838-0.272-5.444-0.819
		c-1.606-0.546-2.971-1.325-4.095-2.335c-1.124-1.012-1.983-2.233-2.578-3.663c-0.595-1.429-0.891-3.011-0.891-4.745V13.186
		c0.354-0.063,0.916-0.152,1.687-0.265c0.771-0.112,1.509-0.168,2.215-0.168c0.739,0,1.39,0.056,1.952,0.168
		c0.562,0.113,1.036,0.314,1.422,0.603c0.385,0.289,0.674,0.691,0.867,1.205c0.193,0.514,0.289,1.188,0.289,2.023v14.695
		c0,1.54,0.425,2.745,1.276,3.612c0.851,0.866,1.952,1.301,3.3,1.301c1.381,0,2.489-0.435,3.325-1.301
		c0.834-0.868,1.252-2.072,1.252-3.612v-18.26c0.353-0.063,0.916-0.152,1.687-0.265c0.771-0.112,1.509-0.168,2.215-0.168
		c0.739,0,1.39,0.056,1.952,0.168c0.562,0.113,1.036,0.314,1.421,0.603s0.675,0.691,0.867,1.205c0.193,0.514,0.29,1.188,0.29,2.023
		V31.589z"/>
	<path fill="#73879B" d="M38.116,42.188c-0.354,0.097-0.908,0.192-1.662,0.29c-0.756,0.096-1.502,0.144-2.241,0.144
		c-0.739,0-1.39-0.056-1.951-0.169c-0.562-0.111-1.035-0.313-1.421-0.602c-0.385-0.288-0.674-0.689-0.867-1.204
		c-0.193-0.513-0.289-1.188-0.289-2.023V15.932c0-0.674,0.185-1.196,0.554-1.565c0.37-0.37,0.875-0.668,1.518-0.892
		c1.091-0.386,2.336-0.667,3.733-0.843s2.802-0.266,4.215-0.266c4.432,0,7.82,0.948,10.166,2.843
		c2.344,1.895,3.516,4.463,3.516,7.708c0,1.574-0.248,2.996-0.746,4.264c-0.499,1.269-1.237,2.36-2.216,3.276
		c-0.98,0.916-2.216,1.621-3.709,2.12c-1.493,0.498-3.22,0.746-5.179,0.746h-3.42V42.188z M40.621,26.723
		c1.349,0,2.385-0.312,3.106-0.939c0.724-0.626,1.085-1.582,1.085-2.867c0-1.22-0.377-2.16-1.132-2.819
		c-0.755-0.658-1.854-0.987-3.3-0.987c-0.514,0-0.939,0.008-1.276,0.024c-0.337,0.016-0.683,0.057-1.036,0.12v7.467H40.621z"/>
</g>
<g>
	<path fill="#73879B" d="M74.415,48.449c0.808,0.985,1.226,2.288,0.987,3.675c-0.732-2.882-2.532-4.686-5.417-5.416
		c1.188-0.175,2.338,0.117,3.277,0.72c-0.265-0.496-0.5-0.984-0.703-1.465c-1.958-4.647-0.962-8.481-0.161-10.413l-3.9-1.617
		c-1.984,4.782-6.08,6.918-9.767,7.855c1.053,0.419,1.962,1.208,2.474,2.348c-2.222-1.977-4.718-2.472-7.52-1.457
		c1.068-0.979,2.474-1.358,3.808-1.202c-1.004-0.698-2.216-1.113-3.53-1.113c-3.437,0-6.226,2.79-6.226,6.228
		c0,3.272,2.527,5.952,5.734,6.2c0.163,0.016,0.325,0.026,0.491,0.026c0.227,0,0.451-0.014,0.672-0.037
		c0.724,1.433,1.983,2.542,3.517,3.074c-0.554-0.901-0.812-1.991-0.613-3.144c0.732,2.883,2.532,4.687,5.417,5.416
		c-1.649,0.243-3.227-0.415-4.264-1.559c-0.042,0.291-0.073,0.581-0.073,0.884c0,3.265,2.513,5.937,5.709,6.2
		c0.171,0.016,0.343,0.027,0.519,0.027c2.625,0,4.867-1.629,5.783-3.928c1.014,0.715,2.248,1.139,3.583,1.139
		c3.44,0,6.227-2.789,6.227-6.227C80.437,51.295,77.759,48.557,74.415,48.449z M62.04,53.835c-2.512-1.865-2.62-5.817,0-7.66
		C60.521,48.734,60.514,51.276,62.04,53.835z"/>
	<linearGradient id="SVGID_1_" gradientUnits="userSpaceOnUse" x1="60.1895" y1="18.4521" x2="88.2314" y2="18.4521">
		<stop  offset="0" style="stop-color:#00A79D"/>
		<stop  offset="1" style="stop-color:#00A79D"/>
	</linearGradient>
	<path fill="url(#SVGID_1_)" d="M85.04,1.943c-0.322-0.78-1.218-1.148-1.995-0.826c-5.08,2.103-9.884,4.348-12.897,8.738
		c-1.589,2.315-2.569,5.043-3.111,7.856c-3.436,1.675-6.847,8.578-6.847,8.578s2.037,0.638,3.947,1.154
		c1.032,0.28,2.028,0.524,2.646,0.613c0.136,1.044,0.302,2.041,0.507,2.958c0.108,0.481,0.447,0.886,0.904,1.079l5.419,2.243
		c0.376,0.157,0.797,0.155,1.169,0.002c0.078-0.033,1.853-1.209,2.684-1.854c0.253,0.19,0.605,0.422,1.009,0.672
		c1.872,1.162,4.902,2.749,4.902,2.749s2.475-7.291,1.227-10.903c1.613-2.375,2.849-4.997,3.361-7.755
		C88.944,12.017,87.056,6.814,85.04,1.943z M78.417,17.849c-1.581,0-2.861-1.281-2.861-2.861c0-1.581,1.281-2.863,2.861-2.863
		c1.582,0,2.862,1.282,2.862,2.863C81.28,16.568,79.999,17.849,78.417,17.849z"/>
</g>
<g>
	<path fill="#73879B" d="M118.673,27.298c0,2.517-0.393,4.704-1.174,6.562c-0.783,1.859-1.887,3.396-3.313,4.612
		c-1.425,1.217-3.13,2.125-5.114,2.725c-1.985,0.602-4.166,0.901-6.541,0.901c-1.174,0-2.467-0.049-3.878-0.146
		c-1.411-0.098-2.69-0.287-3.836-0.566V13.211c1.146-0.279,2.425-0.468,3.836-0.565c1.412-0.098,2.704-0.147,3.878-0.147
		c2.375,0,4.556,0.3,6.541,0.902c1.984,0.601,3.689,1.509,5.114,2.726c1.426,1.214,2.53,2.753,3.313,4.611
		C118.28,22.596,118.673,24.784,118.673,27.298z M102.866,38.535c3.857,0,6.736-0.986,8.637-2.956
		c1.9-1.971,2.851-4.731,2.851-8.281c0-3.548-0.95-6.31-2.851-8.279c-1.901-1.971-4.779-2.957-8.637-2.957
		c-1.146,0-2.033,0.015-2.662,0.042c-0.629,0.028-1.07,0.057-1.321,0.084v22.22c0.251,0.029,0.692,0.057,1.321,0.084
		C100.833,38.521,101.72,38.535,102.866,38.535z"/>
	<path fill="#73879B" d="M139.132,41.847c-0.476-1.257-0.922-2.495-1.342-3.711c-0.419-1.215-0.852-2.452-1.299-3.709h-13.166
		l-2.64,7.42h-4.235c1.118-3.074,2.166-5.917,3.145-8.532c0.978-2.613,1.936-5.095,2.871-7.442c0.937-2.347,1.868-4.591,2.789-6.729
		c0.922-2.138,1.887-4.256,2.894-6.351h3.731c1.007,2.095,1.97,4.213,2.895,6.351c0.92,2.138,1.849,4.382,2.787,6.729
		c0.936,2.348,1.892,4.83,2.871,7.442c0.978,2.614,2.025,5.458,3.145,8.532H139.132z M135.317,31.072
		c-0.896-2.432-1.784-4.787-2.663-7.065c-0.881-2.277-1.796-4.465-2.746-6.561c-0.979,2.096-1.907,4.284-2.788,6.561
		c-0.881,2.278-1.755,4.633-2.62,7.065H135.317z"/>
</g>
<g>
	<path fill="#73879B" d="M159.146,12.792v3.522h-9.14v25.533h-4.066V16.314h-9.14v-3.522H159.146z"/>
</g>
<g>
	<path fill="#73879B" d="M160.599,41.847V12.792h17.734v3.48h-13.669v8.636h12.159v3.396h-12.159v10.062h14.717v3.48H160.599z"/>
	<path fill="#73879B" d="M194.558,29.688c0.447,0.56,1.012,1.293,1.698,2.201c0.685,0.908,1.391,1.915,2.118,3.019
		c0.726,1.105,1.445,2.257,2.158,3.459c0.712,1.203,1.32,2.362,1.824,3.48h-4.443c-0.561-1.062-1.169-2.139-1.825-3.229
		c-0.657-1.09-1.32-2.131-1.99-3.124c-0.672-0.991-1.336-1.921-1.992-2.788c-0.656-0.865-1.25-1.62-1.782-2.263
		c-0.362,0.028-0.733,0.042-1.111,0.042c-0.377,0-0.76,0-1.152,0h-3.647v11.362h-4.067V13.211c1.146-0.279,2.424-0.468,3.836-0.565
		c1.411-0.098,2.706-0.147,3.879-0.147c4.079,0,7.19,0.77,9.329,2.306c2.137,1.539,3.206,3.83,3.206,6.876
		c0,1.929-0.509,3.578-1.528,4.947C198.044,27.998,196.543,29.018,194.558,29.688z M188.395,16.062c-1.732,0-3.06,0.042-3.982,0.126
		v10.942h2.894c1.396,0,2.655-0.07,3.772-0.21s2.061-0.405,2.83-0.796c0.769-0.391,1.363-0.943,1.781-1.657
		c0.421-0.712,0.629-1.656,0.629-2.83c0-1.09-0.208-1.998-0.629-2.725c-0.418-0.728-0.984-1.301-1.697-1.719
		c-0.713-0.42-1.552-0.713-2.517-0.88C190.512,16.146,189.485,16.062,188.395,16.062z"/>
</g>
<g>
	<linearGradient id="SVGID_2_" gradientUnits="userSpaceOnUse" x1="205.4512" y1="27.2578" x2="231.9844" y2="27.2578">
		<stop  offset="0" style="stop-color:#00A79D"/>
		<stop  offset="1" style="stop-color:#00A79D"/>
	</linearGradient>
	<path fill="url(#SVGID_2_)" d="M231.984,12.802c-1.058,3.06-2.065,5.891-3.026,8.491c-0.96,2.601-1.896,5.068-2.814,7.405
		c-0.918,2.336-1.83,4.568-2.732,6.695c-0.904,2.128-1.83,4.235-2.774,6.321h-3.798c-0.945-2.086-1.87-4.193-2.774-6.321
		c-0.902-2.127-1.82-4.359-2.754-6.695c-0.932-2.337-1.883-4.804-2.856-7.405c-0.975-2.6-1.974-5.431-3.003-8.491h4.463
		c1.502,4.395,2.975,8.623,4.422,12.683c1.446,4.061,2.935,7.872,4.465,11.431c1.529-3.532,3.018-7.335,4.462-11.41
		c1.447-4.074,2.907-8.309,4.382-12.704H231.984z"/>
	<linearGradient id="SVGID_3_" gradientUnits="userSpaceOnUse" x1="227.3574" y1="39.4604" x2="232.9473" y2="39.4604">
		<stop  offset="0" style="stop-color:#00A79D"/>
		<stop  offset="1" style="stop-color:#00A79D"/>
	</linearGradient>
	<path fill="url(#SVGID_3_)" d="M232.947,39.46c0,0.752-0.25,1.405-0.749,1.961c-0.502,0.556-1.183,0.834-2.046,0.834
		c-0.862,0-1.543-0.278-2.045-0.834c-0.499-0.556-0.75-1.209-0.75-1.961c0-0.75,0.251-1.403,0.75-1.961
		c0.502-0.555,1.183-0.833,2.045-0.833c0.863,0,1.544,0.278,2.046,0.833C232.697,38.057,232.947,38.709,232.947,39.46z"/>
	<linearGradient id="SVGID_4_" gradientUnits="userSpaceOnUse" x1="234.1973" y1="27.5078" x2="252.9697" y2="27.5078">
		<stop  offset="0" style="stop-color:#00A79D"/>
		<stop  offset="1" style="stop-color:#00A79D"/>
	</linearGradient>
	<path fill="url(#SVGID_4_)" d="M234.197,30.116c0-2.81,0.389-5.292,1.169-7.447c0.777-2.155,1.881-3.969,3.316-5.445
		c1.432-1.474,3.169-2.593,5.214-3.357c2.045-0.765,4.346-1.162,6.904-1.19l0.291,3.254c-1.641,0.028-3.135,0.209-4.484,0.542
		c-1.348,0.334-2.552,0.863-3.607,1.586c-1.058,0.723-1.947,1.662-2.671,2.815c-0.724,1.155-1.265,2.58-1.628,4.276
		c0.724-0.333,1.537-0.611,2.441-0.834c0.905-0.222,1.843-0.333,2.817-0.333c1.64,0,3.03,0.25,4.171,0.75
		c1.141,0.501,2.071,1.162,2.796,1.982c0.723,0.821,1.244,1.767,1.563,2.837c0.318,1.07,0.479,2.189,0.479,3.357
		c0,1.058-0.18,2.142-0.541,3.254c-0.363,1.113-0.911,2.128-1.648,3.046s-1.676,1.668-2.816,2.252
		c-1.142,0.585-2.489,0.877-4.046,0.877c-3.172,0-5.584-1.085-7.239-3.254C235.024,36.916,234.197,33.926,234.197,30.116z
		 M243.542,27.153c-0.975,0-1.879,0.091-2.712,0.271c-0.834,0.182-1.669,0.452-2.503,0.814c-0.028,0.306-0.049,0.619-0.062,0.938
		c-0.016,0.321-0.021,0.634-0.021,0.939c0,1.224,0.084,2.377,0.251,3.463c0.167,1.084,0.465,2.038,0.896,2.857
		c0.433,0.82,1.009,1.475,1.733,1.96c0.722,0.487,1.64,0.731,2.753,0.731c0.918,0,1.697-0.195,2.335-0.584
		c0.642-0.389,1.17-0.891,1.585-1.503c0.419-0.611,0.717-1.271,0.899-1.981c0.18-0.709,0.269-1.397,0.269-2.065
		c0-1.891-0.451-3.337-1.355-4.339C246.706,27.654,245.35,27.153,243.542,27.153z"/>
</g>
</svg>
